<svg width="20" height="20" viewBox="0 0 20 20" fill="none" xmlns="http://www.w3.org/2000/svg">
<path fill-rule="evenodd" clip-rule="evenodd" d="M16.6245 5.9087C16.6332 5.25778 16.3892 4.60413 15.8925 4.10746C15.3958 3.6108 14.7422 3.36679 14.0913 3.37546C14.091 3.37546 14.0915 3.37545 14.0913 3.37546C13.7315 3.38035 13.3719 3.46243 13.0408 3.6217C12.9221 3.67877 12.807 3.74576 12.6968 3.82267C12.6543 3.85228 12.5997 3.85904 12.5518 3.83921C12.5041 3.81939 12.4701 3.77596 12.4611 3.72503C12.4375 3.59268 12.4035 3.46394 12.3599 3.33968C12.2384 2.99295 12.0427 2.68112 11.7917 2.42327C11.7916 2.4231 11.7919 2.42345 11.7917 2.42327C11.3376 1.95688 10.7024 1.66669 9.99996 1.66669C9.29757 1.66669 8.66283 1.95635 8.20869 2.42274C8.20852 2.42292 8.20886 2.42257 8.20869 2.42274C7.95775 2.68059 7.76149 2.99295 7.63999 3.33968C7.59645 3.46394 7.56244 3.59268 7.53885 3.72503C7.52977 3.77596 7.49587 3.81939 7.44808 3.83921C7.40026 3.85904 7.3456 3.85228 7.30314 3.82266C7.19288 3.74576 7.0778 3.67877 6.95914 3.6217C6.62805 3.46243 6.26914 3.38036 5.90937 3.37546C5.90913 3.37546 5.90962 3.37547 5.90937 3.37546C5.25846 3.3668 4.60407 3.6108 4.1074 4.10746C3.61074 4.60413 3.36673 5.25778 3.37539 5.9087C3.3754 5.90894 3.37539 5.90845 3.37539 5.9087C3.38029 6.26846 3.46237 6.62811 3.62163 6.9592C3.67871 7.07785 3.7457 7.19293 3.8226 7.3032C3.85222 7.34566 3.85898 7.40032 3.83915 7.44814C3.81933 7.49593 3.7759 7.52983 3.72497 7.53891C3.59262 7.5625 3.46387 7.59651 3.3396 7.64006C2.99288 7.76155 2.68106 7.95731 2.42321 8.20824C2.42303 8.20841 2.42339 8.20806 2.42321 8.20824C1.95682 8.66238 1.66663 9.29763 1.66663 10C1.66663 10.7024 1.95629 11.3372 2.42268 11.7913C2.42286 11.7915 2.42251 11.7911 2.42268 11.7913C2.68053 12.0422 2.99288 12.2385 3.3396 12.36C3.46387 12.4035 3.59262 12.4375 3.72497 12.4611C3.7759 12.4702 3.81933 12.5041 3.83915 12.5519C3.85898 12.5997 3.85222 12.6544 3.8226 12.6968C3.7457 12.8071 3.67871 12.9222 3.62163 13.0408C3.46237 13.3719 3.3803 13.7308 3.3754 14.0906C3.3754 14.0909 3.37541 14.0904 3.3754 14.0906C3.36674 14.7415 3.61074 15.3959 4.1074 15.8926C4.60407 16.3892 5.25772 16.6332 5.90864 16.6246C5.90888 16.6246 5.90839 16.6246 5.90864 16.6246C6.2684 16.6197 6.62804 16.5376 6.95912 16.3784C7.07778 16.3213 7.19287 16.2543 7.30313 16.1774C7.3456 16.1478 7.40026 16.141 7.44808 16.1608C7.49587 16.1807 7.52977 16.2241 7.53885 16.275C7.56244 16.4074 7.59645 16.5361 7.64 16.6604C7.7615 17.0071 7.95725 17.3189 8.20817 17.5768C8.20835 17.5769 8.208 17.5766 8.20817 17.5768C8.66232 18.0432 9.29757 18.3334 9.99996 18.3334C10.7024 18.3334 11.3371 18.0437 11.7912 17.5773C11.7914 17.5771 11.7911 17.5775 11.7912 17.5773C12.0422 17.3194 12.2384 17.0071 12.3599 16.6604C12.4035 16.5361 12.4375 16.4074 12.4611 16.275C12.4701 16.2241 12.5041 16.1807 12.5518 16.1608C12.5997 16.141 12.6543 16.1478 12.6968 16.1774C12.8071 16.2543 12.9221 16.3213 13.0408 16.3784C13.3719 16.5376 13.7308 16.6197 14.0905 16.6246C14.0908 16.6246 14.0903 16.6246 14.0905 16.6246C14.7415 16.6332 15.3958 16.3892 15.8925 15.8926C16.3892 15.3959 16.6332 14.7423 16.6245 14.0913C16.6245 14.0911 16.6245 14.0916 16.6245 14.0913C16.6196 13.7316 16.5375 13.3719 16.3783 13.0409C16.3212 12.9222 16.2542 12.8071 16.1773 12.6968C16.1477 12.6544 16.1409 12.5997 16.1608 12.5519C16.1806 12.5041 16.224 12.4702 16.275 12.4611C16.4073 12.4375 16.5361 12.4035 16.6603 12.36C17.007 12.2385 17.3189 12.0427 17.5767 11.7918C17.5769 11.7916 17.5765 11.792 17.5767 11.7918C18.0431 11.3377 18.3333 10.7024 18.3333 10C18.3333 9.29763 18.0436 8.66289 17.5772 8.20875C17.5771 8.20858 17.5774 8.20892 17.5772 8.20875C17.3194 7.95782 17.007 7.76156 16.6603 7.64006C16.5361 7.59651 16.4073 7.5625 16.275 7.53891C16.224 7.52983 16.1806 7.49593 16.1608 7.44814C16.1409 7.40032 16.1477 7.34566 16.1773 7.3032C16.2542 7.19293 16.3212 7.07784 16.3783 6.95919C16.5376 6.6281 16.6196 6.26846 16.6245 5.9087C16.6245 5.90894 16.6245 5.90845 16.6245 5.9087ZM14.714 5.28597C14.4253 4.99729 13.9742 4.96372 13.6502 5.1897C13.1586 5.53256 12.5057 5.62437 11.9134 5.37876C11.3227 5.13378 10.9256 4.60823 10.8203 4.01751C10.7509 3.6286 10.4082 3.33335 9.99996 3.33335C9.5917 3.33335 9.24898 3.6286 9.17965 4.01751C9.07436 4.60822 8.67727 5.13378 8.08649 5.37875C7.49419 5.62437 6.84133 5.53255 6.34973 5.1897C6.02571 4.96372 5.5746 4.99729 5.28591 5.28597C4.99723 5.57466 4.96366 6.02577 5.18964 6.34979C5.5325 6.84139 5.62431 7.49425 5.37869 8.08655C5.13372 8.67733 4.60816 9.07442 4.01745 9.17972C3.62854 9.24904 3.33329 9.59176 3.33329 10C3.33329 10.4083 3.62854 10.751 4.01745 10.8203C4.60816 10.9256 5.13372 11.3227 5.37869 11.9135C5.62431 12.5058 5.53249 13.1587 5.18964 13.6503C4.96366 13.9743 4.99723 14.4254 5.28591 14.7141C5.5746 15.0027 6.02571 15.0363 6.34973 14.8103C6.84132 14.4675 7.49418 14.3757 8.08649 14.6213C8.67726 14.8663 9.07436 15.3918 9.17966 15.9825C9.24898 16.3714 9.5917 16.6667 9.99996 16.6667C10.4082 16.6667 10.7509 16.3714 10.8203 15.9825C10.9256 15.3918 11.3227 14.8663 11.9134 14.6213C12.5057 14.3757 13.1586 14.4675 13.6502 14.8103C13.9742 15.0363 14.4253 15.0027 14.714 14.7141C15.0027 14.4254 15.0363 13.9743 14.8103 13.6503C14.4674 13.1587 14.3756 12.5058 14.6212 11.9135C14.8662 11.3227 15.3918 10.9256 15.9825 10.8203C16.3714 10.751 16.6666 10.4083 16.6666 10C16.6666 9.59176 16.3714 9.24904 15.9825 9.17972C15.3918 9.07442 14.8662 8.67733 14.6212 8.08656C14.3756 7.49425 14.4674 6.84138 14.8103 6.34979C15.0363 6.02577 15.0027 5.57466 14.714 5.28597Z" fill="#72767C"/>
<path fill-rule="evenodd" clip-rule="evenodd" d="M9.99996 11.6667C10.9204 11.6667 11.6666 10.9205 11.6666 10C11.6666 9.07955 10.9204 8.33335 9.99996 8.33335C9.07948 8.33335 8.33329 9.07955 8.33329 10C8.33329 10.9205 9.07948 11.6667 9.99996 11.6667ZM9.99996 13.3334C11.8409 13.3334 13.3333 11.841 13.3333 10C13.3333 8.15907 11.8409 6.66669 9.99996 6.66669C8.15901 6.66669 6.66663 8.15907 6.66663 10C6.66663 11.841 8.15901 13.3334 9.99996 13.3334Z" fill="#72767C"/>
</svg>
