<svg width="28" height="28" viewBox="0 0 28 28" fill="none" xmlns="http://www.w3.org/2000/svg">
<path d="M1.37549 1.66493L8.10378 1.64746L8.12998 5.32061C8.34072 6.60578 9.58876 7.5601 10.8171 8.99267C13.0828 11.4691 15.5112 14.2491 15.5112 14.2491C15.5112 14.2491 13.9433 16.03 11.9789 18.2029C11.089 19.3548 10.1238 20.272 9.3944 21.0942C8.68467 21.8913 8.16711 22.5639 8.1136 23.2769L8.10378 26.8452H1.37549V1.66493ZM8.11688 13.3504V15.7155H10.6654V13.3504H8.11688Z" fill="#A7A9AC"/>
<path d="M26.6628 1.66496H1.37546V26.8453H26.6628V1.66496ZM27.4009 0.879883V27.6336H0.599121V0.879883H27.4009Z" fill="#231F20"/>
<path d="M26.663 1.66504V26.8453H8.08103L18.2816 15.2723C18.6375 14.8541 18.8024 14.4894 18.7937 14.1728C18.7838 13.831 18.5709 13.6323 18.4322 13.415C18.3635 13.2632 18.0752 12.9804 18.0752 12.9804L8.07666 1.66504H26.663Z" fill="#FCD34D"/>
<path d="M8.11768 13.3506H10.6651V15.7156H8.11768V13.3506Z" fill="#231F20"/>
<path d="M18.8211 14.2509C18.8091 14.668 18.5972 14.9803 18.4214 15.1572C18.2391 15.3374 8.09424 26.8536 8.09424 26.8536V23.5954C8.09424 22.6323 8.60416 21.9641 9.0027 21.4935C9.40343 21.0229 15.5115 14.2509 15.5115 14.2509C15.5115 14.2509 9.40343 7.48004 9.0027 7.00944C8.60416 6.53883 8.09424 5.86949 8.09424 4.90753V1.65039C8.09424 1.65039 18.2391 13.1667 18.4214 13.3457C18.5972 13.5215 18.8091 13.8338 18.8211 14.2509ZM15.5115 14.2509H18.8211C15.5115 14.2498 15.5115 14.2509 15.5115 14.2509Z" fill="#231F20"/>
</svg>
