<svg width="20" height="20" viewBox="0 0 20 20" fill="none" xmlns="http://www.w3.org/2000/svg">
<path fill-rule="evenodd" clip-rule="evenodd" d="M5.29315 10.2932C5.10545 10.4807 5 10.735 5 11.0002C5 11.2654 5.10545 11.5197 5.29315 11.7072L9.29816 15.7072C9.48592 15.8947 9.74055 16 10.006 16C10.2715 16 10.5262 15.8947 10.7139 15.7072L14.7189 11.7072C14.9013 11.5186 15.0022 11.266 15 11.0038C14.9977 10.7416 14.8924 10.4908 14.7067 10.3054C14.5211 10.12 14.27 10.0148 14.0074 10.0125C13.7449 10.0103 13.492 10.1111 13.3032 10.2932L11.0073 12.5862V5.00021C11.0073 4.735 10.9018 4.48064 10.714 4.29311C10.5263 4.10557 10.2716 4.00021 10.006 4.00021C9.7405 4.00021 9.48582 4.10557 9.29805 4.29311C9.11028 4.48064 9.00479 4.735 9.00479 5.00021V12.5862L6.70892 10.2932C6.52116 10.1057 6.26653 10.0004 6.00104 10.0004C5.73554 10.0004 5.48092 10.1057 5.29315 10.2932Z" fill="#EF4444"/>
</svg>
