<svg width="16" height="16" viewBox="0 0 16 16" fill="none" xmlns="http://www.w3.org/2000/svg">
<path d="M1.33325 4.66602L6.77653 8.47631C7.21731 8.78486 7.4377 8.93913 7.67743 8.99889C7.88918 9.05167 8.11066 9.05167 8.32241 8.99889C8.56213 8.93913 8.78252 8.78486 9.2233 8.47631L14.6666 4.66602M4.53325 13.3327H11.4666C12.5867 13.3327 13.1467 13.3327 13.5746 13.1147C13.9509 12.9229 14.2569 12.617 14.4486 12.2407C14.6666 11.8128 14.6666 11.2528 14.6666 10.1327V5.86602C14.6666 4.74591 14.6666 4.18586 14.4486 3.75803C14.2569 3.38171 13.9509 3.07575 13.5746 2.884C13.1467 2.66602 12.5867 2.66602 11.4666 2.66602H4.53325C3.41315 2.66602 2.85309 2.66602 2.42527 2.884C2.04895 3.07575 1.74299 3.38171 1.55124 3.75803C1.33325 4.18586 1.33325 4.74591 1.33325 5.86602V10.1327C1.33325 11.2528 1.33325 11.8128 1.55124 12.2407C1.74299 12.617 2.04895 12.9229 2.42527 13.1147C2.85309 13.3327 3.41315 13.3327 4.53325 13.3327Z" stroke="white" stroke-width="1.33333" stroke-linecap="round" stroke-linejoin="round"/>
</svg>
