<svg width="15" height="14" viewBox="0 0 15 14" fill="none" xmlns="http://www.w3.org/2000/svg">
<path d="M2.04837 14.0005H10.8271C11.3712 13.9989 11.8925 13.7816 12.2765 13.3961C12.6605 13.0106 12.8759 12.4886 12.8755 11.9445V7.53346C12.8755 7.37825 12.8138 7.22939 12.704 7.11963C12.5943 7.00988 12.4454 6.94822 12.2902 6.94822C12.135 6.94822 11.9861 7.00988 11.8764 7.11963C11.7666 7.22939 11.705 7.37825 11.705 7.53346V11.9445C11.7057 12.1782 11.6137 12.4028 11.4492 12.5688C11.2846 12.7348 11.0609 12.8287 10.8271 12.83H2.04837C1.8146 12.8287 1.59088 12.7348 1.4263 12.5688C1.26172 12.4028 1.16972 12.1782 1.1705 11.9445V3.18098C1.16972 2.94721 1.26172 2.72269 1.4263 2.55668C1.59088 2.39067 1.8146 2.29673 2.04837 2.2955H6.43773C6.59294 2.2955 6.7418 2.23384 6.85156 2.12408C6.96132 2.01433 7.02298 1.86547 7.02298 1.71025C7.02298 1.55503 6.96132 1.40617 6.85156 1.29642C6.7418 1.18666 6.59294 1.125 6.43773 1.125H2.04837C1.50427 1.12655 0.983003 1.3439 0.598977 1.72935C0.214951 2.11481 -0.000466496 2.63687 7.58545e-07 3.18098V11.9445C-0.000466496 12.4886 0.214951 13.0106 0.598977 13.3961C0.983003 13.7816 1.50427 13.9989 2.04837 14.0005V14.0005Z" fill="#9CA3AF"/>
<path d="M5.53377 6.1249L5.07201 8.23999C5.05111 8.33592 5.05468 8.43558 5.08239 8.52977C5.11011 8.62396 5.16108 8.70967 5.23061 8.779C5.3011 8.84659 5.38684 8.89618 5.48056 8.92359C5.57429 8.95099 5.67324 8.9554 5.76904 8.93643L7.87944 8.4735C7.98902 8.44944 8.08938 8.39438 8.16855 8.3149L13.5025 2.98095C13.6656 2.81791 13.7949 2.62434 13.8832 2.41131C13.9714 2.19827 14.0169 1.96994 14.0169 1.73935C14.0169 1.50875 13.9714 1.28042 13.8832 1.06738C13.7949 0.854348 13.6656 0.660783 13.5025 0.497743C13.1682 0.178277 12.7236 0 12.2612 0C11.7988 0 11.3542 0.178277 11.0199 0.497743L5.69413 5.83696C5.61419 5.9156 5.55853 6.01554 5.53377 6.1249ZM11.8474 1.32587C11.9588 1.2192 12.107 1.15965 12.2612 1.15965C12.4154 1.15965 12.5636 1.2192 12.675 1.32587C12.7832 1.43626 12.8439 1.58472 12.8439 1.73935C12.8439 1.89397 12.7832 2.04243 12.675 2.15282L12.2612 2.56659L11.4337 1.73905L11.8474 1.32587ZM6.63872 6.54277L10.6032 2.56835L11.4225 3.39179L7.45631 7.36738L6.40579 7.59797L6.63872 6.54277Z" fill="#9CA3AF"/>
</svg>
