<svg width="24" height="24" viewBox="0 0 24 24" fill="none" xmlns="http://www.w3.org/2000/svg">
<g clip-path="url(#clip0_39_6137)">
<path d="M12.46 2.54277C12.3823 2.45213 12.269 2.3999 12.1496 2.3999C12.0303 2.3999 11.9169 2.45213 11.8393 2.54277C11.5494 2.88169 4.7998 10.9381 4.7998 14.7926C4.82141 16.7218 5.60724 18.5638 6.98521 19.9141C8.36318 21.2644 10.2205 22.013 12.1497 21.9956C14.0789 22.013 15.9363 21.2644 17.3143 19.9141C18.6922 18.5637 19.4781 16.7219 19.4997 14.7926C19.4997 10.9381 12.75 2.88157 12.4602 2.54277H12.46ZM14.7833 19.7335C14.727 19.764 14.6637 19.7796 14.5996 19.7783C14.4115 19.7772 14.2484 19.6478 14.2047 19.4647C14.1611 19.2816 14.2484 19.0924 14.4158 19.0067C15.2026 18.6179 15.8657 18.0178 16.3308 17.2735C16.7961 16.5292 17.0449 15.6702 17.0496 14.7926C17.0496 14.5672 17.2323 14.3844 17.4579 14.3844C17.6834 14.3844 17.8662 14.5672 17.8662 14.7926C17.8621 15.8213 17.5714 16.8284 17.0269 17.7012C16.4823 18.5739 15.7055 19.2775 14.7833 19.7335L14.7833 19.7335Z" fill="white"/>
</g>
<defs>
<clipPath id="clip0_39_6137">
<rect width="24" height="24" fill="white"/>
</clipPath>
</defs>
</svg>
