<svg width="24" height="25" viewBox="0 0 24 25" fill="none" xmlns="http://www.w3.org/2000/svg">
<g clip-path="url(#clip0_39_6111)">
<path fill-rule="evenodd" clip-rule="evenodd" d="M12.7677 5.03407V5.91781C12.7539 6.70159 11.6526 7.14832 11.3045 6.29201C11.2582 6.17439 11.2336 6.04696 11.2323 5.91781V5.03407H8.92988C8.3389 5.00134 7.94313 4.11229 8.34966 3.57179C8.48953 3.38602 8.6025 3.28517 8.92988 3.26659C9.69683 3.26659 10.4646 3.26394 11.2323 3.25863V2.38374C11.2302 2.28951 11.2433 2.19566 11.2707 2.10685C11.3721 1.75212 11.6757 1.5 12.0154 1.5C12.425 1.51858 12.7585 1.87154 12.7677 2.38374V3.24802C14.3024 3.2374 15.8378 3.22767 17.3733 3.23652V2.38374C17.381 1.91135 17.6807 1.52035 18.1257 1.5H18.1556C18.566 1.51858 18.8995 1.87154 18.908 2.38374V3.25244L19.7326 3.26748C20.9091 3.30994 21.9558 4.47499 21.9781 5.88508C22.0073 11.2079 22.0073 16.5315 21.9781 21.8552C21.9566 23.2219 20.9291 24.4463 19.7041 24.4728C14.5683 24.5091 9.4317 24.5091 4.29587 24.4728C3.11316 24.4471 2.04496 23.2883 2.0219 21.8552C1.9927 16.5315 1.9927 11.2079 2.0219 5.88508C2.04342 4.50861 3.06782 3.27632 4.322 3.26659H5.09203V2.38374C5.0896 2.28948 5.10264 2.19555 5.13045 2.10685C5.23189 1.75212 5.53545 1.5 5.87435 1.5C6.28473 1.51858 6.61825 1.87154 6.62671 2.38374V5.91781C6.61364 6.7007 5.5439 7.13948 5.17733 6.32385C5.12212 6.19787 5.09293 6.05891 5.09203 5.91781V5.03053C4.82971 5.02817 4.56738 5.02935 4.30509 5.03407C3.91547 5.04823 3.56888 5.441 3.55658 5.8957C3.47089 11.2112 3.47089 16.5282 3.55658 21.8437C3.56888 22.2931 3.91009 22.6912 4.30509 22.7053C9.43459 22.815 14.5654 22.815 19.6949 22.7053C20.0845 22.6912 20.4311 22.2984 20.4434 21.8437C20.5287 16.5289 20.5287 11.2105 20.4434 5.8957C20.4318 5.6673 20.3463 5.45219 20.2038 5.29272C20.0613 5.13325 19.8721 5.04098 19.6734 5.03407H18.908V5.91781C18.8949 6.69363 17.8221 7.13152 17.4586 6.32385C17.4038 6.19772 17.3746 6.05886 17.3733 5.91781V5.03407H12.7677ZM5.85898 19.1712C5.9619 19.1675 6.06441 19.1876 6.16045 19.2303C6.25648 19.2731 6.34408 19.3376 6.41803 19.4201C6.49198 19.5026 6.55077 19.6013 6.59093 19.7104C6.63108 19.8196 6.65177 19.9369 6.65177 20.0554C6.65177 20.174 6.63108 20.2913 6.59093 20.4004C6.55077 20.5096 6.49198 20.6083 6.41803 20.6908C6.34408 20.7732 6.25648 20.8378 6.16045 20.8805C6.06441 20.9233 5.9619 20.9434 5.85898 20.9396C5.65947 20.9323 5.47025 20.836 5.33135 20.671C5.19246 20.506 5.11479 20.2852 5.11479 20.0554C5.11479 19.8257 5.19246 19.6049 5.33135 19.4399C5.47025 19.2748 5.65947 19.1785 5.85898 19.1712ZM8.92988 19.1712C9.03359 19.166 9.13714 19.185 9.2343 19.2272C9.33145 19.2693 9.42018 19.3336 9.49513 19.4163C9.57009 19.499 9.62972 19.5983 9.67042 19.7082C9.71112 19.8181 9.73205 19.9364 9.73195 20.0559C9.73184 20.1754 9.71071 20.2936 9.66982 20.4035C9.62892 20.5133 9.56912 20.6125 9.49402 20.695C9.41892 20.7775 9.33008 20.8416 9.23286 20.8835C9.13563 20.9254 9.03204 20.9442 8.92834 20.9387C8.73068 20.9283 8.54412 20.8305 8.40751 20.6658C8.2709 20.501 8.19477 20.2819 8.19497 20.0541C8.19516 19.8264 8.27168 19.6075 8.40857 19.443C8.54547 19.2785 8.73219 19.1812 8.92988 19.1712ZM12 19.1712C12.1977 19.1814 12.3843 19.279 12.5211 19.4436C12.6578 19.6082 12.7341 19.8272 12.7341 20.055C12.7341 20.2828 12.6578 20.5017 12.5211 20.6664C12.3843 20.831 12.1977 20.9285 12 20.9387C11.8023 20.9285 11.6157 20.831 11.4789 20.6664C11.3422 20.5017 11.2659 20.2828 11.2659 20.055C11.2659 19.8272 11.3422 19.6082 11.4789 19.4436C11.6157 19.279 11.8023 19.1814 12 19.1712ZM5.85898 15.6372C5.96179 15.6334 6.06421 15.6535 6.16015 15.6962C6.25609 15.7389 6.3436 15.8034 6.41748 15.8858C6.49135 15.9682 6.55009 16.0668 6.59021 16.1758C6.63032 16.2849 6.65099 16.4021 6.65099 16.5205C6.65099 16.6389 6.63032 16.7561 6.59021 16.8651C6.55009 16.9741 6.49135 17.0728 6.41748 17.1552C6.3436 17.2376 6.25609 17.302 6.16015 17.3447C6.06421 17.3874 5.96179 17.4075 5.85898 17.4038C5.65967 17.3965 5.47064 17.3003 5.33189 17.1354C5.19313 16.9705 5.11555 16.75 5.11555 16.5205C5.11555 16.2909 5.19313 16.0704 5.33189 15.9055C5.47064 15.7407 5.65967 15.6444 5.85898 15.6372ZM8.92988 15.6372C9.13339 15.6372 9.32856 15.7302 9.47247 15.8959C9.61637 16.0615 9.69721 16.2862 9.69721 16.5205C9.69721 16.7547 9.61637 16.9794 9.47247 17.1451C9.32856 17.3107 9.13339 17.4038 8.92988 17.4038C8.72636 17.4038 8.53119 17.3107 8.38728 17.1451C8.24338 16.9794 8.16254 16.7547 8.16254 16.5205C8.16254 16.2862 8.24338 16.0615 8.38728 15.8959C8.53119 15.7302 8.72636 15.6372 8.92988 15.6372ZM12 15.6372C12.1029 15.6334 12.2054 15.6535 12.3015 15.6963C12.3975 15.739 12.4851 15.8035 12.559 15.886C12.633 15.9685 12.6918 16.0672 12.7319 16.1764C12.7721 16.2855 12.7928 16.4028 12.7928 16.5214C12.7928 16.6399 12.7721 16.7572 12.7319 16.8663C12.6918 16.9755 12.633 17.0742 12.559 17.1567C12.4851 17.2392 12.3975 17.3037 12.3015 17.3464C12.2054 17.3892 12.1029 17.4093 12 17.4055C11.8005 17.3983 11.6113 17.3019 11.4724 17.1369C11.3335 16.9719 11.2558 16.7511 11.2558 16.5214C11.2558 16.2916 11.3335 16.0708 11.4724 15.9058C11.6113 15.7408 11.8005 15.6444 12 15.6372ZM15.0701 15.6372C15.173 15.6334 15.2756 15.6535 15.3716 15.6963C15.4676 15.739 15.5552 15.8035 15.6292 15.886C15.7031 15.9685 15.7619 16.0672 15.8021 16.1764C15.8422 16.2855 15.8629 16.4028 15.8629 16.5214C15.8629 16.6399 15.8422 16.7572 15.8021 16.8663C15.7619 16.9755 15.7031 17.0742 15.6292 17.1567C15.5552 17.2392 15.4676 17.3037 15.3716 17.3464C15.2756 17.3892 15.173 17.4093 15.0701 17.4055C14.8706 17.3983 14.6814 17.3019 14.5425 17.1369C14.4036 16.9719 14.3259 16.7511 14.3259 16.5214C14.3259 16.2916 14.4036 16.0708 14.5425 15.9058C14.6814 15.7408 14.8706 15.6444 15.0701 15.6372ZM18.1403 15.6372C18.2431 15.6334 18.3455 15.6535 18.4414 15.6962C18.5374 15.7389 18.6249 15.8034 18.6987 15.8858C18.7726 15.9682 18.8314 16.0668 18.8715 16.1758C18.9116 16.2849 18.9323 16.4021 18.9323 16.5205C18.9323 16.6389 18.9116 16.7561 18.8715 16.8651C18.8314 16.9741 18.7726 17.0728 18.6987 17.1552C18.6249 17.2376 18.5374 17.302 18.4414 17.3447C18.3455 17.3874 18.2431 17.4075 18.1403 17.4038C17.9409 17.3965 17.7519 17.3003 17.6132 17.1354C17.4744 16.9705 17.3968 16.75 17.3968 16.5205C17.3968 16.2909 17.4744 16.0704 17.6132 15.9055C17.7519 15.7407 17.9409 15.6444 18.1403 15.6372ZM8.92988 12.1031C9.03059 12.1031 9.13032 12.1259 9.22338 12.1703C9.31643 12.2147 9.40098 12.2797 9.47219 12.3617C9.54341 12.4437 9.59991 12.541 9.63845 12.6481C9.67699 12.7552 9.69683 12.87 9.69683 12.986C9.69683 13.1019 9.67699 13.2167 9.63845 13.3238C9.59991 13.4309 9.54341 13.5282 9.47219 13.6102C9.40098 13.6922 9.31643 13.7572 9.22338 13.8016C9.13032 13.846 9.03059 13.8688 8.92988 13.8688C8.72647 13.8688 8.53139 13.7758 8.38756 13.6102C8.24372 13.4447 8.16292 13.2201 8.16292 12.986C8.16292 12.7518 8.24372 12.5273 8.38756 12.3617C8.53139 12.1961 8.72647 12.1031 8.92988 12.1031ZM12 12.1031C12.1037 12.0978 12.2073 12.1167 12.3045 12.1587C12.4017 12.2007 12.4904 12.2649 12.5655 12.3475C12.6405 12.4301 12.7002 12.5293 12.741 12.6392C12.7818 12.7491 12.8029 12.8673 12.8029 12.9868C12.8029 13.1063 12.7818 13.2246 12.741 13.3345C12.7002 13.4444 12.6405 13.5436 12.5655 13.6262C12.4904 13.7088 12.4017 13.773 12.3045 13.815C12.2073 13.857 12.1037 13.8759 12 13.8706C11.8023 13.8604 11.6157 13.7628 11.4789 13.5982C11.3422 13.4336 11.2659 13.2146 11.2659 12.9868C11.2659 12.7591 11.3422 12.5401 11.4789 12.3755C11.6157 12.2108 11.8023 12.1133 12 12.1031ZM15.0701 12.1031C15.1738 12.0978 15.2774 12.1167 15.3746 12.1587C15.4718 12.2007 15.5606 12.2649 15.6356 12.3475C15.7106 12.4301 15.7703 12.5293 15.8111 12.6392C15.8519 12.7491 15.873 12.8673 15.873 12.9868C15.873 13.1063 15.8519 13.2246 15.8111 13.3345C15.7703 13.4444 15.7106 13.5436 15.6356 13.6262C15.5606 13.7088 15.4718 13.773 15.3746 13.815C15.2774 13.857 15.1738 13.8759 15.0701 13.8706C14.8725 13.8604 14.6858 13.7628 14.5491 13.5982C14.4123 13.4336 14.336 13.2146 14.336 12.9868C14.336 12.7591 14.4123 12.5401 14.5491 12.3755C14.6858 12.2108 14.8725 12.1133 15.0701 12.1031ZM18.1403 12.1031C18.3438 12.103 18.539 12.1959 18.683 12.3615C18.8269 12.5271 18.9079 12.7517 18.908 12.986C18.9081 13.2202 18.8273 13.4449 18.6835 13.6107C18.5397 13.7764 18.3445 13.8696 18.141 13.8697C18.0403 13.8698 17.9405 13.847 17.8473 13.8026C17.7542 13.7583 17.6696 13.6933 17.5983 13.6113C17.527 13.5293 17.4705 13.432 17.4319 13.3248C17.3932 13.2177 17.3733 13.1028 17.3733 12.9868C17.3732 12.8708 17.393 12.756 17.4316 12.6488C17.4701 12.5416 17.5266 12.4442 17.5978 12.3621C17.669 12.2801 17.7536 12.215 17.8466 12.1705C17.9397 12.1261 18.0395 12.1032 18.1403 12.1031Z" fill="white"/>
</g>
<defs>
<clipPath id="clip0_39_6111">
<rect width="24" height="24" fill="white" transform="translate(0 0.5)"/>
</clipPath>
</defs>
</svg>
