<svg width="24" height="24" viewBox="0 0 24 24" fill="none" xmlns="http://www.w3.org/2000/svg">
<path d="M21.7733 15.1669L20.2934 14.5747C20.3671 14.2671 20.3582 13.9453 20.2676 13.6424L20.2166 13.4851C20.2121 13.4713 20.2068 13.4578 20.2007 13.4446L19.7097 12.3792C19.6005 12.1454 19.4457 11.936 19.2545 11.7636C19.0633 11.5912 18.8396 11.4592 18.5966 11.3755L15.9368 10.461C15.9117 10.4525 15.8843 10.4514 15.8585 10.4447V7.39641C16.7234 7.14744 17.4704 6.5937 17.9631 5.83634C18.4558 5.07898 18.6614 4.16854 18.5422 3.2713C18.423 2.37406 17.987 1.54991 17.3139 0.949359C16.6408 0.348814 15.7755 0.0119565 14.876 0.000312272C13.9765 -0.011332 13.1028 0.303014 12.4146 0.885937C11.7264 1.46886 11.2695 2.28146 11.1274 3.17531C10.9853 4.06917 11.1675 4.98463 11.6407 5.7545C12.1139 6.52436 12.8465 7.09725 13.7047 7.36853V10.7376L13.5137 10.6751C13.2374 10.5801 12.9349 10.5992 12.6726 10.7283C12.5417 10.7919 12.4247 10.8812 12.3286 10.9909C12.2325 11.1007 12.1591 11.2287 12.1129 11.3673C12.0511 11.5553 12.0401 11.7565 12.0811 11.9502C12.0112 11.9691 11.9433 11.9948 11.8783 12.0268C11.749 12.09 11.6334 12.1784 11.5383 12.2869C11.4432 12.3954 11.3704 12.5218 11.3242 12.6588C11.2759 12.797 11.2554 12.9434 11.2637 13.0896C11.272 13.2359 11.309 13.379 11.3726 13.5108C11.4049 13.5764 11.4435 13.6386 11.4878 13.6966C11.3375 13.8255 11.2238 13.9923 11.1587 14.1799C11.1033 14.3511 11.0893 14.533 11.1177 14.7107C11.1461 14.8884 11.2161 15.0568 11.322 15.2018C11.18 15.3244 11.0726 15.4825 11.0109 15.6602L10.9876 15.7267C10.9421 15.8622 10.9236 16.0054 10.9334 16.1481C10.9431 16.2907 10.9809 16.43 11.0445 16.5579C11.106 16.6835 11.1917 16.7956 11.2965 16.8876C11.4013 16.9797 11.5232 17.05 11.6552 17.0943L13.2921 17.659C13.3469 17.6795 13.4036 17.6945 13.4613 17.7036L16.5715 18.875L16.9704 19.0066C17.2547 19.1008 17.5597 19.1122 17.8501 19.0395C18.1406 18.9667 18.4046 18.8128 18.6118 18.5954L21.2159 19.6909C21.2602 19.7102 21.3079 19.7205 21.3562 19.7211C21.4045 19.7217 21.4525 19.7127 21.4973 19.6945C21.5421 19.6763 21.5829 19.6494 21.6173 19.6152C21.6516 19.581 21.6789 19.5404 21.6976 19.4955C21.7162 19.4507 21.7258 19.4025 21.7258 19.3539C21.7258 19.3053 21.7162 19.2572 21.6976 19.2123C21.679 19.1674 21.6517 19.1267 21.6173 19.0926C21.5829 19.0584 21.5422 19.0315 21.4974 19.0133L18.6377 17.8125C18.5583 17.7792 18.4698 17.7751 18.3877 17.801C18.3056 17.8268 18.2352 17.8809 18.1888 17.9538C18.0866 18.1159 17.9335 18.2389 17.7539 18.3035C17.5743 18.3681 17.3784 18.3705 17.1973 18.3103L14.4946 17.3107L14.4994 17.3033C14.5229 17.2719 14.5445 17.2391 14.564 17.2051C14.5733 17.1899 14.5843 17.1758 14.5925 17.1601C14.62 17.1092 14.6433 17.0559 14.6619 17.001L14.6874 16.9308C14.7138 16.8489 14.7303 16.7642 14.7365 16.6784C14.7384 16.6535 14.7365 16.6289 14.7384 16.604C14.7394 16.5426 14.7352 16.4811 14.7258 16.4204C14.7232 16.4055 14.7258 16.3899 14.7225 16.375C14.8102 16.3492 14.8941 16.3117 14.9719 16.2635C14.9837 16.2564 14.9962 16.2512 15.0088 16.2438L15.0147 16.2397L15.0236 16.2338L15.0265 16.2319C15.0538 16.2145 15.08 16.1954 15.1049 16.1747C15.1152 16.1661 15.1281 16.1602 15.1381 16.1509C15.176 16.1225 15.2102 16.0895 15.2401 16.0527C15.2445 16.0479 15.246 16.0453 15.25 16.0412C15.2704 16.0193 15.287 15.9996 15.2981 15.9854C15.3036 15.9784 15.3217 15.955 15.3269 15.9483C15.3383 15.9312 15.3516 15.9111 15.3638 15.8888L15.4425 15.8059V15.7338C15.4503 15.7148 15.4577 15.6966 15.4643 15.6747C15.4875 15.615 15.5027 15.5525 15.5094 15.4888C15.5204 15.4275 15.526 15.3653 15.526 15.3029C15.5272 15.136 15.4892 14.9712 15.4152 14.8219C15.3845 14.7564 15.3474 14.6941 15.3043 14.636C15.3114 14.6301 15.3176 14.6227 15.3247 14.6163C15.6003 14.5406 15.8533 14.3983 16.0618 14.2017C16.2703 14.0051 16.4279 13.7603 16.5209 13.4885L16.5471 13.4115L16.621 13.4368C16.5122 13.8184 16.5035 14.2218 16.5958 14.6077C16.688 14.9936 16.8781 15.3489 17.1474 15.639C17.1816 15.6728 17.2221 15.6994 17.2666 15.7175C17.3111 15.7355 17.3586 15.7445 17.4066 15.7441C17.4545 15.7436 17.5019 15.7336 17.546 15.7147C17.5901 15.6959 17.6301 15.6684 17.6637 15.634C17.6972 15.5995 17.7237 15.5588 17.7417 15.514C17.7596 15.4693 17.7686 15.4214 17.7681 15.3732C17.7676 15.3249 17.7577 15.2773 17.739 15.2329C17.7202 15.1885 17.6929 15.1482 17.6587 15.1145C17.2571 14.7178 17.1644 14.0468 17.4108 13.3197C17.4263 13.2741 17.4327 13.2258 17.4297 13.1777C17.4266 13.1296 17.4142 13.0826 17.3931 13.0393C17.3719 12.996 17.3425 12.9574 17.3065 12.9256C17.2705 12.8938 17.2286 12.8694 17.1832 12.8539L16.437 12.5978C16.3916 12.5821 16.3437 12.5755 16.2958 12.5785C16.2479 12.5815 16.2011 12.594 16.158 12.6153C16.115 12.6366 16.0765 12.6662 16.0449 12.7025C16.0133 12.7388 15.9891 12.781 15.9737 12.8268L15.8304 13.2498C15.772 13.419 15.6706 13.57 15.5365 13.6877C15.4023 13.8055 15.2399 13.8859 15.0653 13.9212L15.0605 13.923C14.8823 13.9604 14.6975 13.9495 14.5249 13.8914L14.448 13.8647L15.2955 11.3696L15.3003 11.3554C15.3107 11.3256 15.3257 11.2975 15.3446 11.2722C15.3934 11.2054 15.4662 11.1604 15.5474 11.1469C15.5986 11.1397 15.6506 11.1439 15.7 11.1592L18.3598 12.0736C18.5096 12.125 18.6475 12.2062 18.7653 12.3123C18.8832 12.4185 18.9786 12.5474 19.0459 12.6915L19.5261 13.7353L19.5671 13.8617C19.6324 14.0817 19.6224 14.3173 19.5387 14.5308L19.4914 14.6587C19.4583 14.7487 19.4614 14.8481 19.5002 14.9357C19.5389 15.0234 19.6101 15.0923 19.6986 15.1278L21.5 15.849C21.5899 15.8851 21.6904 15.8837 21.7793 15.8451C21.8682 15.8066 21.9383 15.7341 21.9741 15.6436C22.0099 15.5531 22.0085 15.452 21.9703 15.3625C21.932 15.2731 21.8599 15.2025 21.77 15.1665L21.7733 15.1669ZM11.8513 14.4212C11.8671 14.3729 11.8924 14.3282 11.9257 14.2899C11.9589 14.2516 11.9995 14.2204 12.0449 14.1981C12.0883 14.177 12.1354 14.1647 12.1836 14.1621C12.2317 14.1595 12.2799 14.1666 12.3253 14.1829L13.011 14.4174L14.2555 14.8449L14.5455 14.9423C14.5931 14.959 14.6367 14.9852 14.674 15.0192C14.7112 15.0533 14.7413 15.0945 14.7624 15.1405C14.786 15.1892 14.798 15.2428 14.7975 15.297C14.7974 15.3157 14.7957 15.3343 14.7923 15.3527L14.7716 15.4271L14.714 15.5334L14.6678 15.578C14.6586 15.5858 14.6446 15.5955 14.6309 15.6059C14.5775 15.6375 14.5179 15.6572 14.4563 15.6636C14.3946 15.67 14.3324 15.663 14.2736 15.6431C14.2696 15.6431 14.2659 15.6431 14.2618 15.6431L14.0468 15.5687L12.0863 14.894C12.0392 14.878 11.9959 14.8523 11.9591 14.8186C11.9224 14.7849 11.893 14.7438 11.8728 14.6981C11.8507 14.6558 11.8374 14.6095 11.8337 14.5619C11.83 14.5142 11.836 14.4664 11.8513 14.4212ZM11.8103 3.78162C11.8098 3.20472 11.9729 2.63964 12.2803 2.15272C12.5878 1.6658 13.0269 1.27723 13.5461 1.03264C14.0653 0.788045 14.6431 0.697573 15.2117 0.771842C15.7802 0.846111 16.3159 1.08204 16.7558 1.45193C17.1958 1.82182 17.5217 2.31033 17.6955 2.86011C17.8692 3.40989 17.8834 3.99813 17.7365 4.55577C17.5896 5.11341 17.2877 5.61732 16.8662 6.00835C16.4447 6.39937 15.9211 6.66128 15.3568 6.76334C15.0947 6.81211 14.8272 6.82462 14.5618 6.80051C14.472 6.79196 14.3826 6.7797 14.294 6.76334C13.5968 6.64109 12.9651 6.27478 12.5104 5.72915C12.0557 5.18352 11.8073 4.4937 11.8092 3.78162H11.8103ZM14.4332 7.52578C14.4421 7.52578 14.4517 7.52578 14.4606 7.52578C14.5208 7.53209 14.5825 7.53395 14.6453 7.53693C14.6981 7.53953 14.7506 7.54399 14.8041 7.54399C14.8112 7.54399 14.8182 7.54399 14.8256 7.54399C14.8821 7.54399 14.9364 7.53879 14.9933 7.53656C15.0384 7.53433 15.0834 7.53656 15.1285 7.53172V10.5183C15.064 10.5517 15.0032 10.592 14.9471 10.6383C14.9297 10.6525 14.9142 10.6677 14.8976 10.683C14.8478 10.7279 14.8025 10.7777 14.7624 10.8317C14.7524 10.845 14.7413 10.8569 14.7321 10.8711C14.6933 10.9285 14.6604 10.9898 14.6338 11.054L14.4347 10.9856L14.4332 7.52578ZM12.8059 11.6012C12.8216 11.555 12.8462 11.5124 12.8783 11.4759C12.9105 11.4394 12.9495 11.4097 12.9932 11.3885C13.0375 11.3666 13.0856 11.3537 13.1348 11.3506C13.184 11.3475 13.2333 11.3542 13.2799 11.3703L13.974 11.6082L14.3941 11.7532L14.1495 12.4636L13.0335 12.0788C12.9413 12.0457 12.8657 11.9775 12.8229 11.8889C12.78 11.7989 12.7739 11.6956 12.8059 11.6012ZM12.0146 12.9022C12.03 12.8557 12.0543 12.8127 12.0864 12.7757C12.1184 12.7388 12.1574 12.7086 12.2012 12.687C12.2905 12.6433 12.3934 12.6367 12.4875 12.6688L13.9153 13.1606L13.6752 13.8717L13.0446 13.6558L12.2437 13.3807C12.1514 13.3493 12.0752 13.2825 12.0316 13.1948C12.0095 13.1494 11.9966 13.1001 11.9937 13.0497C11.9908 12.9993 11.9979 12.9488 12.0146 12.9011V12.9022ZM11.6991 16.2345C11.6785 16.1939 11.6661 16.1496 11.6627 16.1042C11.6592 16.0588 11.6647 16.0131 11.6788 15.9698L11.7014 15.9051C11.7156 15.8622 11.7381 15.8226 11.7677 15.7886C11.7973 15.7545 11.8333 15.7268 11.8737 15.7069C11.9141 15.687 11.958 15.6754 12.0028 15.6727C12.0477 15.67 12.0927 15.6764 12.1351 15.6914L13.7627 16.2512L13.8215 16.281C13.839 16.2894 13.8556 16.2993 13.8713 16.3107C13.8856 16.3207 13.8992 16.3316 13.912 16.3434C13.9268 16.3597 13.94 16.3774 13.9515 16.3962C13.9633 16.4122 13.9737 16.4293 13.9825 16.4471C13.9877 16.4614 13.9918 16.4761 13.9947 16.491C14.0034 16.5161 14.009 16.5422 14.0114 16.5687C14.0114 16.5773 14.0088 16.5858 14.0084 16.5944C14.0085 16.627 14.0041 16.6596 13.9951 16.691L13.9722 16.7538C13.9446 16.8272 13.894 16.8894 13.8281 16.9312C13.7621 16.9729 13.6845 16.9918 13.6068 16.9851C13.5837 16.9822 13.5609 16.9769 13.5389 16.9694L11.8883 16.3999C11.8473 16.3862 11.8095 16.3644 11.777 16.3358C11.7445 16.3073 11.7181 16.2724 11.6991 16.2334V16.2345ZM10.009 16.517C9.95893 16.3737 9.8756 16.2445 9.76594 16.1401C9.78993 16.106 9.81142 16.0702 9.83022 16.033C9.88984 15.9162 9.92532 15.7884 9.93453 15.6573C9.94374 15.5263 9.92647 15.3947 9.88379 15.2706C9.83032 15.1199 9.74163 14.9844 9.62519 14.8754C9.70516 14.7584 9.75917 14.6253 9.78356 14.4854C9.80795 14.3455 9.80215 14.2019 9.76655 14.0645C9.73095 13.927 9.66639 13.7988 9.57724 13.6887C9.48809 13.5785 9.37643 13.4889 9.24985 13.426C9.20758 13.4066 9.16401 13.3902 9.11945 13.377C9.14717 13.2085 9.13082 13.0357 9.072 12.8755C9.01318 12.7153 8.91393 12.5733 8.784 12.4635C8.65408 12.3537 8.49797 12.2798 8.33105 12.2491C8.16412 12.2184 7.99213 12.232 7.832 12.2885L7.75036 12.3168V9.61607C8.47682 9.37568 9.09377 8.88155 9.48956 8.22312C9.88536 7.56468 10.0339 6.78542 9.90817 6.02636C9.7825 5.2673 9.39095 4.57859 8.80438 4.08484C8.21782 3.5911 7.47499 3.32495 6.71032 3.33455C5.94565 3.34416 5.20966 3.62888 4.63552 4.1372C4.06139 4.64552 3.68704 5.34385 3.58023 6.10583C3.47342 6.86781 3.64119 7.6431 4.05319 8.29139C4.4652 8.93968 5.09421 9.41816 5.8264 9.64023V12.106C5.81717 12.1089 5.80682 12.1089 5.79759 12.1123L3.56664 12.8788C3.35479 12.9517 3.15968 13.0666 2.99289 13.2169C2.82611 13.3672 2.69106 13.5497 2.59579 13.7535L2.18425 14.6457C2.17804 14.6588 2.17273 14.6724 2.16837 14.6862L2.12256 14.8278C2.05005 15.0731 2.03914 15.3327 2.09079 15.5832L0.229998 16.3267C0.185463 16.3445 0.144856 16.371 0.110497 16.4047C0.0761369 16.4383 0.0486971 16.4784 0.0297441 16.5227C0.010791 16.567 0.000695726 16.6147 3.47098e-05 16.6629C-0.000626307 16.7111 0.00815988 16.759 0.0258915 16.8038C0.0436232 16.8486 0.0699532 16.8895 0.103378 16.9241C0.136803 16.9587 0.176668 16.9863 0.220697 17.0053C0.264727 17.0244 0.312058 17.0346 0.359989 17.0352C0.40792 17.0359 0.455512 17.0271 0.500047 17.0092L2.67965 16.1379C2.76829 16.1022 2.83957 16.0331 2.87823 15.9453C2.91689 15.8575 2.91987 15.758 2.88653 15.668L2.84404 15.5535C2.78103 15.3911 2.7731 15.2123 2.82151 15.0449L3.25891 14.0624C3.31237 13.9488 3.3879 13.8472 3.48104 13.7634C3.57418 13.6796 3.68305 13.6155 3.80122 13.5747L6.03069 12.8086C6.06291 12.7984 6.09681 12.7947 6.13044 12.7978C6.15899 12.8044 6.18581 12.8171 6.20913 12.835C6.24862 12.859 6.27884 12.8958 6.29483 12.9394L6.32291 13.0212L6.9923 14.9873L6.98307 14.9903C6.84807 15.0357 6.70352 15.0443 6.56414 15.0152L6.55971 15.0133C6.42295 14.9852 6.29588 14.9215 6.19115 14.8287C6.08642 14.7358 6.00767 14.617 5.96272 14.484L5.84192 14.1286C5.8264 14.083 5.8021 14.0408 5.7704 14.0046C5.73871 13.9684 5.70023 13.9389 5.65717 13.9176C5.61412 13.8964 5.56733 13.8839 5.51948 13.8809C5.47163 13.8779 5.42365 13.8844 5.37829 13.9L4.75027 14.1152C4.70492 14.1308 4.66306 14.1552 4.62709 14.1871C4.59112 14.2189 4.56175 14.2576 4.54064 14.3009C4.51954 14.3442 4.50713 14.3913 4.50412 14.4394C4.5011 14.4875 4.50754 14.5358 4.52307 14.5814C4.62937 14.8163 4.66756 15.0766 4.63325 15.3324C4.59894 15.5881 4.49351 15.829 4.32913 16.0271C4.29402 16.0606 4.26591 16.1009 4.24642 16.1455C4.22693 16.1901 4.21646 16.2382 4.21562 16.2869C4.21478 16.3357 4.22358 16.3841 4.24152 16.4293C4.25945 16.4746 4.28616 16.5158 4.32008 16.5506C4.354 16.5854 4.39447 16.613 4.43911 16.6319C4.48375 16.6508 4.53168 16.6605 4.58011 16.6606C4.62854 16.6607 4.67649 16.651 4.72118 16.6322C4.76587 16.6135 4.8064 16.5859 4.84041 16.5512C5.04787 16.3328 5.20112 16.0681 5.28766 15.7788C5.3742 15.4894 5.39158 15.1836 5.33839 14.8862C5.4287 15.0769 5.55703 15.2469 5.7154 15.3855C5.87378 15.5242 6.05882 15.6285 6.259 15.6921C6.23959 15.7224 6.22207 15.7538 6.20654 15.7862C6.13661 15.9231 6.10037 16.075 6.10088 16.2289C6.1001 16.2731 6.10368 16.3171 6.1116 16.3605C6.11684 16.4253 6.13089 16.4891 6.15334 16.5501C6.15999 16.5706 6.16701 16.5899 6.1744 16.6085L6.17735 16.6828L6.25124 16.7572C6.25863 16.7694 6.26602 16.7806 6.27304 16.7914L6.2771 16.7984C6.28264 16.8062 6.3 16.8286 6.30591 16.8356C6.317 16.8497 6.33362 16.8698 6.35209 16.8891L6.35542 16.8936C6.35874 16.8973 6.36281 16.8999 6.36613 16.9036C6.36945 16.9074 6.37352 16.9118 6.37758 16.9152C6.39438 16.9331 6.41214 16.9501 6.43078 16.9661C6.43632 16.9706 6.44075 16.9769 6.4463 16.981C6.46849 16.9997 6.49208 17.0168 6.51686 17.0319C6.52646 17.0382 6.53828 17.049 6.54604 17.0535L6.55269 17.0575C6.55749 17.0601 6.56045 17.0639 6.56525 17.0665C6.57005 17.0691 6.57818 17.072 6.58409 17.0758C6.61254 17.0932 6.64061 17.1129 6.6698 17.1256C6.69898 17.1382 6.7241 17.1479 6.75181 17.1583C6.75809 17.1605 6.76363 17.165 6.76991 17.1672C6.76991 17.1724 6.76991 17.178 6.76991 17.1832C6.76121 17.2496 6.75936 17.3168 6.76437 17.3836C6.76437 17.3884 6.76437 17.3928 6.76437 17.3977C6.77031 17.4709 6.78482 17.5431 6.80759 17.6129L6.81129 17.6233L6.82532 17.6605C6.84977 17.7305 6.88225 17.7974 6.92211 17.8598C6.92692 17.8668 6.92876 17.8757 6.93357 17.8832L5.0761 18.5891L4.7403 18.7006C4.60063 18.7467 4.44968 18.7447 4.31128 18.6949C4.17287 18.6451 4.05489 18.5503 3.97596 18.4255C3.9296 18.3526 3.8592 18.2985 3.77713 18.2726C3.69505 18.2467 3.60654 18.2507 3.52711 18.2839L1.12585 19.2936C1.08161 19.3122 1.04144 19.3393 1.00763 19.3736C0.973831 19.4078 0.947057 19.4484 0.928842 19.493C0.910626 19.5376 0.901325 19.5854 0.90147 19.6337C0.901616 19.6819 0.911204 19.7297 0.929687 19.7742C0.948171 19.8187 0.975188 19.8592 1.0092 19.8932C1.0432 19.9272 1.08354 19.9541 1.12789 19.9725C1.17225 19.9908 1.21976 20.0001 1.26771 20C1.31566 19.9999 1.36311 19.9902 1.40735 19.9716L3.5574 19.0672C3.73937 19.2474 3.96719 19.3736 4.21582 19.4321C4.46445 19.4905 4.72428 19.4788 4.96675 19.3984L7.92214 18.3014C7.96434 18.2945 8.00587 18.2839 8.04627 18.2698L9.42792 17.7951C9.54644 17.7555 9.65598 17.6927 9.75016 17.6102C9.84433 17.5276 9.92128 17.4271 9.97651 17.3144C10.0337 17.1994 10.0676 17.0741 10.0761 16.9458C10.0846 16.8175 10.0676 16.6888 10.026 16.5672L10.009 16.517ZM9.03337 15.8345L8.79362 15.9174L7.46627 16.3747L7.4031 16.3962L7.20472 16.4628L7.19918 16.465C7.15897 16.4791 7.1162 16.4844 7.0738 16.4803C7.0314 16.4763 6.99037 16.4631 6.95351 16.4416L6.89847 16.3951L6.84047 16.2676C6.83862 16.2512 6.83678 16.2345 6.83567 16.2282C6.83663 16.1757 6.85319 16.1247 6.88321 16.0818C6.91323 16.0388 6.95535 16.0059 7.00413 15.9873L7.2509 15.9048L8.2598 15.5583L8.87267 15.3487C8.9033 15.3376 8.93584 15.3328 8.96833 15.3347C9.00083 15.3365 9.03263 15.345 9.06182 15.3594C9.09243 15.3743 9.11984 15.3951 9.14247 15.4206C9.1651 15.4461 9.18251 15.4758 9.1937 15.5081C9.20486 15.5412 9.20898 15.5763 9.2058 15.611C9.20261 15.6458 9.1922 15.6795 9.17523 15.71C9.16141 15.7395 9.14167 15.7658 9.11726 15.7872C9.09284 15.8086 9.06428 15.8247 9.03337 15.8345ZM9.04593 14.4312C9.03124 14.4618 9.01059 14.489 8.9852 14.5114C8.95982 14.5337 8.93021 14.5507 8.89816 14.5613L8.21066 14.7977L7.75295 14.9542L7.58892 14.4669L8.73118 14.0736C8.79596 14.0512 8.86691 14.0556 8.92846 14.0859C8.95924 14.1013 8.98658 14.1228 9.00882 14.1492C9.03105 14.1756 9.0477 14.2063 9.05775 14.2394C9.07886 14.3019 9.07461 14.3703 9.04593 14.4297V14.4312ZM8.06733 12.9855C8.13177 12.9635 8.20226 12.9679 8.26349 12.9978C8.29297 13.0119 8.31936 13.0318 8.34111 13.0563C8.36287 13.0808 8.37955 13.1095 8.3902 13.1405C8.4129 13.2054 8.40918 13.2766 8.37986 13.3387C8.35066 13.3987 8.2996 13.4452 8.23726 13.4684L7.35323 13.7732L7.31223 13.6546L7.1881 13.2885L7.7511 13.0944L8.06733 12.9855ZM6.94354 12.5948C6.93504 12.5762 6.9199 12.5628 6.90992 12.545C6.88325 12.4975 6.8526 12.4523 6.81831 12.4101C6.79411 12.38 6.76821 12.3513 6.74073 12.3242C6.70453 12.2909 6.66574 12.2606 6.62473 12.2335C6.60108 12.2168 6.58187 12.1941 6.55638 12.1796V9.77405C6.57448 9.77405 6.59333 9.77405 6.61143 9.77405C6.65871 9.77629 6.70526 9.78075 6.75366 9.78075C6.8316 9.78075 6.9066 9.77554 6.98122 9.77034C6.99415 9.77034 7.00745 9.77034 7.02038 9.77034V12.5695L6.94354 12.5948ZM4.27815 6.55851C4.27769 6.08525 4.41136 5.62167 4.66348 5.22215C4.9156 4.82263 5.27571 4.50375 5.70157 4.3029C6.12743 4.10205 6.60138 4.02756 7.06782 4.08818C7.53426 4.1488 7.97385 4.34201 8.33502 4.64514C8.6962 4.94827 8.96398 5.34876 9.10695 5.79963C9.24993 6.25049 9.26217 6.73303 9.14224 7.19065C9.02231 7.64827 8.77518 8.06198 8.42985 8.38326C8.08451 8.70454 7.65529 8.92007 7.19253 9.00455C6.97335 9.04566 6.74956 9.05592 6.52757 9.03504C6.45184 9.02797 6.37721 9.01756 6.30591 9.00344C5.73678 8.89959 5.22198 8.59791 4.85136 8.15105C4.48075 7.70419 4.27787 7.14055 4.27815 6.55851ZM9.32337 16.9869C9.297 17.0397 9.2509 17.0798 9.19518 17.0984L7.79986 17.5783C7.7862 17.5824 7.77216 17.5839 7.76809 17.585C7.71343 17.5912 7.65834 17.5779 7.61244 17.5474C7.56653 17.5169 7.53272 17.4711 7.51689 17.4181L7.50248 17.381C7.49355 17.3534 7.48979 17.3244 7.4914 17.2955C7.4914 17.288 7.49472 17.281 7.49583 17.2735C7.49838 17.2537 7.50347 17.2344 7.51098 17.2159C7.51511 17.2071 7.51993 17.1987 7.52538 17.1906C7.53399 17.1754 7.54428 17.1612 7.55605 17.1482C7.56336 17.1411 7.57114 17.1344 7.57932 17.1282C7.59229 17.1183 7.60629 17.1098 7.62106 17.1029L9.02894 16.6133C9.05747 16.6033 9.0877 16.5992 9.11785 16.6011C9.14799 16.603 9.17746 16.611 9.20451 16.6245C9.23155 16.6381 9.25564 16.6569 9.27536 16.6799C9.29507 16.703 9.31001 16.7297 9.31931 16.7587L9.33593 16.8066C9.34573 16.836 9.34966 16.8671 9.34751 16.898C9.34535 16.929 9.33715 16.9592 9.32337 16.9869Z" fill="white"/>
</svg>
