<svg width="24" height="23" viewBox="0 0 24 23" fill="none" xmlns="http://www.w3.org/2000/svg">
<path d="M11.1048 6.9829C11.1048 8.84551 9.59485 10.3554 7.73224 10.3554C5.86964 10.3554 4.35969 8.84551 4.35969 6.9829C4.35969 5.12029 5.86964 3.61035 7.73224 3.61035C9.59485 3.61035 11.1048 5.12029 11.1048 6.9829Z" fill="#9CA3AF"/>
<path d="M20.0983 6.9829C20.0983 8.84551 18.5883 10.3554 16.7257 10.3554C14.8631 10.3554 13.3532 8.84551 13.3532 6.9829C13.3532 5.12029 14.8631 3.61035 16.7257 3.61035C18.5883 3.61035 20.0983 5.12029 20.0983 6.9829Z" fill="#9CA3AF"/>
<path d="M15.5219 19.3489C15.5744 18.9817 15.6015 18.6064 15.6015 18.2247C15.6015 16.3865 14.9712 14.6955 13.915 13.356C14.7418 12.8776 15.7018 12.6038 16.7257 12.6038C19.8301 12.6038 22.3466 15.1204 22.3466 18.2247V19.3489H15.5219Z" fill="#9CA3AF"/>
<path d="M7.73224 12.6038C10.8366 12.6038 13.3532 15.1204 13.3532 18.2247V19.3489H2.11133V18.2247C2.11133 15.1204 4.6279 12.6038 7.73224 12.6038Z" fill="#9CA3AF"/>
</svg>
