<svg width="24" height="23" viewBox="0 0 24 23" fill="none" xmlns="http://www.w3.org/2000/svg">
<path fill-rule="evenodd" clip-rule="evenodd" d="M7.73208 2.47949C7.11121 2.47949 6.6079 2.98281 6.6079 3.60367V4.72786H5.48372C4.24198 4.72786 3.23535 5.73449 3.23535 6.97622V18.2181C3.23535 19.4598 4.24198 20.4664 5.48372 20.4664H18.9739C20.2156 20.4664 21.2223 19.4598 21.2223 18.2181V6.97622C21.2223 5.73449 20.2156 4.72786 18.9739 4.72786H17.8497V3.60368C17.8497 2.98281 17.3464 2.47949 16.7255 2.47949C16.1047 2.47949 15.6014 2.98281 15.6014 3.60367V4.72786H8.85627V3.60368C8.85627 2.98281 8.35295 2.47949 7.73208 2.47949ZM7.73208 8.10041C7.11121 8.10041 6.6079 8.60372 6.6079 9.22459C6.6079 9.84546 7.11121 10.3488 7.73208 10.3488H16.7255C17.3464 10.3488 17.8497 9.84546 17.8497 9.22459C17.8497 8.60372 17.3464 8.10041 16.7255 8.10041H7.73208Z" fill="#9CA3AF"/>
</svg>
