<svg width="88" height="88" viewBox="0 0 88 88" fill="none" xmlns="http://www.w3.org/2000/svg">
<g opacity="0.9">
<path d="M44.4273 7.9043C37.2524 7.9043 30.2386 10.0319 24.2729 14.0181C18.3072 18.0042 13.6575 23.6699 10.9118 30.2986C8.16611 36.9274 7.44771 44.2214 8.84746 51.2585C10.2472 58.2955 13.7022 64.7594 18.7757 69.8328C23.8491 74.9062 30.313 78.3613 37.35 79.761C44.3871 81.1608 51.6811 80.4424 58.3099 77.6967C64.9386 74.951 70.6043 70.3013 74.5904 64.3356C78.5766 58.3699 80.7042 51.3561 80.7042 44.1812C80.7042 39.4172 79.7659 34.6999 77.9428 30.2986C76.1197 25.8973 73.4476 21.8982 70.0789 18.5296C66.7103 15.1609 62.7112 12.4888 58.3099 10.6657C53.9086 8.84263 49.1913 7.9043 44.4273 7.9043ZM55.3104 47.8089H48.055V55.0643C48.055 56.0264 47.6728 56.9491 46.9925 57.6294C46.3121 58.3098 45.3894 58.692 44.4273 58.692C43.4652 58.692 42.5425 58.3098 41.8621 57.6294C41.1818 56.9491 40.7996 56.0264 40.7996 55.0643V47.8089H33.5442C32.5821 47.8089 31.6594 47.4267 30.9791 46.7464C30.2987 46.066 29.9165 45.1433 29.9165 44.1812C29.9165 43.2191 30.2987 42.2964 30.9791 41.616C31.6594 40.9357 32.5821 40.5535 33.5442 40.5535H40.7996V33.2981C40.7996 32.336 41.1818 31.4133 41.8621 30.733C42.5425 30.0526 43.4652 29.6704 44.4273 29.6704C45.3894 29.6704 46.3121 30.0526 46.9925 30.733C47.6728 31.4133 48.055 32.336 48.055 33.2981V40.5535H55.3104C56.2725 40.5535 57.1952 40.9357 57.8755 41.616C58.5559 42.2964 58.9381 43.2191 58.9381 44.1812C58.9381 45.1433 58.5559 46.066 57.8755 46.7464C57.1952 47.4267 56.2725 47.8089 55.3104 47.8089Z" fill="#D1D5DB"/>
</g>
</svg>
