<svg width="199" height="26" viewBox="0 0 199 26" fill="none" xmlns="http://www.w3.org/2000/svg">
<path d="M26.7082 7.18304L21.1263 23.7991H14.2029L8.62085 7.18304H14.8952L17.5781 18.1739H17.7511L20.4339 7.18304H26.7082ZM35.9061 24.1021C34.1031 24.1021 32.5597 23.745 31.276 23.0311C29.9923 22.3099 29.008 21.3074 28.3228 20.0237C27.6376 18.7328 27.2951 17.2363 27.2951 15.5343C27.2951 13.8323 27.6376 12.3395 28.3228 11.0558C29.008 9.76488 29.9923 8.76241 31.276 8.04845C32.5597 7.32724 34.1031 6.96664 35.9061 6.96664C37.709 6.96664 39.2524 7.32724 40.5361 8.04845C41.8198 8.76241 42.8042 9.76488 43.4894 11.0558C44.1745 12.3395 44.517 13.8323 44.517 15.5343C44.517 17.2363 44.1745 18.7328 43.4894 20.0237C42.8042 21.3074 41.8198 22.3099 40.5361 23.0311C39.2524 23.745 37.709 24.1021 35.9061 24.1021ZM35.9493 19.6884C36.4541 19.6884 36.8905 19.5189 37.2583 19.18C37.6261 18.841 37.911 18.3578 38.1129 17.7304C38.3149 17.1029 38.4158 16.3565 38.4158 15.491C38.4158 14.6185 38.3149 13.872 38.1129 13.2518C37.911 12.6244 37.6261 12.1412 37.2583 11.8022C36.8905 11.4633 36.4541 11.2937 35.9493 11.2937C35.4157 11.2937 34.9577 11.4633 34.5755 11.8022C34.1932 12.1412 33.9011 12.6244 33.6993 13.2518C33.4973 13.872 33.3963 14.6185 33.3963 15.491C33.3963 16.3565 33.4973 17.1029 33.6993 17.7304C33.9011 18.3578 34.1932 18.841 34.5755 19.18C34.9577 19.5189 35.4157 19.6884 35.9493 19.6884ZM46.9402 23.7991V7.18304H52.9116V23.7991H46.9402ZM49.9259 5.4522C49.1182 5.4522 48.4259 5.18537 47.8489 4.65163C47.272 4.11797 46.9835 3.47612 46.9835 2.72608C46.9835 1.97604 47.272 1.33419 47.8489 0.800509C48.4259 0.266836 49.1182 0 49.9259 0C50.7409 0 51.4332 0.266836 52.0029 0.800509C52.5799 1.33419 52.8684 1.97604 52.8684 2.72608C52.8684 3.47612 52.5799 4.11797 52.0029 4.65163C51.4332 5.18537 50.7409 5.4522 49.9259 5.4522ZM65.8632 7.18304V11.5101H54.9156V7.18304H65.8632ZM57.0359 3.20204H63.0074V18.4552C63.0074 18.6859 63.047 18.8806 63.1263 19.0393C63.2057 19.1908 63.3283 19.3062 63.4941 19.3855C63.66 19.4576 63.8728 19.4936 64.1324 19.4936C64.3127 19.4936 64.5218 19.472 64.7598 19.4288C65.0051 19.3855 65.1854 19.3494 65.3007 19.3206L66.1661 23.5179C65.8993 23.5973 65.5171 23.6946 65.0195 23.81C64.5291 23.9254 63.9449 24.001 63.267 24.0371C61.8967 24.1092 60.7464 23.9686 59.8161 23.6153C58.8858 23.2547 58.1862 22.6885 57.7174 21.9168C57.2487 21.1452 57.0215 20.1788 57.0359 19.0177V3.20204ZM79.0745 16.5296V7.18304H85.0459V23.7991H79.3774V20.6404H79.2043C78.8437 21.7005 78.2126 22.5299 77.3112 23.1285C76.4097 23.7198 75.3387 24.0155 74.0983 24.0155C72.9372 24.0155 71.9203 23.7486 71.0477 23.215C70.1822 22.6813 69.5079 21.9457 69.0247 21.0082C68.5487 20.0706 68.3072 18.9961 68.3 17.7845V7.18304H74.2714V16.5296C74.2786 17.3518 74.4877 17.9972 74.8988 18.466C75.3171 18.9347 75.9012 19.1691 76.6513 19.1691C77.1489 19.1691 77.578 19.0646 77.9386 18.8555C78.3064 18.6391 78.5877 18.3361 78.7824 17.9467C78.9844 17.5501 79.0817 17.0777 79.0745 16.5296ZM88.0831 23.7991V7.18304H93.8813V10.3418H94.0546C94.3575 9.17345 94.837 8.31887 95.4932 7.77796C96.1571 7.23713 96.9319 6.96664 97.8193 6.96664C98.0787 6.96664 98.3347 6.98831 98.5873 7.03157C98.8467 7.06758 99.0959 7.12168 99.3331 7.19387V12.289C99.0378 12.1881 98.6735 12.1123 98.2409 12.0619C97.8082 12.0114 97.4371 11.9861 97.1264 11.9861C96.5428 11.9861 96.0163 12.1196 95.547 12.3864C95.0853 12.646 94.7218 13.0138 94.4548 13.4898C94.1877 13.9585 94.0546 14.5103 94.0546 15.1449V23.7991H88.0831ZM108.301 24.1021C106.527 24.1021 104.998 23.7631 103.715 23.0852C102.438 22.4001 101.454 21.4192 100.762 20.1427C100.076 18.859 99.7341 17.3229 99.7341 15.5343C99.7341 13.8179 100.08 12.3179 100.773 11.0342C101.465 9.75045 102.442 8.75158 103.704 8.03762C104.966 7.32366 106.456 6.96664 108.172 6.96664C109.427 6.96664 110.563 7.16136 111.579 7.55081C112.596 7.94026 113.465 8.50642 114.187 9.24922C114.908 9.98486 115.463 10.8791 115.852 11.932C116.242 12.985 116.437 14.1713 116.437 15.491V16.8758H101.594V13.5872H110.941C110.934 13.1112 110.811 12.6929 110.573 12.3323C110.342 11.9645 110.028 11.6796 109.632 11.4777C109.243 11.2686 108.799 11.1639 108.301 11.1639C107.818 11.1639 107.375 11.2686 106.971 11.4777C106.567 11.6796 106.242 11.9608 105.997 12.3215C105.759 12.6821 105.633 13.1039 105.619 13.5872V17.1354C105.619 17.6691 105.73 18.1451 105.954 18.5634C106.177 18.9817 106.498 19.3097 106.916 19.5477C107.335 19.7857 107.84 19.9048 108.431 19.9048C108.842 19.9048 109.218 19.8471 109.557 19.7316C109.902 19.6163 110.198 19.4504 110.443 19.2341C110.689 19.0105 110.869 18.7437 110.984 18.4335H116.437C116.249 19.5874 115.805 20.5899 115.106 21.4409C114.407 22.2846 113.48 22.9409 112.325 23.4097C111.179 23.8713 109.837 24.1021 108.301 24.1021ZM126.879 24.1021C125.076 24.1021 123.532 23.745 122.249 23.0311C120.964 22.3099 119.98 21.3074 119.295 20.0237C118.61 18.7328 118.267 17.2363 118.267 15.5343C118.267 13.8323 118.61 12.3395 119.295 11.0558C119.98 9.76488 120.964 8.76241 122.249 8.04845C123.532 7.32724 125.076 6.96664 126.879 6.96664C128.508 6.96664 129.918 7.26231 131.108 7.85373C132.306 8.4379 133.232 9.26723 133.888 10.3418C134.545 11.4092 134.877 12.6641 134.883 14.1064H129.345C129.265 13.2338 129.013 12.5703 128.588 12.1159C128.17 11.6543 127.629 11.4236 126.965 11.4236C126.446 11.4236 125.991 11.5751 125.602 11.8779C125.212 12.1737 124.909 12.6244 124.693 13.2301C124.477 13.8287 124.369 14.5824 124.369 15.491C124.369 16.3998 124.477 17.157 124.693 17.7628C124.909 18.3614 125.212 18.8121 125.602 19.115C125.991 19.4107 126.446 19.5586 126.965 19.5586C127.405 19.5586 127.794 19.4576 128.133 19.2556C128.473 19.0465 128.746 18.7437 128.955 18.347C129.171 17.9431 129.301 17.4527 129.345 16.8758H134.883C134.862 18.3398 134.527 19.6163 133.877 20.7052C133.228 21.7871 132.309 22.6236 131.119 23.215C129.936 23.8064 128.523 24.1021 126.879 24.1021ZM141.977 24.0588C140.917 24.0588 139.979 23.8857 139.164 23.5395C138.357 23.1861 137.722 22.6525 137.261 21.9385C136.799 21.2245 136.569 20.3158 136.569 19.2124C136.569 18.3037 136.723 17.5284 137.034 16.8865C137.343 16.2375 137.776 15.7074 138.332 15.2963C138.887 14.8853 139.532 14.5715 140.268 14.3552C141.011 14.1388 141.811 13.9982 142.67 13.9333C143.6 13.8612 144.347 13.7746 144.909 13.6737C145.479 13.5655 145.889 13.4177 146.142 13.2301C146.394 13.0354 146.521 12.7794 146.521 12.4621V12.4188C146.521 11.9861 146.355 11.6543 146.023 11.4236C145.691 11.1928 145.266 11.0774 144.747 11.0774C144.177 11.0774 143.712 11.2036 143.351 11.456C142.997 11.7013 142.785 12.0799 142.712 12.592H137.217C137.29 11.5822 137.611 10.6519 138.181 9.80088C138.757 8.94272 139.597 8.2576 140.7 7.74553C141.805 7.2263 143.182 6.96664 144.833 6.96664C146.023 6.96664 147.091 7.10726 148.035 7.38851C148.98 7.66259 149.784 8.04846 150.448 8.54602C151.112 9.03649 151.616 9.61341 151.962 10.2769C152.316 10.9332 152.492 11.6472 152.492 12.4188V23.7991H146.91V21.4625H146.78C146.448 22.0827 146.045 22.584 145.568 22.9662C145.1 23.3484 144.562 23.6261 143.957 23.7991C143.358 23.9722 142.699 24.0588 141.977 24.0588ZM143.924 20.2942C144.379 20.2942 144.804 20.2004 145.201 20.013C145.605 19.8254 145.933 19.555 146.185 19.2016C146.438 18.8482 146.564 18.4191 146.564 17.9143V16.5296C146.406 16.5945 146.236 16.6558 146.056 16.7135C145.882 16.7712 145.695 16.8253 145.493 16.8758C145.298 16.9262 145.089 16.9731 144.865 17.0164C144.649 17.0597 144.422 17.0994 144.184 17.1354C143.723 17.2075 143.344 17.3265 143.049 17.4924C142.759 17.651 142.543 17.8493 142.399 18.0873C142.262 18.3181 142.194 18.5778 142.194 18.8662C142.194 19.3278 142.356 19.6812 142.68 19.9263C143.005 20.1716 143.42 20.2942 143.924 20.2942ZM170.534 12.592H165.038C165.009 12.2529 164.891 11.9608 164.681 11.7157C164.472 11.4705 164.201 11.283 163.87 11.1531C163.545 11.0162 163.185 10.9476 162.788 10.9476C162.276 10.9476 161.836 11.0413 161.468 11.2289C161.1 11.4164 160.92 11.6832 160.927 12.0294C160.92 12.2746 161.024 12.5018 161.241 12.7109C161.465 12.92 161.894 13.0823 162.529 13.1977L165.904 13.8035C167.606 14.1136 168.871 14.6365 169.701 15.3721C170.537 16.1005 170.959 17.0777 170.966 18.3037C170.959 19.4865 170.606 20.5141 169.906 21.3868C169.213 22.2522 168.265 22.9229 167.061 23.3989C165.864 23.8677 164.497 24.1021 162.961 24.1021C160.423 24.1021 158.435 23.5827 157 22.5443C155.573 21.5058 154.776 20.1355 154.61 18.4335H160.538C160.617 18.96 160.877 19.3674 161.317 19.6559C161.764 19.9372 162.326 20.0778 163.004 20.0778C163.553 20.0778 164.003 19.984 164.356 19.7966C164.717 19.6091 164.901 19.3422 164.909 18.9961C164.901 18.6787 164.742 18.4263 164.432 18.2388C164.129 18.0513 163.653 17.8998 163.004 17.7845L160.062 17.2652C158.367 16.9695 157.097 16.407 156.254 15.5777C155.41 14.7482 154.992 13.6809 154.999 12.3756C154.992 11.2216 155.295 10.2444 155.908 9.44395C156.528 8.63621 157.411 8.0232 158.558 7.60491C159.712 7.17937 161.079 6.96664 162.658 6.96664C165.06 6.96664 166.953 7.46428 168.337 8.45949C169.73 9.45478 170.461 10.8322 170.534 12.592ZM179.225 14.4526V23.7991H173.254V1.6443H179.009V10.3418H179.183C179.557 9.28165 180.181 8.45591 181.054 7.86457C181.927 7.26598 182.976 6.96664 184.202 6.96664C185.378 6.96664 186.398 7.23347 187.263 7.76721C188.136 8.30086 188.81 9.03649 189.287 9.97402C189.77 10.9115 190.008 11.9861 190 13.1977V23.7991H184.029V14.4526C184.036 13.6304 183.831 12.985 183.412 12.5162C183.001 12.0474 182.413 11.8131 181.649 11.8131C181.166 11.8131 180.74 11.9212 180.372 12.1376C180.012 12.3467 179.73 12.6496 179.528 13.0463C179.334 13.4357 179.233 13.9045 179.225 14.4526Z" fill="white"/>
<path d="M13.9508 6.5625C12.4686 6.5625 10.8066 6.59527 8.71956 6.80782C6.67592 7.02038 6.40334 7.08037 6.10362 7.17295C5.80388 7.26562 5.06822 7.66334 4.37068 8.91676C3.73308 10.0666 3.32434 11.5272 3.03006 12.252L2.57774 12.241C2.57774 12.241 2.57243 11.1456 2.37625 11.0257C2.25636 10.9495 2.19082 10.8842 1.72761 10.9495C1.2644 11.015 0.474274 11.1131 0.288991 11.3202C0.103707 11.5273 0.00566663 11.8759 0.00566663 12.0448C0.00566663 12.2138 0.0654232 12.2845 0.256157 12.4699C0.446891 12.6606 1.37892 12.7752 1.80944 12.7752C2.23995 12.7752 2.25083 12.579 2.45791 12.6009C2.55055 12.6117 2.70849 12.7041 2.86107 12.7532C2.68123 13.1837 2.7085 13.0857 1.74394 13.7451C0.790267 14.3991 0.365101 14.737 0.305156 14.8677C0.217963 15.0476 0 16.6824 0 18.3554C0 20.0284 0.119996 21.5325 0.119996 22.0666C0.119996 22.29 0.119949 22.6823 0.168995 23.0583C0.201691 23.2817 0.250794 23.4998 0.337987 23.6688C0.485124 23.9686 0.621322 23.9958 1.18263 23.9686C1.30258 23.9632 1.43428 23.9598 1.57078 23.9577C1.10731 24.1296 0.44131 24.2621 0.332656 24.0407C0.250914 23.8718 0.196357 23.6539 0.16366 23.4305C0.16366 23.5613 0.163611 23.7248 0.158161 23.872V23.9319C0.158161 23.9918 0.16366 24.0464 0.16366 24.0899V24.0954C0.169108 24.2371 0.174594 24.357 0.185495 24.4496C0.25634 25.0872 0.332631 25.4631 0.528815 25.5775C0.6923 25.6757 0.866717 25.6755 1.0738 25.6755H3.41704C3.56419 25.6755 3.93484 25.6483 4.00569 24.8254C4.00569 24.8254 4.01652 24.6838 4.01652 24.3841C4.01652 24.2501 4.01427 24.1269 4.00985 24.0119C4.01211 24.012 4.0143 24.012 4.01652 24.0121C4.73587 24.0394 5.4715 24.0666 6.12545 24.0829C7.7603 24.1156 7.28084 23.8433 7.97839 23.8541L11.4769 23.7993H13.9508V12.1157V7.42911V6.5625ZM1.45445 14.8908C2.28354 14.8848 3.16701 15.0039 4.6595 15.4236C6.3652 15.9031 7.31324 16.8242 7.31324 16.8242C7.31324 16.8242 7.09546 16.8296 6.7031 16.9277C6.31073 17.0257 6.07626 17.2384 5.58581 17.233C5.09534 17.233 3.77108 17.0094 3.48771 16.9985C3.20433 16.9876 2.95387 17.1893 2.80674 17.2275C2.65959 17.2656 2.37056 17.1618 1.9346 17.0257C1.49863 16.8895 1.24265 16.9277 1.10096 16.3337C0.953822 15.7451 1.10096 14.9006 1.10096 14.9006C1.21881 14.8951 1.33601 14.8915 1.45445 14.8908Z" fill="white"/>
<path d="M13.9088 6.5625H12.3728C11.8074 6.5625 11.3489 7.02098 11.3489 7.58646V22.7753C11.3489 23.3408 11.8074 23.7993 12.3728 23.7993H13.9088C14.4743 23.7993 14.9327 23.3408 14.9327 22.7753V7.58646C14.9327 7.02098 14.4743 6.5625 13.9088 6.5625Z" fill="white"/>
<path d="M184.982 6.59886C188.509 6.54463 192.938 6.07339 194.562 8.91651C195.2 10.0663 195.609 11.5269 195.903 12.2517L196.355 12.2407C196.355 12.2407 196.36 11.1453 196.557 11.0254C196.676 10.9492 196.742 10.8839 197.205 10.9492C197.668 11.0147 198.459 11.1128 198.644 11.3199C198.829 11.527 198.927 11.8756 198.927 12.0445C198.927 12.2135 198.867 12.2842 198.677 12.4696C198.486 12.6603 197.554 12.7749 197.123 12.7749C196.693 12.7749 196.682 12.5787 196.475 12.6006C196.382 12.6114 196.224 12.7038 196.072 12.7529C196.252 13.1834 196.224 13.0854 197.189 13.7448C198.143 14.3988 198.568 14.7367 198.628 14.8674C198.715 15.0473 198.933 16.6821 198.933 18.3551C198.933 20.0281 198.813 21.5323 198.813 22.0663C198.813 22.2897 198.813 22.682 198.764 23.058C198.731 23.2814 198.682 23.4995 198.595 23.6685C198.448 23.9683 198.312 23.9955 197.75 23.9683C197.63 23.9629 197.499 23.9596 197.362 23.9574C197.826 24.1293 198.492 24.2618 198.6 24.0404C198.682 23.8715 198.737 23.6536 198.769 23.4302C198.769 23.561 198.769 23.7246 198.775 23.8717V23.9317C198.775 23.9916 198.769 24.0461 198.769 24.0896V24.0951C198.764 24.2368 198.758 24.3567 198.747 24.4493C198.677 25.0869 198.6 25.4628 198.404 25.5772C198.241 25.6754 198.066 25.6752 197.859 25.6752H195.516C195.369 25.6752 194.998 25.648 194.927 24.8251C194.927 24.8251 194.916 24.6835 194.916 24.3838C194.916 24.2498 194.919 24.1266 194.923 24.0116C194.921 24.0117 194.919 24.0117 194.916 24.0118C194.197 24.0391 193.461 24.0663 192.807 24.0826C191.173 24.1153 191.652 23.843 190.954 23.8538L187.456 23.799H184.982V12.1154L184.982 7.46547V6.59886ZM197.478 14.8905C196.649 14.8845 195.766 15.0036 194.273 15.4233C192.568 15.9028 191.62 16.8239 191.62 16.8239C191.62 16.8239 191.837 16.8293 192.23 16.9274C192.622 17.0254 192.857 17.2381 193.347 17.2327C193.838 17.2327 195.162 17.0091 195.445 16.9982C195.729 16.9873 195.979 17.189 196.126 17.2272C196.273 17.2653 196.562 17.1615 196.998 17.0254C197.434 16.8892 197.69 16.9274 197.832 16.3334C197.979 15.7448 197.832 14.9003 197.832 14.9003C197.714 14.8948 197.597 14.8913 197.478 14.8905Z" fill="white"/>
<path d="M180.902 7.97158C182.486 6.88797 183.324 6.5625 186.56 6.5625C187.126 6.5625 187.584 7.02098 187.584 7.58646V22.7753C187.584 23.3408 187.126 23.7993 186.56 23.7993H185.024C184.818 23.7993 184.438 22.7753 184.438 22.7753L184.359 13.4987L180.902 7.97158Z" fill="white"/>
</svg>
