<svg width="24" height="24" viewBox="0 0 24 24" fill="none" xmlns="http://www.w3.org/2000/svg">
<path d="M4.94254 9.85534L4.94191 9.85597C2.40515 12.3927 2.40515 16.5174 4.94191 19.0541C7.47867 21.5909 11.6033 21.5909 14.1401 19.0541C16.6768 16.5174 16.6768 12.3927 14.1401 9.85597L14.1394 9.85535C12.8714 8.5918 11.2055 7.95549 9.54099 7.95549C7.87646 7.95549 6.2106 8.5918 4.94254 9.85534ZM9.54099 21.5003C7.73505 21.5003 5.93484 20.8119 4.5616 19.4386C1.81541 16.6924 1.81541 12.2219 4.5616 9.47566C7.30779 6.72947 11.7784 6.72947 14.5246 9.47566C17.2707 12.2218 17.2707 16.6922 14.5247 19.4384C13.1472 20.8119 11.3426 21.5003 9.54099 21.5003Z" fill="#7C7C8D" stroke="#7C7C8D"/>
<path d="M14.3313 10.4388C14.1355 10.4388 13.9397 10.3639 13.7855 10.2139C13.4856 9.91388 13.4856 9.42642 13.7855 9.12644L20.685 2.22694C20.985 1.92696 21.4725 1.92696 21.7725 2.22694C22.0724 2.52692 22.0724 3.01438 21.7725 3.31436L14.8771 10.2139C14.723 10.3639 14.5271 10.4388 14.3313 10.4388Z" fill="#7C7C8D"/>
<path d="M21.0187 9.22983C21.0104 9.22983 20.9979 9.22983 20.9895 9.22983C20.5646 9.21316 20.2354 8.85902 20.2479 8.43405L20.4271 3.5719L15.5649 3.74689C15.1275 3.76772 14.7817 3.43024 14.7692 3.00528C14.7525 2.58031 15.0858 2.222 15.5108 2.2095L21.202 2.00118C21.4145 1.98868 21.6228 2.07618 21.7728 2.22616C21.9228 2.37615 22.0061 2.58447 21.9978 2.79696L21.7895 8.48405C21.7728 8.90485 21.4312 9.22983 21.0187 9.22983Z" fill="#7C7C8D"/>
</svg>
