<svg width="7" height="11" viewBox="0 0 7 11" fill="none" xmlns="http://www.w3.org/2000/svg">
<path d="M6.77199 5.98263C6.76359 5.9895 6.75239 5.99225 6.74399 5.99912L1.34404 10.7989C1.04023 11.067 0.547416 11.067 0.243607 10.7989C0.240807 10.7962 0.239407 10.7934 0.238007 10.7907C0.164443 10.731 0.105029 10.6563 0.0639196 10.5718C0.0228099 10.4872 0.000995451 10.3949 4.47017e-07 10.3012L3.03867e-08 0.70024C0.00156977 0.604838 0.0244513 0.510938 0.0670288 0.425174C0.109606 0.339409 0.170841 0.263872 0.246407 0.203899L0.243607 0.201149C0.396471 0.0713993 0.591774 -2.6056e-08 0.793823 -3.49523e-08C0.995871 -4.38486e-08 1.19117 0.0713993 1.34404 0.201149L6.77199 5.01194C6.84348 5.07183 6.90089 5.14624 6.94025 5.23003C6.97961 5.31382 7 5.40501 7 5.49728C7 5.58956 6.97961 5.68074 6.94025 5.76454C6.90089 5.84833 6.84348 5.92273 6.77199 5.98263Z" fill="#4338CA"/>
</svg>
