<svg width="7" height="11" viewBox="0 0 7 11" fill="none" xmlns="http://www.w3.org/2000/svg">
<path d="M0.228006 5.98263C0.236406 5.9895 0.247606 5.99225 0.256006 5.99912L5.65596 10.7989C5.95977 11.067 6.45258 11.067 6.75639 10.7989C6.75919 10.7962 6.76059 10.7934 6.76199 10.7907C6.83556 10.731 6.89497 10.6563 6.93608 10.5718C6.97719 10.4872 6.999 10.3949 7 10.3012L7 0.70024C6.99843 0.604838 6.97555 0.510938 6.93297 0.425174C6.89039 0.339409 6.82916 0.263872 6.75359 0.203899L6.75639 0.201149C6.60353 0.0713993 6.40823 -2.6056e-08 6.20618 -3.49523e-08C6.00413 -4.38486e-08 5.80883 0.0713993 5.65596 0.201149L0.228006 5.01194C0.156519 5.07183 0.0991132 5.14624 0.059749 5.23003C0.0203849 5.31382 -1.15339e-07 5.405 -1.19344e-07 5.49728C-1.23348e-07 5.58956 0.0203849 5.68074 0.059749 5.76454C0.0991131 5.84833 0.156519 5.92274 0.228006 5.98263V5.98263Z" fill="#4338CA"/>
</svg>
