<svg width="20" height="20" viewBox="0 0 20 20" fill="none" xmlns="http://www.w3.org/2000/svg">
<g clip-path="url(#clip0_4_2186)">
<path fill-rule="evenodd" clip-rule="evenodd" d="M1.66634 13.3333C1.2061 13.3333 0.833008 13.7063 0.833008 14.1666C0.833008 14.6268 1.2061 14.9999 1.66634 14.9999H10.833C11.2932 14.9999 11.6663 14.6268 11.6663 14.1666C11.6663 13.7063 11.2932 13.3333 10.833 13.3333H1.66634ZM15.833 13.3333C15.3728 13.3333 14.9997 13.7063 14.9997 14.1666C14.9997 14.6268 15.3728 14.9999 15.833 14.9999H18.333C18.7932 14.9999 19.1663 14.6268 19.1663 14.1666C19.1663 13.7063 18.7932 13.3333 18.333 13.3333H15.833Z" fill="#374151"/>
<path fill-rule="evenodd" clip-rule="evenodd" d="M13.3333 15.8333C14.2538 15.8333 15 15.0871 15 14.1666C15 13.2461 14.2538 12.4999 13.3333 12.4999C12.4129 12.4999 11.6667 13.2461 11.6667 14.1666C11.6667 15.0871 12.4129 15.8333 13.3333 15.8333ZM13.3333 17.4999C15.1743 17.4999 16.6667 16.0075 16.6667 14.1666C16.6667 12.3256 15.1743 10.8333 13.3333 10.8333C11.4924 10.8333 10 12.3256 10 14.1666C10 16.0075 11.4924 17.4999 13.3333 17.4999Z" fill="#374151"/>
<path fill-rule="evenodd" clip-rule="evenodd" d="M1.66634 5C1.2061 5 0.833008 5.3731 0.833008 5.83333C0.833008 6.29357 1.2061 6.66667 1.66634 6.66667H4.16634C4.62658 6.66667 4.99967 6.29357 4.99967 5.83333C4.99967 5.3731 4.62658 5 4.16634 5H1.66634ZM9.16634 5C8.7061 5 8.33301 5.3731 8.33301 5.83333C8.33301 6.29357 8.7061 6.66667 9.16634 6.66667H18.333C18.7932 6.66667 19.1663 6.29357 19.1663 5.83333C19.1663 5.3731 18.7932 5 18.333 5H9.16634Z" fill="#374151"/>
<path fill-rule="evenodd" clip-rule="evenodd" d="M6.66634 7.5C7.58682 7.5 8.33301 6.75381 8.33301 5.83333C8.33301 4.91286 7.58682 4.16667 6.66634 4.16667C5.74587 4.16667 4.99967 4.91286 4.99967 5.83333C4.99967 6.75381 5.74587 7.5 6.66634 7.5ZM6.66634 9.16667C8.50729 9.16667 9.99967 7.67428 9.99967 5.83333C9.99967 3.99238 8.50729 2.5 6.66634 2.5C4.82539 2.5 3.33301 3.99238 3.33301 5.83333C3.33301 7.67428 4.82539 9.16667 6.66634 9.16667Z" fill="#374151"/>
</g>
<defs>
<clipPath id="clip0_4_2186">
<rect width="20" height="20" fill="white"/>
</clipPath>
</defs>
</svg>
