<svg width="103" height="13" viewBox="0 0 103 13" fill="none" xmlns="http://www.w3.org/2000/svg">
<path fill-rule="evenodd" clip-rule="evenodd" d="M72.2836 12.1071H76.5996V0.866211H72.2836V12.1071ZM50.5592 1.47362L46.153 6.02873C45.9956 6.20137 45.9107 6.33811 45.9107 6.48712C45.9107 6.63523 45.9949 6.77107 46.153 6.94461L50.5588 11.5006C51.0197 11.9706 51.3354 12.1071 52.0145 12.1071H66.5293V8.3064H53.1319L51.2387 6.4869L53.1319 4.66694H66.5299V0.866211H52.0149C51.335 0.866211 51.0203 1.00273 50.5588 1.47271L50.5592 1.47362ZM16.8076 11.5006L21.2135 6.94552C21.3708 6.77175 21.4557 6.63614 21.4557 6.48712C21.4557 6.33811 21.3712 6.20159 21.2135 6.02873L16.8076 1.47362C16.347 1.0025 16.031 0.866211 15.3519 0.866211H0.837137V4.66694H14.2352L16.1281 6.48712L14.235 8.30731H0.836914V12.108H15.3515C16.0314 12.108 16.3463 11.9713 16.8076 11.5006ZM96.4026 12.108H102.013L91.4309 1.12289C91.262 0.951394 91.1296 0.866211 90.9845 0.866211C90.8401 0.866211 90.7068 0.952529 90.5381 1.12289L79.9558 12.1071H85.5188L90.9486 6.41307L96.4026 12.1071V12.108ZM38.8614 12.108H44.4722L33.8901 1.12289C33.7216 0.951394 33.5884 0.866211 33.4433 0.866211C33.2989 0.866211 33.1663 0.952529 32.9971 1.12289L22.4158 12.1069H27.9782L33.4079 6.41285L38.8618 12.1069L38.8614 12.108Z" fill="#9CA3AF"/>
</svg>
