<svg width="48" height="48" viewBox="0 0 48 48" fill="none" xmlns="http://www.w3.org/2000/svg">
<rect width="48" height="48" rx="6" fill="#6366F1"/>
<g clip-path="url(#clip0_58_18992)">
<path fill-rule="evenodd" clip-rule="evenodd" d="M25.5716 35C25.0938 35 22.5056 34.733 22.3616 34.7031C19.3404 34.0737 17 29.3398 17 24C17 18.6645 19.3372 13.9309 22.3551 13.2968C22.5002 13.2665 25.0936 13 25.5713 13C29.1218 13 32 17.9245 32 23.9997C32 30.0749 29.1218 34.9993 25.5713 34.9993L25.5716 35ZM26.6432 30.6001C28.4184 30.6001 29.8575 27.6453 29.8575 24.0002C29.8575 20.3552 28.4184 17.4003 26.6432 17.4003C24.8679 17.4003 23.4288 20.3552 23.4288 24.0002C23.4288 27.6453 24.8679 30.6001 26.6432 30.6001ZM25.7935 18.9574C26.0889 18.6628 26.4118 18.5004 26.7499 18.5004C27.0889 18.5004 27.4127 18.6635 27.7086 18.9598C27.7824 19.0335 27.6765 19.6125 27.3913 20.6967C27.1759 21.4366 26.9621 21.8077 26.7499 21.8097C26.5377 21.8117 26.3251 21.4447 26.1122 20.7087C25.8263 19.6145 25.7201 19.0307 25.7935 18.9575L25.7935 18.9574ZM28.4041 20.2043C28.6089 20.8066 28.7713 21.5145 28.8757 22.3086C28.9804 23.1047 29.0176 23.9149 28.995 24.7016C28.9894 24.8972 28.7336 24.8278 28.2278 24.4932C27.876 24.216 27.6671 23.8287 27.6007 23.3312C27.5345 22.8336 27.6102 22.2211 27.828 21.4937C28.1611 20.4844 28.3532 20.0546 28.4041 20.2043L28.4041 20.2043ZM28.7304 26.7184C28.5616 27.3854 28.3392 27.9852 28.0655 28.4759C27.7912 28.968 27.4904 29.3055 27.1805 29.4954C27.1033 29.5427 27.0511 28.9208 27.0237 27.6299C27.0217 26.7186 27.1064 26.1081 27.2775 25.7987C27.4488 25.4892 27.7082 25.4776 28.0556 25.7641C28.5474 26.2346 28.7724 26.5527 28.7304 26.7184L28.7304 26.7184ZM26.3216 29.4976C26.0123 29.3075 25.7126 28.9703 25.4389 28.4796C25.1646 27.9875 24.9417 27.3859 24.7727 26.7167C24.7307 26.5502 24.954 26.2353 25.443 25.772C25.7935 25.486 26.0548 25.496 26.2268 25.8024C26.399 26.1086 26.4835 26.7139 26.4807 27.6183C26.4514 28.9184 26.3983 29.5449 26.3216 29.4975L26.3216 29.4976ZM24.5065 24.7009C24.4841 23.9162 24.5214 23.1082 24.626 22.3141C24.7307 21.518 24.8936 20.8085 25.0992 20.2051C25.1503 20.055 25.3406 20.4822 25.6703 21.4868C25.8888 22.2213 25.9658 22.838 25.9008 23.3367C25.8361 23.8356 25.6291 24.2212 25.2797 24.4937C24.7697 24.8267 24.5119 24.8957 24.5066 24.7009L24.5065 24.7009Z" fill="white"/>
</g>
<defs>
<clipPath id="clip0_58_18992">
<rect width="24" height="24" fill="white" transform="translate(12 12)"/>
</clipPath>
</defs>
</svg>
