<svg width="48" height="48" viewBox="0 0 48 48" fill="none" xmlns="http://www.w3.org/2000/svg">
<rect width="48" height="48" rx="6" fill="#6366F1"/>
<g clip-path="url(#clip0_58_19007)">
<path d="M24.46 14.5433C24.3823 14.4526 24.269 14.4004 24.1496 14.4004C24.0303 14.4004 23.9169 14.4526 23.8393 14.5433C23.5494 14.8822 16.7998 22.9386 16.7998 26.7931C16.8214 28.7223 17.6072 30.5643 18.9852 31.9146C20.3632 33.2649 22.2205 34.0135 24.1497 33.9961C26.0789 34.0135 27.9363 33.2649 29.3143 31.9146C30.6922 30.5642 31.4781 28.7224 31.4997 26.7931C31.4997 22.9386 24.75 14.8821 24.4602 14.5433H24.46ZM26.7833 31.734C26.727 31.7645 26.6637 31.78 26.5996 31.7788C26.4115 31.7777 26.2484 31.6482 26.2047 31.4652C26.1611 31.2821 26.2484 31.0929 26.4158 31.0072C27.2026 30.6184 27.8657 30.0183 28.3308 29.274C28.7961 28.5297 29.0449 27.6707 29.0496 26.7931C29.0496 26.5677 29.2323 26.3849 29.4579 26.3849C29.6834 26.3849 29.8662 26.5677 29.8662 26.7931C29.8621 27.8218 29.5714 28.8288 29.0269 29.7017C28.4823 30.5743 27.7055 31.278 26.7833 31.7339L26.7833 31.734Z" fill="white"/>
</g>
<defs>
<clipPath id="clip0_58_19007">
<rect width="24" height="24" fill="white" transform="translate(12 12)"/>
</clipPath>
</defs>
</svg>
