<svg width="18" height="14" viewBox="0 0 18 14" fill="none" xmlns="http://www.w3.org/2000/svg">
<path d="M8.99994 3.83783C7.25354 3.83783 5.83777 5.2536 5.83777 7C5.83777 8.74639 7.25354 10.1622 8.99994 10.1622C10.7463 10.1622 12.1621 8.74639 12.1621 7C12.1621 5.2536 10.7463 3.83783 8.99994 3.83783Z" fill="#9CA3AF"/>
<path fill-rule="evenodd" clip-rule="evenodd" d="M5.72475 2.58506C6.01371 2.866 6.0202 3.328 5.73926 3.61695C3.92479 5.4832 3.92479 8.51712 5.73926 10.3834C6.0202 10.6724 6.01371 11.1343 5.72475 11.4152C5.43579 11.6962 4.9738 11.6897 4.69285 11.4007C2.32764 8.9681 2.32764 5.03223 4.69285 2.59957C4.9738 2.31062 5.43579 2.30412 5.72475 2.58506ZM12.2754 2.58506C12.5642 2.30412 13.0263 2.31062 13.3072 2.59957C15.6724 5.03223 15.6724 8.9681 13.3072 11.4007C13.0263 11.6897 12.5642 11.6962 12.2754 11.4152C11.9864 11.1343 11.9799 10.6724 12.2609 10.3834C14.0753 8.51712 14.0753 5.4832 12.2609 3.61695C11.9799 3.328 11.9864 2.866 12.2754 2.58506Z" fill="#9CA3AF"/>
<path fill-rule="evenodd" clip-rule="evenodd" d="M3.66848 0.64667C3.95321 0.931897 3.95282 1.39393 3.66759 1.67866C0.723416 4.61774 0.723416 9.38239 3.66759 12.3215C3.95282 12.6062 3.95321 13.0682 3.66848 13.3535C3.38375 13.6387 2.92172 13.6391 2.63649 13.3544C-0.878829 9.84514 -0.878829 4.15501 2.63649 0.645775C2.92172 0.361044 3.38375 0.361442 3.66848 0.64667ZM14.3315 0.64667C14.6163 0.361442 15.0783 0.361044 15.3636 0.645775C18.8788 4.15501 18.8788 9.84514 15.3636 13.3544C15.0783 13.6391 14.6163 13.6387 14.3315 13.3535C14.0468 13.0682 14.0472 12.6062 14.3324 12.3215C17.2766 9.38239 17.2766 4.61774 14.3324 1.67866C14.0472 1.39393 14.0468 0.931897 14.3315 0.64667Z" fill="#9CA3AF"/>
</svg>
