<svg width="18" height="20" viewBox="0 0 18 20" fill="none" xmlns="http://www.w3.org/2000/svg">
<path d="M17.4892 19.0018H0.510816C0.228617 19.0018 0 18.7732 0 18.491V1.50903C0 1.22683 0.228617 0.998215 0.510816 0.998215H17.4892C17.7714 0.998215 18 1.22683 18 1.50903V18.4874C18 18.7732 17.7714 19.0018 17.4892 19.0018ZM2.12375 17.2949H16.0948V3.12553H2.12375L2.12375 17.2949Z" fill="#9CA3AF"/>
<path d="M4.9207 9.0636C4.79709 9.0636 4.67674 9.0122 4.58891 8.91624L2.89096 7.08625C2.71206 6.89091 2.71531 6.58248 2.89746 6.39057C3.08287 6.20209 3.37562 6.20552 3.55778 6.39743L4.89793 7.84018L7.84495 4.13563C8.01084 3.92659 8.30359 3.89917 8.50201 4.07395C8.70043 4.24872 8.72646 4.55715 8.56056 4.76619L5.2785 8.88883C5.19393 8.99506 5.07032 9.06017 4.94021 9.0636C4.93045 9.0636 4.9272 9.0636 4.9207 9.0636ZM14.9946 7.79905H9.14606C8.88909 7.79905 8.68092 7.57973 8.68092 7.309C8.68092 7.03827 8.88909 6.81894 9.14606 6.81894H14.9946C15.2515 6.81894 15.4597 7.03827 15.4597 7.309C15.4597 7.57973 15.2515 7.79905 14.9946 7.79905ZM4.9207 15.3898C4.79709 15.3898 4.67674 15.3384 4.58891 15.2424L2.89096 13.4124C2.71206 13.2171 2.71531 12.9086 2.89746 12.7167C3.08287 12.5283 3.37562 12.5317 3.55778 12.7236L4.89793 14.1663L7.84495 10.4618C8.01084 10.2562 8.30359 10.2253 8.50201 10.4001C8.70043 10.5749 8.72646 10.8833 8.56056 11.0924L5.2785 15.215C5.19393 15.3212 5.07032 15.3863 4.94021 15.3898C4.93045 15.3898 4.9272 15.3898 4.9207 15.3898ZM14.9946 14.1252H9.14606C8.88909 14.1252 8.68092 13.9059 8.68092 13.6352C8.68092 13.3644 8.88909 13.1451 9.14606 13.1451H14.9946C15.2515 13.1451 15.4597 13.3644 15.4597 13.6352C15.4597 13.9059 15.2515 14.1252 14.9946 14.1252Z" fill="#9CA3AF"/>
</svg>
