<svg width="18" height="16" viewBox="0 0 18 16" fill="none" xmlns="http://www.w3.org/2000/svg">
<path d="M16.6133 12.6294C16.4292 12.6294 16.28 12.7786 16.28 12.9627V14.1827C16.28 14.735 15.8323 15.1827 15.28 15.1827H1.66667C1.11438 15.1827 0.666667 14.735 0.666667 14.1827V3.51604C0.666667 2.96376 1.11438 2.51604 1.66667 2.51604H4.94C5.1241 2.51604 5.27333 2.3668 5.27333 2.18271C5.27333 1.99861 5.1241 1.84937 4.94 1.84937H1.66667C0.746192 1.84937 0 2.59557 0 3.51604V14.1827C0 15.1032 0.746192 15.8494 1.66667 15.8494H15.28C16.199 15.8457 16.943 15.1017 16.9467 14.1827V12.9627C16.9467 12.7786 16.7974 12.6294 16.6133 12.6294Z" fill="#9CA3AF"/>
<path d="M17 7.05603H16.9467V3.51602C16.943 2.59707 16.199 1.85301 15.28 1.84936C15.0959 1.84936 14.9467 1.9986 14.9467 2.18269C14.9467 2.36679 15.0959 2.51602 15.28 2.51602C15.8323 2.51602 16.28 2.96374 16.28 3.51602V3.70269H15.9067L13.9067 1.70269L12.4533 0.249356C12.3907 0.186252 12.3055 0.150757 12.2167 0.150757C12.1278 0.150757 12.0426 0.186252 11.98 0.249356L10.22 2.00936L8.45333 0.249356C8.32146 0.121501 8.11188 0.121501 7.98 0.249356L4.52667 3.70269H3.33333C3.14924 3.70269 3 3.85193 3 4.03602C3 4.22012 3.14924 4.36936 3.33333 4.36936H16.28V7.03603H14.3333C13.0447 7.03603 12 8.08069 12 9.36936V9.62269C12 10.9114 13.0447 11.956 14.3333 11.956H17C17.5523 11.956 18 11.5083 18 10.956V8.05603C18 7.50374 17.5523 7.05603 17 7.05603ZM12.22 0.956023L13.1867 1.92269C12.6021 2.31547 11.8379 2.31547 11.2533 1.92269L12.22 0.956023ZM10.78 2.39602C11.6303 3.04505 12.8097 3.04505 13.66 2.39602L14.9933 3.72936H11.9067L10.6867 2.48269L10.78 2.39602ZM6.91333 3.72936L8.91333 1.72936L9.38 2.19602L7.84667 3.70269L6.91333 3.72936ZM9.88 2.64269L11 3.70269H8.78667L9.88 2.64269ZM8.22 0.956023L8.46667 1.20269L5.96667 3.70269H5.47333L8.22 0.956023ZM17.3333 10.956C17.3333 11.1401 17.1841 11.2894 17 11.2894H14.3333C13.8913 11.2894 13.4674 11.1138 13.1548 10.8012C12.8423 10.4886 12.6667 10.0647 12.6667 9.62269V9.36936C12.6667 8.44888 13.4129 7.70269 14.3333 7.70269H17C17.1841 7.70269 17.3333 7.85193 17.3333 8.03603V10.956Z" fill="#9CA3AF"/>
<path d="M14.3866 10.1827C14.7548 10.1827 15.0533 9.88422 15.0533 9.51603C15.0533 9.14784 14.7548 8.84937 14.3866 8.84937C14.0184 8.84937 13.72 9.14784 13.72 9.51603C13.72 9.88422 14.0184 10.1827 14.3866 10.1827Z" fill="#9CA3AF"/>
</svg>
