<svg width="325" height="24" viewBox="0 0 325 24" fill="none" xmlns="http://www.w3.org/2000/svg">
<path d="M324.42 1.18164C324.246 1.01099 324.07 0.75387 323.898 0.756176C323.295 0.764248 322.774 0.42525 322.174 0.606276C321.569 0.441393 320.968 0.622425 320.278 0.545173C319.675 0.466768 319.073 0.561317 318.471 0.569388C317.868 0.57746 317.178 0.500204 316.489 0.509428C315.887 0.5175 315.284 0.525574 314.679 0.360692C314.42 0.277674 314.075 0.282286 313.732 0.373376C313.218 0.553248 312.787 0.559013 312.268 0.392978C311.923 0.311113 311.579 0.315726 311.321 0.405662C310.893 0.584382 310.549 0.588994 310.202 0.420653C309.344 0.605137 308.479 0.357234 307.618 0.368765L304.95 0.404511C304.519 0.410276 304.005 0.590153 303.573 0.509442C302.106 0.269613 300.645 0.462166 299.095 0.482922C298.579 0.48984 298.062 0.496765 297.545 0.417206C297.113 0.336495 296.68 0.169298 296.165 0.262694C295.737 0.441413 295.128 0.0171083 294.704 0.455259C294.619 0.542889 294.446 0.545196 294.273 0.461024C293.926 0.292683 293.582 0.297291 293.153 0.389533C292.81 0.480623 292.377 0.31343 291.946 0.319196L284.284 0.421822C282.735 0.442578 281.186 0.549813 279.633 0.311137C279.546 0.225814 279.374 0.22812 279.203 0.316903C278.347 0.76082 277.395 0.341118 276.448 0.353802C276.103 0.358415 275.844 0.275397 275.501 0.366486C274.986 0.54636 274.383 0.467954 273.865 0.388395C273.347 0.308837 272.743 0.230429 272.232 0.583256C271.976 0.759669 271.8 0.502551 271.628 0.504857C270.939 0.514082 270.25 0.523308 269.645 0.358426C269.215 0.364192 268.96 0.627074 268.702 0.630533C268.444 0.633992 268.275 0.895729 268.013 0.639758C267.839 0.46911 267.751 0.383794 267.407 0.388407C266.977 0.394172 266.465 0.746994 265.945 0.49448C265.425 0.241968 264.913 0.594798 264.482 0.600564C264.31 0.60287 264.223 0.517542 264.051 0.519848C263.791 0.436831 263.619 0.439143 263.361 0.442603L257.765 0.517554C257.593 0.51986 257.42 0.522158 257.252 0.783895C257.168 0.958002 257.167 0.871532 256.992 0.700884C256.905 0.61556 256.818 0.530238 256.646 0.532544C255.526 0.547535 254.322 0.650147 253.2 0.405706C253.112 0.320382 253.027 0.408012 252.941 0.409165C252.339 0.417237 251.823 0.510633 251.306 0.431074C250.788 0.351516 250.189 0.619019 249.67 0.452983C248.892 0.20393 248.206 0.472592 247.43 0.396493C246.827 0.318088 246.14 0.500261 245.538 0.508332C244.849 0.517557 244.245 0.439158 243.556 0.448383C241.146 0.480669 238.734 0.426475 236.324 0.458762C235.463 0.470293 234.602 0.481822 233.829 0.665154C233.486 0.756243 233.056 0.762009 232.71 0.680144C232.105 0.515262 231.502 0.523335 230.9 0.531407L229.092 0.555622L227.284 0.579837L225.562 0.602899C224.958 0.524494 224.357 0.619049 223.839 0.53949C223.149 0.462239 222.635 0.642105 222.032 0.650177C221.86 0.652483 221.687 0.568318 221.429 0.571778C221.255 0.487607 221.082 0.403431 220.911 0.492215C220.138 0.675546 219.361 0.512967 218.585 0.436867C217.465 0.365381 216.263 0.640959 215.143 0.569473C214.969 0.485302 214.712 0.575243 214.541 0.664025C214.284 0.753962 214.025 0.670944 213.766 0.674403C212.992 0.684781 212.302 0.607525 211.527 0.617903C210.924 0.625974 210.234 0.548718 209.632 0.55679L208.685 0.569474L208.689 0.915388L208.693 1.17482C208.608 1.26245 208.523 1.35008 208.436 1.26475C207.738 0.58216 206.966 0.851971 206.189 0.689395C205.589 0.870421 205.07 0.704385 204.468 0.712457C203.607 0.723988 202.829 0.56141 201.973 0.918849C201.801 0.921155 201.543 0.924621 201.283 0.841603C200.678 0.676721 199.99 0.685946 199.389 0.866971C199.046 0.958061 198.788 0.96152 198.442 0.879655C197.665 0.717079 196.979 0.89925 196.202 0.736674C195.857 0.741286 195.431 1.09296 195.084 0.838145C194.569 1.01802 194.134 0.677874 193.706 0.856595C193.192 1.03647 192.672 0.783951 192.155 0.790869C191.897 0.794329 191.64 0.884274 191.383 0.97421C191.038 0.978822 190.781 1.06876 190.522 0.98574C190.261 0.816246 190.004 0.906178 189.746 0.909637C189.057 0.918862 188.457 1.09989 187.766 0.936159C187.419 0.767817 187.077 0.945388 186.734 1.03648C186.303 1.04224 185.871 0.875045 185.44 0.880811L185.354 0.881964C184.841 1.14831 184.409 1.06761 183.892 0.988048C183.459 0.820859 183.032 1.08606 182.6 1.00534C181.997 0.926939 181.308 0.936164 180.706 1.03071C180.019 1.12641 179.329 1.04916 178.639 0.971906L178.038 1.06646C177.522 1.15985 177.004 1.0803 176.402 1.08837C175.885 1.09529 175.285 1.27631 174.768 1.28323L166.332 1.39623C165.988 1.48732 165.644 1.49194 165.213 1.4977C164.869 1.50232 164.438 1.42161 164.098 1.77213C164.013 1.85976 163.926 1.77443 163.84 1.77559L162.286 1.53691C161.856 1.54267 161.338 1.46312 160.909 1.55536C160.48 1.6476 160.135 1.65221 159.705 1.65797C159.274 1.66374 158.759 1.75714 158.329 1.7629C157.209 1.77789 156.179 1.96469 155.057 1.80672C154.453 1.72832 153.854 1.99582 153.164 1.91857C152.474 1.84132 151.789 2.10997 151.1 2.1192L149.12 2.14572C149.034 2.14687 148.861 2.0627 148.689 2.065C147.139 2.08576 145.594 2.45243 144.044 2.47318C143.614 2.47895 143.273 2.74299 142.928 2.66113C142.582 2.57926 142.153 2.6715 141.807 2.58964C140.425 2.26218 139.056 2.88596 137.677 2.81794C136.557 2.74645 135.439 2.84792 134.323 3.12234C133.464 3.30683 132.517 3.31952 131.57 3.3322C130.882 3.34143 130.105 3.17885 129.334 3.53514C129.249 3.62276 129.076 3.53859 128.991 3.62622C128.475 3.63314 128.042 3.46595 127.613 3.5582C127.097 3.65159 126.581 3.65851 126.064 3.66542C125.806 3.66888 125.461 3.6735 125.204 3.76344C124.776 3.94216 124.345 3.86144 123.829 3.95484C123.4 4.04708 122.882 3.96753 122.453 4.05977C121.337 4.33419 120.132 4.35033 119.012 4.27884C118.236 4.20274 117.553 4.64435 116.776 4.48178C116.603 4.48408 116.432 4.57286 116.261 4.66165C115.662 4.92915 115.056 4.67779 114.543 4.94414C113.852 4.78041 113.253 5.04792 112.564 5.05714C111.961 5.06522 111.274 5.16092 110.672 5.25546C109.469 5.44456 108.176 5.28891 106.974 5.56448C106.284 5.48723 105.687 5.92769 104.997 5.85044C103.445 5.69824 101.988 6.15022 100.44 6.34394C98.7207 6.53995 97.0036 6.90891 95.1957 6.93313L94.7652 6.9389C93.9938 7.2087 93.1329 7.22024 92.3593 7.3171C91.4995 7.4151 90.5548 7.60074 89.6939 7.61228C89.6078 7.61343 89.4357 7.61573 89.2646 7.70451C88.4049 7.80252 87.5474 8.07348 86.6877 8.17149L85.4847 8.3606C84.9694 8.45399 84.5412 8.63271 84.1096 8.552C83.5919 8.47244 83.2499 8.65 82.9067 8.74109C82.3924 8.92097 81.9596 8.75378 81.5303 8.84602C80.3286 9.1216 79.0395 9.31185 77.8342 9.32799C77.662 9.3303 77.4899 9.3326 77.4049 9.42023C76.8069 9.77421 76.2008 9.52285 75.6017 9.79036C75.0025 10.0579 74.3987 9.97945 73.7961 9.98752C73.1073 9.99675 72.5977 10.5225 71.9078 10.4453C71.7345 10.3611 71.3936 10.6251 71.311 10.8857C71.2272 11.0598 71.14 10.9745 71.1388 10.888C70.8748 10.4591 70.4455 10.5514 70.1023 10.6424C69.673 10.7347 69.3298 10.8258 68.9016 11.0045C68.4735 11.1832 68.0395 10.9296 67.5242 11.023C66.7517 11.2063 65.8942 11.4772 65.1194 11.4876C64.775 11.4922 64.3446 11.498 64.0014 11.5891C62.6286 11.9534 61.1662 12.0595 59.7933 12.4239C58.6776 12.6983 57.5596 12.7998 56.4439 13.0742C56.1007 13.1653 55.7586 13.3429 55.4143 13.3475C54.7256 13.3567 54.1252 13.5377 53.4388 13.7199C52.8385 13.9009 52.0614 13.7383 51.4657 14.2653C51.4668 14.3518 51.2947 14.3541 51.2086 14.3552C50.3477 14.3667 49.6624 14.6354 48.8027 14.7334C48.1151 14.8291 47.6032 15.1819 46.9168 15.3641C45.801 15.6385 44.6004 16.0006 43.3986 16.2762C43.0554 16.3672 42.625 16.373 42.1968 16.5517C41.6826 16.7316 41.2579 17.1698 40.6518 16.9184L40.5657 16.9195C39.9689 17.36 39.1929 17.2839 38.6833 17.8097C38.5134 17.985 38.3424 18.0737 38.1702 18.076C37.7398 18.0818 37.3966 18.1729 37.0534 18.264C36.3669 18.4462 35.6805 18.6284 34.993 18.7241C34.4776 18.8174 33.9587 18.6514 33.3572 18.746L31.725 19.0273C30.7803 19.2129 29.8321 19.1391 28.9735 19.3236C28.4582 19.417 27.9416 19.4239 27.4262 19.5173C26.3094 19.7053 25.1041 19.7214 23.9872 19.9094C23.3857 20.0039 22.6959 19.9267 22.1828 20.193C22.0118 20.2818 21.7535 20.2853 21.5801 20.2011C21.2335 20.0327 20.8914 20.2103 20.5471 20.2149C19.8583 20.2242 19.1719 20.4063 18.4855 20.5885C17.8852 20.7695 17.2802 20.6047 16.6776 20.6127C16.075 20.6208 15.477 20.9748 14.8732 20.8964C14.0111 20.8214 13.2421 21.2642 12.3788 21.1028C11.782 21.5432 11.0037 21.2942 10.315 21.3034C9.9706 21.308 9.62508 21.2261 9.19578 21.3184C8.76649 21.4106 8.33835 21.5893 7.90905 21.6816L7.57974 22.8104C7.49481 22.898 7.5809 22.8969 7.49597 22.9845C7.40872 22.8992 7.32147 22.8139 7.32031 22.7274C7.31684 22.468 7.22727 22.2097 7.13886 22.0379C6.96205 21.6943 6.62 21.8718 6.36173 21.8753L4.55382 21.8995C4.20945 21.9041 3.86509 21.9087 3.69754 22.257C3.52768 22.4322 3.18331 22.4368 3.0146 22.6986C2.93199 22.9592 2.84474 22.8738 2.75633 22.702C2.75286 22.4426 2.75054 22.2696 2.40733 22.3607C2.15022 22.4507 1.89079 22.3676 1.71629 22.197C1.28004 21.7704 0.850747 21.8626 0.251585 22.1301C0.686673 22.4703 1.03567 22.8116 1.38467 23.1529C1.38467 23.1529 1.47192 23.2382 1.47076 23.1517C1.98499 22.9718 2.42008 23.312 2.85053 23.3062C3.10765 23.2163 3.45317 23.2981 3.62419 23.2094C4.05117 22.9442 4.48626 23.2843 4.82831 23.1067C5.34138 22.8404 5.77531 23.094 6.20692 23.1748L7.3261 23.1598C7.41219 23.1586 7.41104 23.0721 7.49713 23.071C7.7554 23.0675 8.44529 23.1448 8.70124 22.9684C8.87227 22.8796 9.1317 22.9626 9.30388 22.9603C9.90652 22.9522 10.5952 22.943 11.1956 22.762C11.882 22.5798 12.5742 22.83 13.2629 22.8208L13.9516 22.8115C14.8091 22.5406 15.7561 22.5279 16.617 22.5164C16.9613 22.5118 17.3918 22.506 17.735 22.4149C18.3353 22.2339 18.9368 22.1393 19.5394 22.1313C19.7977 22.1278 19.9711 22.212 20.2282 22.122C21.0856 21.8511 21.8604 21.8407 22.7213 21.8292C23.4101 21.8199 24.0976 21.7242 24.7852 21.6285L26.6757 21.3437C27.1923 21.3368 27.71 21.4164 28.2254 21.323C28.3964 21.2342 28.4848 21.406 28.5732 21.5778C28.7489 21.8349 28.7454 21.5755 28.8303 21.4879C28.9967 21.0532 28.9967 21.0532 29.2573 21.2227C29.6912 21.4763 30.1205 21.3841 30.7232 21.376C30.8093 21.3749 30.9011 21.8061 31.1559 21.5432C31.4107 21.2803 31.8412 21.2746 32.2705 21.1823L34.7613 20.7165C35.1057 20.7119 35.4489 20.6208 35.8805 20.7015C36.6553 20.6911 37.5174 20.7661 38.2876 20.4098C38.7157 20.2311 39.1462 20.2253 39.5778 20.306C40.0955 20.3856 40.5236 20.2068 41.0402 20.1999C41.2985 20.1965 41.5556 20.1065 41.7278 20.1042C42.3327 20.2691 42.9319 20.0016 43.5345 19.9935C44.051 19.9866 44.5618 19.5473 45.1691 19.8851C45.3413 19.8828 45.5123 19.794 45.6845 19.7917C45.9416 19.7018 46.1999 19.6983 46.3709 19.6096L48.5232 19.5807C49.213 19.658 49.8983 19.3893 50.587 19.3801C51.7923 19.364 52.9976 19.3478 54.2005 19.1587L56.005 18.8751C56.6064 18.7805 57.1241 18.8601 57.7268 18.852C57.899 18.8497 58.0711 18.8474 58.1561 18.7598C58.7552 18.4923 59.359 18.5707 59.9617 18.5626C60.3921 18.5568 60.9098 18.6364 61.338 18.4577C61.8499 18.1048 62.2873 18.6179 62.8027 18.5246C62.8876 18.4369 63.0609 18.5211 63.1459 18.4335C63.8311 18.1648 64.6932 18.2398 65.468 18.2294C66.3289 18.2178 67.2771 18.2916 68.0461 17.8489C68.2171 17.7601 68.3032 17.7589 68.4766 17.8431C68.6499 17.9273 68.907 17.8373 69.1665 17.9204C69.7714 18.0852 70.3659 17.4718 71.0581 17.722C71.8295 17.4522 72.6927 17.6137 73.5525 17.5156C74.1539 17.4211 74.6659 17.0683 75.2697 17.1467C75.8734 17.2251 76.4784 17.39 77.0776 17.1225C77.2486 17.0337 77.4208 17.0314 77.5069 17.0302C77.9419 17.3704 78.4539 17.0175 78.9716 17.0971C79.4893 17.1766 80.0035 16.9968 80.5189 16.9034C80.8621 16.8123 81.2041 16.6347 81.552 16.8895C82.3245 16.7062 83.0167 16.9564 83.7892 16.7731C84.5617 16.5898 85.3365 16.5794 86.1113 16.569C87.8331 16.5459 89.5503 16.177 91.2721 16.1539L91.7026 16.1481C92.0447 15.9706 92.4728 15.7919 92.9021 15.6996C93.3314 15.6074 93.6804 15.9487 94.1097 15.8564C94.539 15.7642 95.0544 15.6708 95.4871 15.838C95.6593 15.8357 96.0037 15.831 96.1747 15.7423C96.7739 15.4748 97.3777 15.5532 97.9803 15.5451C98.669 15.5359 99.2705 15.4413 99.9604 15.5186C100.564 15.597 101.163 15.3295 101.766 15.3214C102.369 15.3133 103.057 15.3041 103.658 15.1231C104.429 14.8533 105.119 14.9305 105.894 14.9202C106.841 14.9075 107.788 14.8948 108.73 14.5362L109.419 14.527C110.882 14.5074 112.259 14.4024 113.636 14.384C113.98 14.3794 114.061 13.9458 114.321 14.1153C114.581 14.1983 114.839 14.1949 115.183 14.1903L118.111 14.1511C118.54 14.0588 118.97 14.0531 119.313 13.962C119.743 13.8697 120.087 13.8651 120.432 13.8605C122.928 13.8271 125.505 13.3601 128.002 13.3266C128.518 13.3197 128.948 13.2275 129.464 13.2206C130.151 13.0384 130.752 12.9438 131.443 13.1076C131.789 13.1894 132.304 13.096 132.647 13.005C133.677 12.7317 134.797 12.8032 135.83 12.7893C136.433 12.7813 137.123 12.8585 137.633 12.4192C137.632 12.3327 137.805 12.3304 137.891 12.3293C138.755 12.5772 139.7 12.3915 140.647 12.3788C141.163 12.3719 141.681 12.4515 142.195 12.2716C142.709 12.0917 143.312 12.0837 143.829 12.0767C144.259 12.071 144.777 12.1505 145.205 11.9718C145.462 11.8819 145.719 11.792 145.892 11.8761C146.668 11.9522 147.441 11.7689 148.216 11.7585C149.335 11.7435 150.368 11.7297 151.486 11.6282C153.121 11.5198 154.927 11.4091 156.56 11.1278C157.075 11.0344 157.679 11.1128 158.108 11.0206C158.623 10.9272 159.144 11.1797 159.657 10.9133C160.17 10.647 160.69 10.8995 161.119 10.8073C162.15 10.6205 163.098 10.6943 164.045 10.6816C164.82 10.6712 165.595 10.6608 166.282 10.5651C167.056 10.4683 167.743 10.3726 168.518 10.3622C169.121 10.3541 169.722 10.2596 170.325 10.2515C171.186 10.24 172.044 10.0555 172.991 10.0428C173.852 10.0313 174.795 9.67266 175.745 9.91941C175.917 9.9171 176.09 9.91479 176.261 9.82601C176.519 9.82255 176.689 9.64729 176.947 9.64383L178.755 9.61962C179.445 9.69687 180.043 9.34289 180.649 9.59425C181.594 9.40861 182.543 9.56888 183.486 9.29676C184.087 9.11574 184.777 9.19299 185.467 9.27024C185.984 9.3498 186.501 9.34289 187.015 9.16301C187.1 9.07538 187.271 8.9866 187.444 9.07077C187.877 9.23796 188.22 9.14687 188.65 9.05462C189.079 8.96238 189.595 8.95547 190.026 8.9497C190.542 8.94279 191.055 8.67643 191.572 8.66952L191.658 8.66836C192.091 8.83555 192.52 8.74331 192.863 8.65222C193.12 8.56228 193.466 8.64414 193.725 8.72716C193.985 8.81018 194.243 8.80672 194.5 8.71678C194.757 8.62684 195.102 8.62224 195.36 8.61878C196.393 8.60494 197.512 8.58995 198.544 8.48963C199.404 8.39163 200.264 8.29362 201.039 8.28324C202.502 8.26364 203.963 8.07108 205.341 8.05263C206.029 8.04341 206.717 7.9477 207.405 7.852C208.092 7.7563 208.782 7.83355 209.471 7.82432C209.815 7.81971 210.158 7.72863 210.503 7.72402C210.674 7.63523 210.931 7.54529 211.104 7.62946C211.971 8.05032 212.996 7.43114 213.859 7.59256C214.205 7.67443 214.634 7.58219 214.977 7.4911L216.269 7.47381L217.388 7.45882C217.818 7.45305 218.249 7.44728 218.59 7.18324C218.93 6.9192 219.281 7.34696 219.538 7.25703C220.052 7.07715 220.57 7.15672 221.086 7.1498C221.603 7.14288 222.117 6.963 222.721 7.04141C223.152 7.12212 223.667 6.94225 224.098 7.02296L225.906 6.99874C226.594 6.90304 227.366 6.71971 228.056 6.79697C229.522 6.95032 230.981 6.58481 232.358 6.56636C233.047 6.55713 233.651 6.63554 234.338 6.53984C234.94 6.44529 235.627 6.34959 236.23 6.34152C236.919 6.33229 237.604 6.06364 238.296 6.31384C238.468 6.31154 238.639 6.22275 238.812 6.22044C238.983 6.13166 239.24 6.04172 239.413 6.12589C240.449 6.28501 241.561 5.75116 242.686 6.16855C242.772 6.1674 242.944 6.16509 243.029 6.07746C243.458 5.98522 243.889 5.97946 244.319 5.97369C245.352 5.95985 246.384 5.85954 247.417 5.8457C247.762 5.84109 248.019 5.75116 248.363 5.74654C248.707 5.74193 249.14 5.90912 249.482 5.73155C249.91 5.55283 250.259 5.89412 250.689 5.80188C252.663 5.34298 254.559 5.49056 256.539 5.46404C257.228 5.45481 257.832 5.53322 258.431 5.26572C258.602 5.17693 258.86 5.17347 259.034 5.25765C259.38 5.42599 259.638 5.33605 259.981 5.24496C260.41 5.15272 260.841 5.14695 261.272 5.22766C261.618 5.30953 262.048 5.30376 262.388 4.95324C262.558 4.77798 262.558 4.77798 262.732 4.94863C262.994 5.2046 263.252 5.20114 263.511 5.19768C264.199 5.18846 264.888 5.17923 265.576 5.08353C266.091 4.99013 266.607 4.98322 267.125 5.06277C267.643 5.14233 268.069 4.79066 268.503 5.04432C269.016 4.77797 269.535 4.94401 269.964 4.85177C270.565 4.75722 271.169 4.83563 271.772 4.82755C271.944 4.82525 272.205 4.99475 272.376 4.90596C272.975 4.63846 273.667 4.88867 274.267 4.70764C274.954 4.52546 275.645 4.68919 276.333 4.67997C277.453 4.66498 278.571 4.56351 279.69 4.54852C280.035 4.63038 280.462 4.36518 280.808 4.44705C281.153 4.52891 281.498 4.5243 281.841 4.43321C282.184 4.34212 282.528 4.33751 282.874 4.41937C283.22 4.50124 283.564 4.49662 283.907 4.40553C284.164 4.3156 284.509 4.31099 284.766 4.22105C285.022 4.04464 285.366 4.04003 285.712 4.1219C286.143 4.20261 286.574 4.19684 287.091 4.2764C287.609 4.35596 288.209 4.17493 288.727 4.25449C289.245 4.33405 289.76 4.24065 290.274 4.06078C290.531 3.97085 290.704 3.96854 290.963 4.05156C291.309 4.13342 291.567 4.12996 291.91 4.03887C292.771 4.02734 293.545 3.93048 294.406 3.91895L294.664 3.91549C295.271 4.25333 295.956 3.98468 296.559 3.97661C297.334 3.96623 298.107 3.86937 298.968 3.85784C299.484 3.76444 300.088 3.84285 300.604 3.83593L302.412 3.81171C303.015 3.80364 303.705 3.88089 304.219 3.70102C304.904 3.43236 305.424 3.68487 306.027 3.6768L307.06 3.66296C307.835 3.65259 308.609 3.64222 309.383 3.54536C310.157 3.4485 311.02 3.60992 311.881 3.59839L313.861 3.57187C314.722 3.56034 315.667 3.3747 316.527 3.36317L320.488 3.31013C321.521 3.29629 322.639 3.19483 323.672 3.18099C324.188 3.17407 324.271 2.91349 324.265 2.4811L324.259 2.04872C324.258 1.96224 324.342 1.78813 324.427 1.7005C324.597 1.52524 324.595 1.35229 324.42 1.18164ZM258.57 2.75557C258.223 2.58723 257.794 2.67948 257.366 2.8582C257.024 3.03576 256.679 3.04037 256.249 3.04614L250.653 3.12109C249.792 3.13262 248.932 3.23063 248.07 3.15568C247.466 3.07728 246.868 3.43126 246.266 3.43933L242.994 3.48315C242.564 3.48891 242.219 3.49353 241.79 3.58577C241.447 3.67686 241.015 3.59615 240.67 3.51428C239.807 3.35286 238.951 3.79678 238.088 3.63536C236.886 3.91093 235.594 3.84175 234.389 3.85789C233.787 3.95244 233.183 3.87404 232.582 3.96859C232.066 4.06198 231.465 4.15653 230.948 4.16345C230.257 3.99972 229.572 4.26838 228.882 4.19112C228.192 4.11387 227.506 4.29604 226.817 4.30527C226.128 4.31449 225.525 4.23609 224.838 4.41827C224.409 4.51051 223.979 4.51628 223.462 4.5232C222.859 4.53127 222.169 4.45402 221.569 4.63504C220.883 4.81722 220.192 4.65349 219.503 4.66272C218.212 4.68001 216.923 4.87026 215.632 4.97404C215.289 5.06513 214.945 5.06974 214.686 5.0732C213.395 5.0905 212.101 4.93484 210.901 5.29689L210.212 5.30612C208.49 5.32918 206.767 5.26576 205.049 5.54825C203.584 5.48138 202.21 5.75926 200.747 5.77886C199.886 5.79039 199.025 5.80193 198.165 5.89994C197.645 5.64742 197.134 6.08672 196.617 6.00716C195.67 6.01985 194.724 6.11901 193.863 6.13054C193.432 6.13631 193.088 6.14092 192.745 6.23201C192.402 6.3231 192.058 6.41419 191.714 6.4188L188.357 6.46377C187.151 6.47992 185.948 6.66902 184.83 6.77048C183.971 6.86849 183.108 6.79354 182.249 6.89155C181.303 6.99071 180.441 6.91577 179.496 7.10141C178.638 7.28589 177.775 7.21094 177.001 7.22132C175.795 7.23746 174.592 7.42656 173.388 7.52918C172.704 7.88432 171.927 7.72174 171.237 7.64449C170.633 7.56609 170.031 7.57416 169.429 7.66871C168.828 7.76326 168.312 7.85665 167.71 7.86472C166.849 7.87625 165.989 7.97426 165.13 8.15875C164.272 8.34323 163.409 8.1818 162.549 8.27981C161.517 8.38013 160.397 8.30864 159.28 8.49658C158.764 8.58998 158.162 8.59805 157.559 8.60612L154.976 8.64072C154.804 8.64302 154.718 8.64418 154.547 8.73296C153.948 9.00047 153.258 8.92321 152.655 8.93128C152.053 8.93936 151.537 9.03276 150.935 9.04083C150.676 9.04429 150.419 9.13422 150.16 9.05121L149.729 9.05697C148.269 9.336 146.891 9.26798 145.431 9.54701C145.001 9.63925 144.484 9.5597 144.053 9.56546C143.623 9.57123 143.192 9.57698 142.763 9.66923C141.647 9.94365 140.442 9.95979 139.323 9.97478C138.892 9.98055 138.377 10.0739 137.945 9.99323C137.085 10.0048 136.227 10.2757 135.366 10.2873L132.783 10.3219L132.697 10.323C132.181 10.3299 131.842 10.7669 131.237 10.602C130.718 10.436 130.204 10.6159 129.689 10.7093C129.604 10.7969 129.431 10.7127 129.344 10.7139C128.484 10.7254 127.621 10.6505 126.849 10.8338C126.42 10.926 125.99 11.0183 125.56 11.0241C124.441 11.039 123.322 11.054 122.205 11.242C121.26 11.4276 120.14 11.3561 119.193 11.3688C118.59 11.3769 118.075 11.4703 117.473 11.5648C116.786 11.6605 116.097 11.6698 115.408 11.679C115.064 11.6836 114.633 11.6894 114.291 11.8669C113.949 12.0445 113.69 11.9615 113.345 11.9661C112.829 11.973 112.225 11.8946 111.797 12.0733C111.283 12.2532 110.764 12.0872 110.336 12.2659C110.164 12.2682 109.992 12.357 109.905 12.2716C108.954 11.9384 108.098 12.3823 107.151 12.395C106.291 12.4065 105.43 12.4181 104.485 12.6037C103.626 12.7882 102.677 12.6279 101.731 12.7271C100.785 12.8263 99.7511 12.7536 98.8076 13.0257C98.4644 13.1168 98.0328 13.0361 97.6884 13.0407C96.9997 13.0499 96.311 13.0592 95.6246 13.2414C95.4535 13.3301 95.1953 13.3336 95.0231 13.3359C94.1622 13.3474 93.3013 13.359 92.4438 13.6299C92.1006 13.721 91.7551 13.6391 91.4107 13.6438C90.1194 13.6611 88.8269 13.5919 87.5401 13.9551C86.8537 14.1373 86.1638 14.06 85.4751 14.0692C84.1837 14.0865 82.9819 14.3621 81.6906 14.3794C81.0914 14.6469 80.4841 14.3091 79.8838 14.4901C79.1974 14.6723 78.5087 14.6815 77.82 14.6907C76.8729 14.7034 76.0144 14.8879 75.0697 15.0735C74.5543 15.1669 73.9516 15.175 73.349 15.1831L72.8325 15.19C71.3689 15.2096 69.9949 15.4875 68.5314 15.5071C67.9288 15.5151 67.2412 15.6108 66.6397 15.7054C65.1785 15.8979 63.7172 16.0905 62.3398 16.109C62.0815 16.1124 61.9966 16.2 61.7383 16.2035C61.2241 16.3834 60.711 16.6497 60.191 16.3972C60.0176 16.313 59.7605 16.403 59.5872 16.3188C59.0706 16.3257 58.5587 16.6786 57.9538 16.5137C57.3488 16.3488 56.7497 16.6163 56.1482 16.7108L54.5125 16.7327L54.1681 16.7374C53.3979 17.0936 52.5358 17.0187 51.6749 17.0302C50.9001 17.0406 50.0415 17.2251 49.1794 17.1502L48.578 17.2447C47.8904 17.3404 47.2889 17.435 46.4257 17.2735C48.1429 16.9046 49.6879 16.5379 51.1468 16.1724C51.49 16.0813 51.8332 15.9902 52.0892 15.8138C52.2613 15.8115 52.3463 15.7239 52.5185 15.7215C53.3828 15.9694 54.1519 15.5267 54.9255 15.4298C56.3007 15.2384 57.5886 14.9617 58.9614 14.5973C59.1336 14.595 59.3918 14.5916 59.5629 14.5028C60.162 14.2353 60.7647 14.2272 61.3673 14.2191C61.9699 14.2111 62.6564 14.0289 63.2567 13.8479C63.4289 13.8456 63.5999 13.7568 63.7721 13.7545C65.4078 13.7326 66.947 12.9335 68.4966 12.9128C68.5827 12.9116 68.7538 12.8228 68.9259 12.8205C70.1312 12.8044 71.333 12.5288 72.6221 12.3385C72.7931 12.2498 72.9653 12.2475 73.1374 12.2452C73.7401 12.2371 74.3404 12.0561 74.9419 11.9615C75.37 11.7828 75.8831 11.5164 76.4031 11.769C76.4904 11.8543 76.5753 11.7666 76.6614 11.7655C77.7736 11.2316 78.9789 11.2155 80.0981 11.2005C80.5285 11.1947 80.8729 11.1901 81.1277 10.9272C81.2976 10.752 81.4697 10.7497 81.6431 10.8338C81.7292 10.8327 81.9025 10.9169 81.9025 10.9169C83.0159 10.4695 84.1397 10.8004 85.2543 10.4395C85.7685 10.2596 86.2024 10.5133 86.7167 10.3334C87.2309 10.1536 87.7463 10.0602 88.2628 10.0532C88.6933 10.0475 89.2098 10.0406 89.638 9.86183C90.1533 9.76844 90.6699 9.76152 91.1864 9.7546C91.8752 9.74537 92.4743 9.47787 93.1596 9.20921C93.3271 8.861 93.4155 9.0328 93.59 9.20344C93.6773 9.28877 93.7634 9.28762 93.8495 9.28647C94.2776 9.10775 94.7081 9.10198 95.0524 9.09737C95.3968 9.09276 95.7388 8.91519 95.9983 8.99821C96.2577 9.08122 96.6021 9.07661 96.8592 8.98668C97.2024 8.89559 97.5433 8.63154 97.8888 8.71341C98.2343 8.79527 98.6648 8.78951 99.0091 8.7849C99.8677 8.60041 100.729 8.58887 101.501 8.40554C102.36 8.22106 103.219 8.12306 104.08 8.11153C104.511 8.10576 104.942 8.18646 105.369 7.92127C105.54 7.83248 105.714 7.91666 105.885 7.82788C106.66 7.8175 107.346 7.63532 108.121 7.62495C108.207 7.62379 108.378 7.535 108.55 7.5327C109.587 7.77829 110.699 7.24444 111.82 7.4024C112.764 7.13028 113.713 7.29055 114.656 6.93196C114.913 6.84203 115.172 6.92504 115.344 6.92274C116.55 6.90659 117.67 6.97809 118.87 6.52956C119.127 6.43962 119.385 6.43616 119.643 6.4327C120.676 6.41886 121.707 6.23207 122.74 6.21823C123.084 6.21362 123.427 6.03605 123.772 6.11792C124.29 6.19747 124.892 6.1894 125.494 6.09485C126.354 5.99685 127.299 5.89768 128.157 5.62672C128.414 5.53679 128.758 5.53218 129.017 5.52872C130.308 5.51142 131.514 5.58175 132.804 5.3915C133.925 5.54947 135.04 5.18857 136.245 5.17243C137.02 5.16205 137.793 5.06519 138.568 5.05481L139.429 5.04328C140.114 4.77462 140.889 4.76425 141.58 4.92798L142.441 4.91645C142.955 4.73658 143.558 4.7285 144.074 4.72158C144.763 4.71236 145.453 4.78961 146.14 4.60744C146.569 4.51519 146.912 4.4241 147.258 4.50596C148.032 4.49559 148.722 4.57284 149.494 4.30303C149.666 4.30073 149.838 4.29842 150.011 4.38259C150.7 4.37337 151.304 4.45177 151.903 4.18426C152.075 4.18196 152.332 4.09202 152.506 4.17619C153.199 4.51288 153.974 4.5025 154.659 4.23385C155.173 4.05397 155.693 4.30648 156.208 4.12661C156.636 3.94789 157.239 4.0263 157.67 4.02053L160.941 3.97672C161.285 3.88563 161.715 3.87986 162.058 3.78877C162.315 3.69884 162.66 3.69423 163.005 3.77609C163.18 3.94674 163.437 3.8568 163.694 3.76687C163.865 3.67808 164.123 3.67462 164.383 3.75764C164.643 3.92714 164.986 3.83604 165.331 3.83143C166.02 3.8222 166.705 3.55355 167.395 3.6308C167.999 3.70921 168.512 3.44285 169.029 3.52241C169.547 3.60197 170.064 3.59506 170.58 3.58814C171.011 3.58237 171.441 3.57661 171.783 3.39904L172.213 3.39328C172.818 3.55816 173.508 3.63541 174.108 3.36791C174.279 3.27913 174.451 3.27681 174.537 3.27566C175.143 3.52702 175.744 3.43247 176.345 3.25145L176.861 3.24453C177.636 3.23415 178.412 3.31025 179.272 3.21224C180.045 3.11539 180.82 3.10501 181.597 3.26759C182.027 3.17535 182.543 3.16842 182.976 3.33561C183.317 3.07157 183.751 3.32524 184.18 3.233C184.35 3.05774 184.609 3.14075 184.869 3.22377C185.128 3.30679 185.387 3.30333 185.641 3.04044L185.985 2.94935C186.848 3.11077 187.706 2.92628 188.653 2.9136L188.739 2.91245C190.892 2.88362 193.042 2.68184 195.199 2.99892C195.802 3.07732 196.491 3.0681 197.089 2.71412L197.347 2.71066C198.042 3.13382 198.812 2.77754 199.416 2.85594C200.192 2.93204 200.879 2.83634 201.568 2.82712C202.773 2.81097 203.979 2.79483 205.186 2.95164C205.79 3.03004 206.393 3.02197 206.994 2.92742C207.596 2.83288 208.198 2.8248 208.801 2.81673C209.49 2.8075 210.266 2.88361 211.038 2.70028C211.294 2.52386 211.469 2.6945 211.642 2.77868C211.989 2.94702 212.334 3.02889 212.762 2.85017C213.104 2.6726 213.45 2.75446 213.794 2.74985C214.483 2.74062 215.087 2.81903 215.774 2.72333C216.376 2.62878 217.068 2.87898 217.671 2.87091C217.843 2.8686 218.101 2.86515 218.272 2.77637C218.785 2.51002 219.475 2.58727 220.079 2.66567C220.597 2.74523 221.196 2.47773 221.802 2.72909C221.975 2.81326 222.146 2.72448 222.318 2.72217C223.005 2.53999 223.78 2.52962 224.471 2.69334C224.816 2.77521 225.248 2.85592 225.676 2.6772C225.761 2.58957 225.933 2.58726 226.105 2.58495C226.539 2.83862 227.052 2.57227 227.57 2.65183C228.433 2.81326 229.292 2.62877 230.153 2.61724C231.186 2.6034 232.305 2.58841 233.339 2.66105C234.46 2.73253 235.58 2.80403 236.696 2.5296L236.781 2.44197C237.561 2.86398 238.329 2.33473 239.107 2.58379C239.367 2.66681 239.538 2.57803 239.797 2.66104C240.659 2.73599 241.517 2.46502 242.465 2.53882C243.327 2.61376 244.188 2.60224 245.049 2.5907C245.393 2.58609 245.651 2.58263 245.909 2.49269C246.252 2.4016 246.597 2.48347 246.854 2.39354C247.198 2.30245 247.371 2.38661 247.63 2.46963C247.976 2.5515 248.234 2.54804 248.491 2.4581C248.918 2.1929 249.267 2.53421 249.695 2.35549C250.817 2.51345 252.021 2.41082 253.14 2.39583C253.398 2.39237 253.658 2.47539 253.916 2.47194C255.121 2.45579 256.329 2.61261 257.444 2.25171C257.791 2.50653 258.217 2.15485 258.65 2.32203C258.997 2.49038 259.341 2.48577 259.772 2.48001C259.432 2.83053 259.09 3.00808 258.57 2.75557Z" fill="#4F46E5"/>
</svg>
