<svg width="10" height="10" viewBox="0 0 10 10" fill="none" xmlns="http://www.w3.org/2000/svg">
<path d="M8.7397 8.72952C8.87339 8.7204 8.99363 8.64494 9.05998 8.52851L9.06086 8.52697L9.06088 8.52698L9.06289 8.52337C9.10778 8.44268 9.11429 8.36679 9.11406 8.32338C9.11382 8.27848 9.10624 8.24252 9.10077 8.22125C9.09003 8.17944 9.07489 8.14715 9.06749 8.13207C9.05132 8.0991 9.0329 8.07053 9.02286 8.05531C9.0111 8.0375 8.99953 8.02119 8.99237 8.01116C8.99009 8.00796 8.98836 8.00553 8.9871 8.00374C8.60942 7.39866 8.09361 6.91505 7.49286 6.61327C7.48464 6.60914 7.48132 6.59912 7.48545 6.5909C7.48958 6.58267 7.4996 6.57935 7.50782 6.58348C8.11741 6.88971 8.63974 7.38096 9.02085 7.9949L9.36069 7.78393L9.02085 7.9949L9.02554 8.00245C9.095 8.1143 9.1354 8.17936 9.14893 8.26663C9.16277 8.35598 9.13926 8.45465 9.09203 8.53955C9.04481 8.62446 8.97338 8.69648 8.89017 8.73183C8.85491 8.74681 8.80911 8.75721 8.74788 8.76237C8.69489 8.76685 8.64609 8.76667 8.58559 8.76645C8.57174 8.76639 8.55728 8.76634 8.54201 8.76634C8.53281 8.76634 8.52534 8.75888 8.52534 8.74967C8.52534 8.74047 8.53281 8.73301 8.54201 8.73301C8.62598 8.73301 8.68923 8.73297 8.7397 8.72952ZM8.99253 8.01248C8.99247 8.01237 8.9924 8.01226 8.99233 8.01215C8.9924 8.01226 8.99247 8.01238 8.99254 8.01249L8.99253 8.01248ZM8.35747 8.49957C8.35747 8.49958 8.35722 8.4992 8.35678 8.49846L8.35747 8.49957ZM1.01131 8.67863L0.770027 8.99767L1.0113 8.67863C0.965582 8.64405 0.924618 8.59235 0.894259 8.53565L0.541631 8.72447L0.894259 8.53565C0.8639 8.47895 0.843572 8.4162 0.840137 8.35897C0.835738 8.28569 0.852755 8.22061 0.889052 8.14658C0.922897 8.07754 0.975088 7.99804 1.04272 7.89657C1.70796 6.89847 2.78242 6.23301 3.95868 6.23301C5.13493 6.23301 6.20938 6.89847 6.87464 7.89657C6.94226 7.99803 6.99446 8.07754 7.0283 8.14658C7.0646 8.22061 7.08161 8.28569 7.07722 8.35897C7.07378 8.4162 7.05345 8.47895 7.02309 8.53565C6.99273 8.59235 6.95177 8.64405 6.90605 8.67863C6.84709 8.72322 6.77764 8.74495 6.68531 8.75569C6.59799 8.76585 6.48692 8.76637 6.34289 8.76634C4.75403 8.76604 3.16394 8.76604 1.57446 8.76634C1.43044 8.76637 1.31936 8.76585 1.23204 8.75569C1.13971 8.74495 1.07027 8.72322 1.01131 8.67863ZM6.65208 1.43716C6.65618 1.42891 6.66618 1.42555 6.67443 1.42965C7.29738 1.73923 7.72534 2.38205 7.72534 3.12467C7.72534 3.8673 7.29738 4.51012 6.67443 4.8197C6.66618 4.8238 6.65618 4.82043 6.65208 4.81219C6.64799 4.80395 6.65135 4.79395 6.65959 4.78985C7.27172 4.48565 7.69201 3.85408 7.69201 3.12467C7.69201 2.39526 7.27172 1.7637 6.65959 1.4595C6.65135 1.4554 6.64799 1.4454 6.65208 1.43716ZM2.06701 3.12467C2.06701 2.07994 2.91394 1.23301 3.95868 1.23301C5.00342 1.23301 5.85034 2.07994 5.85034 3.12467C5.85034 4.16941 5.00342 5.01634 3.95868 5.01634C2.91394 5.01634 2.06701 4.16941 2.06701 3.12467Z" stroke="#6B7280" stroke-width="0.8" stroke-linecap="round" stroke-linejoin="round"/>
</svg>
