<svg width="20" height="20" viewBox="0 0 20 20" fill="none" xmlns="http://www.w3.org/2000/svg">
<path fill-rule="evenodd" clip-rule="evenodd" d="M9.19095 12.5006C9.65086 12.4832 10.0378 12.842 10.0551 13.3019C10.0943 14.3387 10.1492 15.0954 10.2033 15.638C10.2565 16.1723 10.5791 16.4938 11.0287 16.5488C11.559 16.6136 12.3069 16.6666 13.3333 16.6666C14.3597 16.6666 15.1076 16.6136 15.6378 16.5488C16.0873 16.4938 16.41 16.1722 16.4632 15.6378C16.5636 14.6306 16.6666 12.8907 16.6666 9.99998C16.6666 7.1093 16.5636 5.36932 16.4632 4.36221C16.41 3.82775 16.0873 3.50612 15.6378 3.45118C15.1076 3.38636 14.3597 3.33331 13.3333 3.33331C12.3069 3.33331 11.5589 3.38636 11.0287 3.45117C10.5791 3.50614 10.2565 3.82763 10.2033 4.36195C10.1492 4.90452 10.0943 5.66126 10.0551 6.69808C10.0378 7.15799 9.65086 7.51675 9.19095 7.49939C8.73104 7.48202 8.37228 7.09512 8.38964 6.63521C8.42982 5.57101 8.48678 4.7795 8.54483 4.19674C8.66688 2.9716 9.52105 1.9564 10.8265 1.79682C11.4342 1.72253 12.2506 1.66664 13.3333 1.66664C14.416 1.66664 15.2324 1.72254 15.8401 1.79683C17.1457 1.95643 17.9997 2.9721 18.1217 4.197C18.2291 5.27555 18.3333 7.07371 18.3333 9.99998C18.3333 12.9263 18.2291 14.7244 18.1217 15.803C17.9997 17.0279 17.1457 18.0435 15.8401 18.2031C15.2324 18.2774 14.416 18.3333 13.3333 18.3333C12.2506 18.3333 11.4342 18.2774 10.8265 18.2031C9.52105 18.0436 8.66688 17.0284 8.54483 15.8032C8.48678 15.2205 8.42982 14.4289 8.38964 13.3647C8.37228 12.9048 8.73104 12.5179 9.19095 12.5006Z" fill="#72767C"/>
<path fill-rule="evenodd" clip-rule="evenodd" d="M6.00588 12.3274C6.33132 12.6528 6.33132 13.1805 6.00588 13.5059C5.68044 13.8314 5.15281 13.8314 4.82737 13.5059L1.9107 10.5893C1.58527 10.2638 1.58527 9.73618 1.9107 9.41074L4.82737 6.49408C5.15281 6.16864 5.68044 6.16864 6.00588 6.49408C6.33132 6.81951 6.33132 7.34715 6.00588 7.67259L4.5118 9.16667H12.5C12.9602 9.16667 13.3333 9.53976 13.3333 10C13.3333 10.4602 12.9602 10.8333 12.5 10.8333L4.5118 10.8333L6.00588 12.3274Z" fill="#72767C"/>
</svg>
