<svg width="18" height="14" viewBox="0 0 18 14" fill="none" xmlns="http://www.w3.org/2000/svg">
<path d="M6.3 8.575C4.194 8.575 0 9.628 0 11.725V13.3H12.6V11.725C12.6 9.628 8.406 8.575 6.3 8.575ZM2.106 11.5C2.862 10.978 4.689 10.375 6.3 10.375C7.911 10.375 9.738 10.978 10.494 11.5H2.106ZM6.3 7C8.037 7 9.45 5.587 9.45 3.85C9.45 2.113 8.037 0.700001 6.3 0.700001C4.563 0.700001 3.15 2.113 3.15 3.85C3.15 5.587 4.563 7 6.3 7ZM6.3 2.5C7.047 2.5 7.65 3.103 7.65 3.85C7.65 4.597 7.047 5.2 6.3 5.2C5.553 5.2 4.95 4.597 4.95 3.85C4.95 3.103 5.553 2.5 6.3 2.5ZM12.636 8.629C13.68 9.385 14.4 10.393 14.4 11.725V13.3H18V11.725C18 9.907 14.85 8.872 12.636 8.629ZM11.7 7C13.437 7 14.85 5.587 14.85 3.85C14.85 2.113 13.437 0.700001 11.7 0.700001C11.214 0.700001 10.764 0.817001 10.35 1.015C10.917 1.816 11.25 2.797 11.25 3.85C11.25 4.903 10.917 5.884 10.35 6.685C10.764 6.883 11.214 7 11.7 7Z" fill="#9CA3AF"/>
</svg>
