<svg width="106" height="30" viewBox="0 0 106 30" fill="none" xmlns="http://www.w3.org/2000/svg">
<rect x="0.420898" y="0.366211" width="50.5789" height="29.513" rx="2" fill="#EFF6FF"/>
<path d="M22.8221 22.2103H19.1554L21.447 8.12665H25.1141L22.8221 22.2103ZM16.0707 8.12665L12.5751 17.8135L12.1614 15.7275L12.1618 15.7283L10.928 9.39473C10.928 9.39473 10.7788 8.12665 9.18863 8.12665H3.40961L3.3418 8.36512C3.3418 8.36512 5.10903 8.73281 7.17728 9.97489L10.3629 22.2107H14.1833L20.017 8.12665H16.0707ZM44.9112 22.2103H48.2781L45.3426 8.12628H42.3951C41.0339 8.12628 40.7024 9.17585 40.7024 9.17585L35.2338 22.2103H39.0561L39.8205 20.1183H44.4818L44.9112 22.2103ZM40.8765 17.2284L42.8031 11.958L43.8869 17.2284H40.8765ZM35.5205 11.5134L36.0438 8.48907C36.0438 8.48907 34.4291 7.875 32.7459 7.875C30.9263 7.875 26.6052 8.67028 26.6052 12.5374C26.6052 16.1759 31.6767 16.2211 31.6767 18.1322C31.6767 20.0434 27.1277 19.7009 25.6265 18.4957L25.0813 21.658C25.0813 21.658 26.7186 22.4533 29.2201 22.4533C31.7223 22.4533 35.4971 21.1577 35.4971 17.6315C35.4971 13.9697 30.38 13.6288 30.38 12.0367C30.3804 10.4443 33.9514 10.6489 35.5205 11.5134Z" fill="#2566AF"/>
<path d="M12.1618 15.7276L10.928 9.39405C10.928 9.39405 10.7788 8.12598 9.18864 8.12598H3.40961L3.3418 8.36445C3.3418 8.36445 6.11942 8.94009 8.78365 11.0969C11.3311 13.1583 12.1618 15.7276 12.1618 15.7276Z" fill="#E6A540"/>
<rect x="55" y="0.366211" width="50.5789" height="29.513" rx="2" fill="#EFF6FF"/>
<path fill-rule="evenodd" clip-rule="evenodd" d="M80.0034 23.7645C82.0583 25.6604 84.75 26.7107 87.5425 26.7063C90.5319 26.6873 93.3924 25.4833 95.4995 23.3571C97.6067 21.231 98.7893 18.3554 98.7893 15.3581C98.7893 12.3607 97.6067 9.48515 95.4995 7.359C93.3924 5.23285 90.5319 4.02883 87.5425 4.00978C84.75 4.00529 82.0582 5.05562 80.0034 6.95158C78.8345 8.016 77.9005 9.31371 77.2613 10.7614C76.6222 12.2091 76.292 13.7749 76.292 15.3581C76.292 16.9413 76.6222 18.507 77.2613 19.9547C77.9005 21.4024 78.8345 22.7001 80.0034 23.7645Z" fill="#E9B040"/>
<path fill-rule="evenodd" clip-rule="evenodd" d="M97.2977 21.6791C97.2976 21.633 97.3065 21.5873 97.324 21.5447C97.3415 21.5021 97.3672 21.4634 97.3997 21.4308C97.4323 21.3982 97.4709 21.3724 97.5134 21.3548C97.5559 21.3373 97.6014 21.3283 97.6474 21.3285C97.6948 21.3263 97.7422 21.3338 97.7866 21.3504C97.8311 21.367 97.8717 21.3924 97.9062 21.4252C97.9406 21.4579 97.9681 21.4972 97.987 21.5409C98.006 21.5845 98.0159 21.6315 98.0163 21.6791C98.018 21.7281 98.0096 21.777 97.9917 21.8227C97.9737 21.8683 97.9466 21.9098 97.912 21.9445C97.8774 21.9792 97.8361 22.0065 97.7906 22.0245C97.7451 22.0425 97.6963 22.051 97.6474 22.0494C97.5999 22.049 97.553 22.039 97.5095 22.02C97.466 22.0009 97.4267 21.9733 97.394 21.9388C97.3614 21.9042 97.3361 21.8634 97.3195 21.8188C97.303 21.7741 97.2956 21.7266 97.2977 21.6791ZM97.6474 21.9716C97.7241 21.9697 97.7971 21.9383 97.8513 21.8839C97.9055 21.8294 97.9367 21.7562 97.9385 21.6793C97.9358 21.6045 97.9037 21.5338 97.8491 21.4827C97.7946 21.4316 97.722 21.4043 97.6474 21.4067C97.5757 21.4081 97.5074 21.4373 97.4567 21.4881C97.4061 21.539 97.377 21.6075 97.3755 21.6793C97.3766 21.7531 97.4051 21.8239 97.4553 21.8779C97.5056 21.932 97.574 21.9654 97.6474 21.9716ZM97.6085 21.8547H97.5308V21.5234H97.6666C97.6941 21.5203 97.7217 21.5273 97.7444 21.5431C97.7832 21.5624 97.7832 21.5821 97.7832 21.6211C97.7832 21.66 97.764 21.699 97.7252 21.699L97.8029 21.8549H97.7055L97.6666 21.7174H97.6085V21.6589H97.6863C97.7055 21.6589 97.7055 21.6392 97.7055 21.6199C97.7055 21.6007 97.7055 21.6002 97.6863 21.5809H97.6085V21.8547Z" fill="#E9B040"/>
<path fill-rule="evenodd" clip-rule="evenodd" d="M83.6372 14.1601C83.5983 13.751 83.5205 13.3615 83.4428 12.9522H76.5642C76.6473 12.5508 76.751 12.1539 76.875 11.7633H83.1125C82.9772 11.3532 82.8217 10.9505 82.6462 10.5554H77.361C77.5554 10.1427 77.7688 9.74004 78.0013 9.34749H81.9849C81.7286 8.93142 81.4429 8.53427 81.13 8.15908H78.8573C79.209 7.72846 79.5922 7.32471 80.0037 6.95118C78.6408 5.72991 77.0025 4.85878 75.2296 4.41267C73.4567 3.96656 71.6023 3.95882 69.8258 4.39012C68.0492 4.82141 66.4037 5.67885 65.0308 6.88869C63.6578 8.09854 62.5984 9.62461 61.9437 11.3357C61.289 13.0468 61.0585 14.8917 61.2722 16.7118C61.4858 18.5319 62.1371 20.2728 63.1701 21.7847C64.2031 23.2967 65.5869 24.5345 67.2025 25.3917C68.8181 26.2489 70.6172 26.6999 72.445 26.7059C75.2434 26.7104 77.9413 25.6604 80.0037 23.7641C80.409 23.3971 80.7858 22.9998 81.1309 22.5755H78.8573C78.5503 22.1889 78.2649 21.7857 78.0022 21.3676H81.9858C82.2363 20.9824 82.4571 20.5786 82.6465 20.1597H77.361C77.1791 19.772 77.0169 19.3752 76.875 18.971H83.1125C83.2432 18.5744 83.3533 18.1712 83.4425 17.7631C83.5278 17.3641 83.5927 16.9609 83.6369 16.5552C83.6763 16.1603 83.6959 15.7635 83.6955 15.3666C83.6955 14.9582 83.676 14.5492 83.6372 14.1596V14.1601Z" fill="#CC2131"/>
<path fill-rule="evenodd" clip-rule="evenodd" d="M97.2977 17.998C97.2956 17.9505 97.303 17.903 97.3196 17.8584C97.3361 17.8138 97.3615 17.773 97.3941 17.7385C97.4268 17.704 97.466 17.6764 97.5095 17.6575C97.5531 17.6385 97.5999 17.6285 97.6474 17.6281C97.6963 17.6265 97.745 17.6349 97.7905 17.6529C97.836 17.6709 97.8773 17.6981 97.9119 17.7328C97.9465 17.7674 97.9736 17.8089 97.9916 17.8545C98.0095 17.9001 98.0179 17.949 98.0163 17.998C98.018 18.0464 98.01 18.0946 97.9927 18.1398C97.9754 18.185 97.9492 18.2263 97.9157 18.2611C97.8822 18.296 97.842 18.3237 97.7975 18.3426C97.7531 18.3615 97.7053 18.3713 97.657 18.3713C97.6087 18.3713 97.5609 18.3615 97.5165 18.3426C97.472 18.3237 97.4318 18.296 97.3983 18.2611C97.3648 18.2263 97.3386 18.185 97.3213 18.1398C97.304 18.0946 97.296 18.0464 97.2977 17.998ZM97.6474 18.2706C97.6847 18.2733 97.7222 18.2682 97.7575 18.2557C97.7928 18.2432 97.8251 18.2236 97.8525 18.198C97.8799 18.1724 97.9017 18.1414 97.9167 18.107C97.9316 18.0726 97.9393 18.0355 97.9393 17.998C97.9393 17.9605 97.9316 17.9233 97.9167 17.8889C97.9017 17.8545 97.8799 17.8236 97.8525 17.798C97.8251 17.7724 97.7928 17.7528 97.7575 17.7403C97.7222 17.7278 97.6847 17.7227 97.6474 17.7254C97.5753 17.7254 97.5061 17.7541 97.4551 17.8052C97.4041 17.8563 97.3755 17.9257 97.3755 17.998C97.3755 18.0703 97.4041 18.1396 97.4551 18.1908C97.5061 18.2419 97.5753 18.2706 97.6474 18.2706ZM97.6085 18.1537H97.5308V17.8421H97.7444C97.7832 17.8618 97.7832 17.9008 97.7832 17.9397C97.7806 17.9565 97.7739 17.9723 97.7638 17.9859C97.7536 17.9995 97.7404 18.0104 97.7251 18.0177L97.8029 18.1539H97.7055L97.6666 18.037H97.6085V17.9785H97.6474C97.6666 17.9785 97.6863 17.9785 97.6863 17.9588C97.7055 17.9588 97.7055 17.9395 97.7055 17.9198C97.7055 17.9172 97.7051 17.9147 97.7041 17.9123C97.7032 17.91 97.7018 17.9078 97.7 17.906C97.6982 17.9042 97.6961 17.9028 97.6937 17.9019C97.6913 17.9009 97.6888 17.9005 97.6863 17.9005C97.6863 17.8808 97.6666 17.9005 97.6474 17.9005H97.6085V18.1537Z" fill="#EAEAEA"/>
<path fill-rule="evenodd" clip-rule="evenodd" d="M76.1759 18.6413C75.8795 18.7325 75.5725 18.7849 75.2627 18.7972C74.6798 18.7972 74.3299 18.4269 74.3299 17.7654C74.334 17.6214 74.347 17.4778 74.3688 17.3354L74.4465 16.8876L74.5048 16.5173L75.0294 13.3229H76.1958L76.0585 14.0243H76.7974L76.6225 15.1936H75.8843L75.5735 17.1027C75.5599 17.1668 75.5534 17.2321 75.5541 17.2976C75.5541 17.551 75.6707 17.6482 75.962 17.6482C76.086 17.646 76.2095 17.633 76.3311 17.6092L76.1759 18.641V18.6413ZM79.9456 18.6023C79.5411 18.7177 79.1226 18.7767 78.702 18.7775C77.3806 18.7775 76.6227 18.0761 76.6227 16.6932C76.6227 15.076 77.5167 13.9071 78.7601 13.9071C79.751 13.9071 80.3922 14.5695 80.3922 15.6018C80.3884 15.9888 80.3428 16.3742 80.2564 16.7514H77.8266C77.8126 16.8022 77.8061 16.8547 77.8071 16.9074C77.8071 17.4528 78.1762 17.7255 78.8758 17.7255C79.3133 17.7239 79.7448 17.6242 80.1388 17.4336L79.9456 18.6023ZM79.2266 15.8164V15.5825C79.2366 15.5025 79.2286 15.4212 79.2032 15.3447C79.1777 15.2682 79.1354 15.1984 79.0795 15.1405C79.0236 15.0825 78.9554 15.0379 78.8799 15.0099C78.8045 14.9818 78.7238 14.9711 78.6437 14.9786C78.2549 14.9786 77.983 15.2707 77.8661 15.8162H79.2264L79.2266 15.8164ZM66.8494 18.6995H65.6442L66.3438 14.2774L64.7699 18.6995H63.9345L63.8373 14.2971L63.0989 18.6995H61.9136L62.8656 12.9526H64.6338L64.6727 16.4985L65.858 12.9526H67.8019L66.8494 18.6995ZM69.7837 16.6152C69.7069 16.6004 69.6287 16.5938 69.5505 16.5955C68.8509 16.5955 68.5012 16.8681 68.5012 17.2969C68.4947 17.3592 68.5014 17.4222 68.521 17.4816C68.5406 17.5411 68.5726 17.5957 68.6148 17.6418C68.6571 17.6879 68.7087 17.7244 68.7662 17.749C68.8236 17.7735 68.8857 17.7855 68.9481 17.7842C69.531 17.7842 69.7641 17.2969 69.7837 16.6148V16.6152ZM70.7552 18.6995H69.7055L69.725 18.2127C69.4528 18.5826 69.0846 18.7775 68.4425 18.7775C67.8595 18.7775 67.3544 18.2517 67.3544 17.4918C67.3566 17.2869 67.3894 17.0834 67.4515 16.8881C67.6457 16.167 68.3647 15.7187 69.4723 15.6995C69.6095 15.6995 69.8219 15.6995 70.0163 15.7192C70.0449 15.6178 70.058 15.5126 70.055 15.4073C70.055 15.0955 69.8034 14.9981 69.239 14.9981C68.8961 14.9961 68.5551 15.0488 68.2286 15.154L68.0537 15.193L67.9759 15.2122L68.1509 14.1602C68.6072 14.0014 69.0858 13.9163 69.5688 13.908C70.618 13.908 71.1815 14.395 71.1815 15.2911C71.1938 15.5976 71.1743 15.9045 71.1232 16.2069L70.8515 17.8814L70.8126 18.1737L70.7932 18.4076L70.7737 18.5635L70.7543 18.6995H70.7552ZM85.8143 14.063C86.197 14.0759 86.5706 14.1829 86.9024 14.3746L87.116 13.1277C87.0149 13.0824 86.9111 13.0433 86.8052 13.0108L86.3197 12.8732C86.1347 12.8314 85.9455 12.8118 85.7559 12.8147C85.1533 12.8147 84.8037 12.8342 84.4348 13.0486C84.169 13.2241 83.9272 13.4337 83.7156 13.6721L83.5601 13.6331L82.3164 14.5097L82.375 14.0227H81.0923L80.3348 18.6981H81.5592L82.0059 16.1853C82.0059 16.1853 82.1811 15.8343 82.2586 15.7178C82.3341 15.611 82.4375 15.5272 82.5575 15.4757C82.6774 15.4241 82.8093 15.4067 82.9385 15.4255H83.0359C82.9951 15.7224 82.9755 16.0218 82.9774 16.3215C82.9774 17.841 83.8322 18.7958 85.1536 18.7958C85.5153 18.7934 85.875 18.741 86.2225 18.6399L86.4365 17.3153C86.1245 17.503 85.7709 17.6101 85.4074 17.6269C84.6886 17.6269 84.2608 17.0814 84.2608 16.2243C84.2608 14.9579 84.9011 14.0619 85.8159 14.0619L85.8143 14.063ZM96.1316 12.9526L95.86 14.589C95.7521 14.3886 95.5922 14.2212 95.3972 14.1046C95.2022 13.988 94.9793 13.9264 94.7522 13.9266C94.4104 13.9366 94.0783 14.0423 93.7932 14.2316C93.5082 14.421 93.2817 14.6864 93.1392 14.9981V14.9788L92.3617 14.511L92.4394 14.024H91.1375L90.3991 18.6995H91.6038L92.012 16.1867C92.012 16.1867 92.3228 15.8357 92.4008 15.7192C92.466 15.635 92.5481 15.5654 92.6418 15.5151C92.7356 15.4647 92.8388 15.4346 92.9448 15.4268C92.7972 15.8728 92.725 16.3403 92.7312 16.8101C92.7312 17.9795 93.3334 18.7591 94.2271 18.7591C94.4425 18.7634 94.6561 18.7182 94.8515 18.627C95.0468 18.5358 95.2187 18.401 95.3541 18.2329L95.296 18.7004H96.442L97.3746 12.9535H96.1307L96.1316 12.9526ZM94.6353 17.5893C94.2271 17.5893 94.0135 17.2777 94.0135 16.6735C94.0135 15.7577 94.4023 15.0955 94.9653 15.0955C95.3927 15.0955 95.6056 15.4268 95.6056 16.0113C95.6056 16.9463 95.2169 17.5893 94.6342 17.5893H94.6353ZM89.02 16.6152C88.9432 16.6004 88.865 16.5938 88.7868 16.5955C88.0868 16.5955 87.7371 16.8681 87.7371 17.2969C87.7305 17.3592 87.7373 17.4222 87.7569 17.4816C87.7765 17.5411 87.8086 17.5957 87.8509 17.6418C87.8932 17.6879 87.9448 17.7244 88.0022 17.749C88.0597 17.7735 88.1217 17.7855 88.1842 17.7842C88.7671 17.7842 89.0004 17.2969 89.02 16.6152ZM89.9915 18.6995H88.9226L88.9615 18.2127C88.6896 18.5826 88.3212 18.7775 87.6792 18.7775C87.0766 18.7775 86.5522 18.2709 86.5522 17.4918C86.5522 16.3816 87.3874 15.6997 88.7088 15.6997C88.884 15.6971 89.0592 15.7037 89.2336 15.7194C89.2668 15.6185 89.2865 15.5137 89.2922 15.4076C89.2922 15.0957 89.0406 14.9983 88.4566 14.9983C88.1138 14.9979 87.773 15.0505 87.4462 15.1542L87.2907 15.1932L87.2129 15.2124L87.3877 14.1605C87.844 14.0017 88.3226 13.9165 88.8055 13.9082C89.8548 13.9082 90.3988 14.3952 90.3988 15.2913C90.4214 15.5978 90.4018 15.9059 90.3407 16.2071L90.0892 17.8825L90.0503 18.1749L90.0114 18.4088L89.9922 18.5647V18.7004L89.9915 18.6995ZM73.3001 15.0175C73.6061 15.0192 73.9116 15.0452 74.2135 15.0955L74.3884 14.0045C74.0385 13.9656 73.5722 13.9071 73.3001 13.9071C71.9401 13.9071 71.4934 14.6475 71.4934 15.5046C71.4934 16.0698 71.745 16.4786 72.4066 16.7902C72.8923 17.0241 72.9701 17.0628 72.9701 17.2774C72.9701 17.5693 72.7185 17.745 72.2511 17.745C71.8734 17.7449 71.4986 17.679 71.1435 17.5501L71.0063 18.6213L71.0255 18.641L71.2588 18.68C71.3614 18.7048 71.4652 18.7242 71.5698 18.7382C71.8612 18.758 72.1139 18.7772 72.2694 18.7772C73.6296 18.7772 74.1931 18.2515 74.1931 17.218C74.1931 16.576 73.8821 16.1862 73.2797 15.9132C72.7551 15.679 72.6968 15.6405 72.6968 15.4259C72.6968 15.2113 72.9301 15.0169 73.2992 15.0169L73.3001 15.0175Z" fill="#1B3771"/>
<path fill-rule="evenodd" clip-rule="evenodd" d="M87.4453 12.7573L87.2312 14.0041C86.8995 13.8123 86.5258 13.7053 86.1431 13.6925C85.2297 13.6925 84.588 14.5886 84.588 15.855C84.588 16.7318 85.0154 17.2575 85.7347 17.2575C86.0953 17.2396 86.4472 17.1398 86.7638 16.9657L86.5502 18.2705C86.2033 18.3768 85.8438 18.4359 85.4813 18.4462C84.1601 18.4462 83.3439 17.4914 83.3439 15.9526C83.3439 13.9069 84.4709 12.4651 86.0837 12.4651C86.2731 12.4622 86.4621 12.4818 86.6469 12.5236L87.1329 12.6405C87.2886 12.699 87.3275 12.7185 87.4441 12.7573H87.4453ZM83.5203 13.6146H83.4036C82.9959 13.6146 82.7633 13.8095 82.3933 14.3742L82.5099 13.6533H81.4021L80.6447 18.329H81.8691C82.3158 15.4652 82.4324 14.9782 83.0153 14.9782H83.0931C83.1824 14.5097 83.3395 14.0568 83.5594 13.6338L83.5203 13.6146ZM76.4862 18.2705C76.2063 18.374 75.9103 18.4268 75.6119 18.4265C74.9901 18.4265 74.6402 18.0759 74.6402 17.3947C74.6444 17.2575 74.6574 17.1208 74.6791 16.9854L74.7568 16.5178L74.8152 16.148L75.3398 12.9526H76.5452L76.408 13.654H77.0298L76.8743 14.8034H76.2529L75.9227 16.7524C75.9075 16.8162 75.901 16.8818 75.9033 16.9473C75.9033 17.1812 76.0199 17.2786 76.3113 17.2786C76.4228 17.2887 76.5353 17.2755 76.6415 17.2397L76.4862 18.2715V18.2705ZM71.8033 15.1338C71.8033 15.7185 72.0752 16.1274 72.7165 16.4392C73.2216 16.6731 73.2994 16.7508 73.2994 16.9457C73.2994 17.238 73.0856 17.3742 72.5998 17.3742C72.2304 17.3717 71.8634 17.3126 71.5117 17.1991L71.3368 18.2703L71.3951 18.29L71.6089 18.329C71.7168 18.3564 71.8278 18.3695 71.9391 18.368C72.1581 18.3973 72.3789 18.4103 72.5998 18.407C73.8821 18.407 74.4847 17.9197 74.4847 16.8478C74.4847 16.2046 74.2331 15.8343 73.6299 15.5424C73.1052 15.3095 73.0462 15.2512 73.0462 15.0369C73.0462 14.7846 73.2601 14.6668 73.6486 14.6668C73.941 14.6694 74.233 14.6889 74.5231 14.7253L74.6978 13.6538C74.3446 13.5941 73.9873 13.5615 73.6292 13.5563C72.2689 13.5563 71.7832 14.277 71.8026 15.1341L71.8033 15.1338ZM96.7535 18.329H95.6068L95.6653 17.8807C95.526 18.0429 95.3527 18.1724 95.1579 18.2599C94.9631 18.3475 94.7514 18.3909 94.5379 18.3873C93.6442 18.3873 93.0612 17.6278 93.0612 16.4589C93.0612 14.8997 93.9746 13.5754 95.0431 13.5754C95.2754 13.5767 95.5037 13.6361 95.7074 13.7482C95.911 13.8603 96.0836 14.0215 96.2094 14.2174L96.4813 12.5809H97.6861L96.7535 18.3281V18.329ZM94.9655 17.238C95.5293 17.238 95.9178 16.5756 95.9178 15.6598C95.9178 15.0559 95.7038 14.7441 95.2775 14.7441C94.7334 14.7441 94.3257 15.3861 94.3257 16.3032C94.3257 16.9269 94.5391 17.2387 94.966 17.2385L94.9655 17.238ZM80.2168 18.2316C79.809 18.3643 79.3825 18.4301 78.9538 18.4265C77.5935 18.4265 76.894 17.7058 76.894 16.3225C76.894 14.725 77.7879 13.5366 79.0121 13.5366C80.0224 13.5366 80.6635 14.199 80.6635 15.2315C80.6607 15.6263 80.6085 16.0192 80.508 16.4009H78.0989C78.0841 16.4452 78.0775 16.4918 78.0795 16.5385C78.0795 17.084 78.4488 17.3566 79.1482 17.3566C79.5867 17.3645 80.0205 17.2641 80.4112 17.0642L80.2168 18.2336V18.2316ZM79.5367 15.4457V15.212C79.5467 15.132 79.5387 15.0508 79.5133 14.9743C79.4878 14.8977 79.4455 14.8279 79.3896 14.77C79.3337 14.712 79.2655 14.6674 79.19 14.6394C79.1146 14.6114 79.0339 14.6007 78.9538 14.6081C78.565 14.6081 78.2931 14.9004 78.1762 15.4457H79.5365H79.5367ZM67.1593 18.3292H65.9545L66.6541 13.9067L65.0803 18.3292H64.2446L64.1474 13.9457L63.4092 18.3292H62.2822L63.2354 12.5821H64.9842L65.0421 16.1473L66.2084 12.5821H68.1127L67.1607 18.3292H67.1593ZM70.1711 16.2445C70.0545 16.2445 69.9962 16.2253 69.899 16.2253C69.2189 16.2253 68.8699 16.4775 68.8699 16.9459C68.8615 17.006 68.8664 17.0671 68.8843 17.125C68.9023 17.1829 68.9328 17.2361 68.9736 17.2808C69.0145 17.3255 69.0647 17.3605 69.1206 17.3835C69.1766 17.4064 69.2369 17.4167 69.2973 17.4135C69.8025 17.4135 70.1524 16.9459 70.1718 16.2441L70.1711 16.2445ZM71.0649 18.3292H70.0543L70.0733 17.842C69.9207 18.0328 69.7244 18.1838 69.5011 18.2822C69.2778 18.3806 69.0341 18.4235 68.7908 18.4072C68.1301 18.4072 67.6832 17.9007 67.6832 17.1408C67.6832 15.9916 68.4608 15.3294 69.8206 15.3294C69.9578 15.3294 70.1316 15.3489 70.3257 15.3682C70.3533 15.2733 70.3664 15.1748 70.3646 15.0761C70.3646 14.7645 70.1508 14.6475 69.5871 14.6475C69.2467 14.6433 68.9072 14.6826 68.5767 14.7645L68.4018 14.8229L68.2851 14.8424L68.4601 13.7904C68.9313 13.6389 69.4227 13.5601 69.9175 13.5566C70.9668 13.5566 71.5302 14.0241 71.5302 14.9201C71.5227 15.234 71.4902 15.5468 71.4331 15.8554L71.1609 17.5116L71.122 17.8035L71.1026 18.0374L71.0832 18.213L71.0642 18.3295L71.0649 18.3292ZM89.4079 16.2445C89.2707 16.2445 89.2135 16.2253 89.136 16.2253C88.4364 16.2253 88.0863 16.4775 88.0863 16.9459C88.0801 17.0072 88.0872 17.0691 88.1072 17.1274C88.1272 17.1856 88.1595 17.2388 88.2021 17.2833C88.2446 17.3278 88.2962 17.3625 88.3535 17.3849C88.4107 17.4074 88.4721 17.4171 88.5334 17.4135C89.0194 17.4135 89.3882 16.9459 89.4079 16.2441V16.2445ZM90.3016 18.3292H89.2913L89.3105 17.842C89.158 18.0328 88.9618 18.1839 88.7385 18.2823C88.5152 18.3807 88.2716 18.4235 88.0282 18.4072C87.3675 18.4072 86.9204 17.9007 86.9204 17.1408C86.9204 15.9916 87.698 15.3294 89.0578 15.3294C89.195 15.3294 89.369 15.3489 89.5438 15.3682C89.5749 15.2735 89.5946 15.1754 89.6023 15.0761C89.6023 14.7645 89.3882 14.6475 88.8247 14.6475C88.4782 14.6435 88.1325 14.6827 87.7956 14.7645L87.6401 14.8229L87.5235 14.8424L87.6982 13.7904C88.1694 13.639 88.6608 13.5601 89.1557 13.5566C90.2049 13.5566 90.749 14.0241 90.749 14.9201C90.7517 15.2346 90.7192 15.5483 90.652 15.8554L90.4004 17.5116L90.3615 17.8035L90.3227 18.0374L90.3035 18.213V18.3295L90.3016 18.3292ZM93.566 13.6146H93.4493C93.0416 13.6146 92.809 13.8095 92.439 14.3742L92.5556 13.6533H91.4478L90.7094 18.329H91.9132C92.3603 15.4652 92.4769 14.9782 93.0599 14.9782H93.1376C93.2269 14.5097 93.384 14.0568 93.6039 13.6338L93.565 13.6146H93.566Z" fill="#EAEAEA"/>
</svg>
