<svg width="95" height="81" viewBox="0 0 95 81" fill="none" xmlns="http://www.w3.org/2000/svg">
<path d="M47.5001 19.5493C52.5952 19.5493 56.7256 15.2537 56.7256 9.95484C56.7256 4.65595 52.5952 0.360352 47.5001 0.360352C42.405 0.360352 38.2747 4.65595 38.2747 9.95484C38.2747 15.2537 42.405 19.5493 47.5001 19.5493Z" fill="#EEF2FF"/>
<path d="M53.1359 21.0257H41.864C38.8705 20.8983 35.9489 21.9645 33.7411 23.99C31.5332 26.0154 30.2196 28.8345 30.089 31.8278V46.4209C30.1036 48.1422 30.6497 49.817 31.6525 51.2162C32.6553 52.6153 34.0659 53.6705 35.6914 54.2373V73.6947C35.6253 75.425 36.2308 77.1139 37.3812 78.4081C38.5316 79.7024 40.1379 80.5017 41.864 80.639H53.1359C54.862 80.5017 56.4683 79.7024 57.6187 78.4081C58.7691 77.1139 59.3746 75.425 59.3086 73.6947V54.2373C60.9233 53.6744 62.3264 52.6295 63.3283 51.2436C64.3302 49.8578 64.8826 48.1978 64.9109 46.488V31.8278C64.7803 28.8345 63.4667 26.0154 61.2588 23.99C59.051 21.9645 56.1294 20.8983 53.1359 21.0257ZM13.9528 22.2334C15.0685 22.2735 16.1708 21.9793 17.1182 21.3886C18.0656 20.7979 18.8149 19.9376 19.27 18.9181C19.725 17.8986 19.8651 16.7663 19.6722 15.6666C19.4793 14.567 18.9622 13.55 18.1873 12.7462C17.4125 11.9425 16.4151 11.3886 15.3232 11.1556C14.2313 10.9226 13.0947 11.0211 12.0592 11.4386C11.0238 11.8561 10.1366 12.5734 9.51167 13.4986C8.88671 14.4237 8.55243 15.5145 8.55171 16.631C8.53837 17.3535 8.6675 18.0716 8.93174 18.7442C9.19597 19.4168 9.59013 20.0308 10.0917 20.551C10.5932 21.0713 11.1924 21.4876 11.8549 21.7763C12.5174 22.065 13.2303 22.2203 13.9528 22.2334ZM17.9785 24.9171H9.92714C7.55865 24.8074 5.24269 25.6377 3.48344 27.2273C1.7242 28.8169 0.664102 31.0371 0.533936 33.4046V43.4687C0.553471 44.9409 1.05671 46.3658 1.96607 47.5237C2.87543 48.6816 4.14041 49.5083 5.56601 49.8762V62.6577C5.47274 64.0994 5.94683 65.5204 6.88704 66.6173C7.82726 67.7143 9.15907 68.4001 10.5981 68.5284H17.6094C18.3372 68.4734 19.0468 68.2749 19.6975 67.9446C20.3483 67.6142 20.9273 67.1584 21.4012 66.6035C21.8751 66.0485 22.2346 65.4053 22.459 64.7108C22.6833 64.0164 22.7682 63.2844 22.7086 62.557V49.6749C24.0492 49.2457 25.2209 48.4057 26.0577 47.2739C26.8946 46.142 27.3542 44.7756 27.3717 43.3681V33.3039C27.2161 30.9544 26.145 28.7596 24.3886 27.1914C22.6321 25.6231 20.3305 24.8066 17.9785 24.9171ZM81.0471 22.2334C82.1629 22.2735 83.2651 21.9793 84.2125 21.3886C85.1599 20.7979 85.9092 19.9376 86.3643 18.9181C86.8193 17.8986 86.9594 16.7663 86.7665 15.6666C86.5736 14.567 86.0565 13.55 85.2817 12.7462C84.5068 11.9425 83.5094 11.3886 82.4175 11.1556C81.3256 10.9226 80.189 11.0211 79.1536 11.4386C78.1181 11.8561 77.2309 12.5734 76.606 13.4986C75.981 14.4237 75.6467 15.5145 75.646 16.631C75.6327 17.3535 75.7618 18.0716 76.026 18.7442C76.2903 19.4168 76.6844 20.0308 77.186 20.551C77.6876 21.0713 78.2867 21.4876 78.9492 21.7763C79.6117 22.065 80.3246 22.2203 81.0471 22.2334ZM85.0728 24.9171H77.0214C74.653 24.8074 72.337 25.6377 70.5778 27.2273C68.8185 28.8169 67.7584 31.0371 67.6283 33.4046V43.4687C67.6478 44.9409 68.151 46.3658 69.0604 47.5237C69.9697 48.6816 71.2347 49.5083 72.6603 49.8762V62.6577C72.5671 64.0994 73.0411 65.5204 73.9814 66.6173C74.9216 67.7143 76.2534 68.4001 77.6924 68.5284H84.6367C85.3644 68.4734 86.074 68.2749 86.7248 67.9446C87.3755 67.6142 87.9545 67.1584 88.4284 66.6035C88.9023 66.0485 89.2618 65.4053 89.4862 64.7108C89.7106 64.0164 89.7954 63.2844 89.7358 62.557V49.6749C91.0889 49.2574 92.2752 48.4224 93.1249 47.2895C93.9745 46.1566 94.444 44.784 94.466 43.3681V33.3039C94.3104 30.9544 93.2393 28.7596 91.4829 27.1914C89.7264 25.6231 87.4249 24.8066 85.0728 24.9171Z" fill="#EEF2FF"/>
</svg>
