<svg width="16" height="14" viewBox="0 0 16 14" fill="none" xmlns="http://www.w3.org/2000/svg">
<path d="M2.56888 13.938H11.3476C11.8917 13.9364 12.413 13.7191 12.797 13.3336C13.181 12.9481 13.3964 12.4261 13.396 11.882V7.47096C13.396 7.31575 13.3343 7.16689 13.2245 7.05713C13.1148 6.94738 12.9659 6.88572 12.8107 6.88572C12.6555 6.88572 12.5066 6.94738 12.3969 7.05713C12.2871 7.16689 12.2255 7.31575 12.2255 7.47096V11.882C12.2262 12.1157 12.1342 12.3403 11.9697 12.5063C11.8051 12.6723 11.5814 12.7662 11.3476 12.7675H2.56888C2.33511 12.7662 2.11139 12.6723 1.94681 12.5063C1.78222 12.3403 1.69023 12.1157 1.691 11.882V3.11848C1.69023 2.88471 1.78222 2.66019 1.94681 2.49418C2.11139 2.32817 2.33511 2.23423 2.56888 2.233H6.95823C7.11345 2.233 7.26231 2.17134 7.37207 2.06158C7.48182 1.95183 7.54348 1.80297 7.54348 1.64775C7.54348 1.49253 7.48182 1.34367 7.37207 1.23392C7.26231 1.12416 7.11345 1.0625 6.95823 1.0625H2.56888C2.02477 1.06405 1.50351 1.2814 1.11948 1.66685C0.735458 2.05231 0.520041 2.57437 0.520509 3.11848V11.882C0.520041 12.4261 0.735458 12.9481 1.11948 13.3336C1.50351 13.7191 2.02477 13.9364 2.56888 13.938Z" fill="#4F46E5"/>
<path d="M6.99568 6.1874L6.53392 8.30249C6.51302 8.39842 6.51659 8.49808 6.54431 8.59227C6.57202 8.68647 6.62299 8.77217 6.69252 8.8415C6.76301 8.90909 6.84875 8.95868 6.94248 8.98609C7.03621 9.01349 7.13516 9.0179 7.23095 8.99893L9.34136 8.536C9.45094 8.51194 9.55129 8.45688 9.63047 8.3774L14.9644 3.04345C15.1275 2.88041 15.2568 2.68684 15.3451 2.47381C15.4333 2.26077 15.4788 2.03244 15.4788 1.80185C15.4788 1.57125 15.4333 1.34292 15.3451 1.12988C15.2568 0.916848 15.1275 0.723283 14.9644 0.560243C14.6301 0.240777 14.1855 0.0625 13.7231 0.0625C13.2607 0.0625 12.8161 0.240777 12.4818 0.560243L7.15604 5.89946C7.07611 5.9781 7.02045 6.07804 6.99568 6.1874ZM13.3093 1.38837C13.4207 1.2817 13.5689 1.22215 13.7231 1.22215C13.8773 1.22215 14.0255 1.2817 14.1369 1.38837C14.2451 1.49876 14.3058 1.64722 14.3058 1.80185C14.3058 1.95647 14.2451 2.10493 14.1369 2.21532L13.7231 2.62909L12.8956 1.80155L13.3093 1.38837ZM8.10063 6.60527L12.0651 2.63085L12.8844 3.45429L8.91822 7.42988L7.8677 7.66047L8.10063 6.60527Z" fill="#4F46E5"/>
</svg>
