<?xml version="1.0" encoding="utf-8"?>
<!-- Generator: Adobe Illustrator 26.5.0, SVG Export Plug-In . SVG Version: 6.00 Build 0)  -->
<svg version="1.1" id="Calque_1" xmlns="http://www.w3.org/2000/svg" xmlns:xlink="http://www.w3.org/1999/xlink" x="0px" y="0px"
	 viewBox="0 0 199 26" style="enable-background:new 0 0 199 26;" xml:space="preserve">
<style type="text/css">
	.st0{fill:#3730A3;}
</style>
<path class="st0" d="M26.7,7.2l-5.6,16.6h-6.9L8.6,7.2h6.3l2.7,11h0.2l2.7-11H26.7z M35.9,24.1c-1.8,0-3.3-0.4-4.6-1.1
	c-1.3-0.7-2.3-1.7-3-3c-0.7-1.3-1-2.8-1-4.5s0.3-3.2,1-4.5c0.7-1.3,1.7-2.3,3-3C32.6,7.3,34.1,7,35.9,7c1.8,0,3.3,0.4,4.6,1.1
	c1.3,0.7,2.3,1.7,3,3c0.7,1.3,1,2.8,1,4.5s-0.3,3.2-1,4.5c-0.7,1.3-1.7,2.3-3,3C39.3,23.7,37.7,24.1,35.9,24.1z M35.9,19.7
	c0.5,0,0.9-0.2,1.3-0.5c0.4-0.3,0.7-0.8,0.9-1.4c0.2-0.6,0.3-1.4,0.3-2.2c0-0.9-0.1-1.6-0.3-2.2c-0.2-0.6-0.5-1.1-0.9-1.4
	c-0.4-0.3-0.8-0.5-1.3-0.5c-0.5,0-1,0.2-1.4,0.5c-0.4,0.3-0.7,0.8-0.9,1.4c-0.2,0.6-0.3,1.4-0.3,2.2c0,0.9,0.1,1.6,0.3,2.2
	c0.2,0.6,0.5,1.1,0.9,1.4C35,19.5,35.4,19.7,35.9,19.7z M46.9,23.8V7.2h6v16.6H46.9z M49.9,5.5c-0.8,0-1.5-0.3-2.1-0.8
	C47.3,4.1,47,3.5,47,2.7s0.3-1.4,0.9-1.9C48.4,0.3,49.1,0,49.9,0c0.8,0,1.5,0.3,2.1,0.8c0.6,0.5,0.9,1.2,0.9,1.9S52.6,4.1,52,4.7
	C51.4,5.2,50.7,5.5,49.9,5.5z M65.9,7.2v4.3H54.9V7.2H65.9z M57,3.2h6v15.3c0,0.2,0,0.4,0.1,0.6c0.1,0.2,0.2,0.3,0.4,0.3
	c0.2,0.1,0.4,0.1,0.6,0.1c0.2,0,0.4,0,0.6-0.1c0.2,0,0.4-0.1,0.5-0.1l0.9,4.2c-0.3,0.1-0.6,0.2-1.1,0.3c-0.5,0.1-1.1,0.2-1.8,0.2
	c-1.4,0.1-2.5-0.1-3.5-0.4c-0.9-0.4-1.6-0.9-2.1-1.7C57.2,21.1,57,20.2,57,19V3.2z M79.1,16.5V7.2h6v16.6h-5.7v-3.2h-0.2
	c-0.4,1.1-1,1.9-1.9,2.5c-0.9,0.6-2,0.9-3.2,0.9c-1.2,0-2.2-0.3-3.1-0.8c-0.9-0.5-1.5-1.3-2-2.2c-0.5-0.9-0.7-2-0.7-3.2V7.2h6v9.3
	c0,0.8,0.2,1.5,0.6,1.9c0.4,0.5,1,0.7,1.8,0.7c0.5,0,0.9-0.1,1.3-0.3c0.4-0.2,0.6-0.5,0.8-0.9C79,17.6,79.1,17.1,79.1,16.5z
	 M88.1,23.8V7.2h5.8v3.2h0.2c0.3-1.2,0.8-2,1.4-2.6C96.2,7.2,96.9,7,97.8,7c0.3,0,0.5,0,0.8,0.1c0.3,0,0.5,0.1,0.7,0.2v5.1
	c-0.3-0.1-0.7-0.2-1.1-0.2C97.8,12,97.4,12,97.1,12c-0.6,0-1.1,0.1-1.6,0.4c-0.5,0.3-0.8,0.6-1.1,1.1c-0.3,0.5-0.4,1-0.4,1.7v8.7
	H88.1z M108.3,24.1c-1.8,0-3.3-0.3-4.6-1c-1.3-0.7-2.3-1.7-3-2.9c-0.7-1.3-1-2.8-1-4.6c0-1.7,0.3-3.2,1-4.5c0.7-1.3,1.7-2.3,2.9-3
	c1.3-0.7,2.8-1.1,4.5-1.1c1.3,0,2.4,0.2,3.4,0.6c1,0.4,1.9,1,2.6,1.7c0.7,0.7,1.3,1.6,1.7,2.7c0.4,1.1,0.6,2.2,0.6,3.6v1.4h-14.8
	v-3.3h9.3c0-0.5-0.1-0.9-0.4-1.3c-0.2-0.4-0.5-0.7-0.9-0.9c-0.4-0.2-0.8-0.3-1.3-0.3c-0.5,0-0.9,0.1-1.3,0.3c-0.4,0.2-0.7,0.5-1,0.8
	c-0.2,0.4-0.4,0.8-0.4,1.3v3.5c0,0.5,0.1,1,0.3,1.4c0.2,0.4,0.5,0.7,1,1c0.4,0.2,0.9,0.4,1.5,0.4c0.4,0,0.8-0.1,1.1-0.2
	c0.3-0.1,0.6-0.3,0.9-0.5c0.2-0.2,0.4-0.5,0.5-0.8h5.5c-0.2,1.2-0.6,2.2-1.3,3c-0.7,0.8-1.6,1.5-2.8,2
	C111.2,23.9,109.8,24.1,108.3,24.1z M126.9,24.1c-1.8,0-3.3-0.4-4.6-1.1c-1.3-0.7-2.3-1.7-3-3c-0.7-1.3-1-2.8-1-4.5s0.3-3.2,1-4.5
	c0.7-1.3,1.7-2.3,3-3c1.3-0.7,2.8-1.1,4.6-1.1c1.6,0,3,0.3,4.2,0.9c1.2,0.6,2.1,1.4,2.8,2.5c0.7,1.1,1,2.3,1,3.8h-5.5
	c-0.1-0.9-0.3-1.5-0.8-2c-0.4-0.5-1-0.7-1.6-0.7c-0.5,0-1,0.2-1.4,0.5c-0.4,0.3-0.7,0.7-0.9,1.4c-0.2,0.6-0.3,1.4-0.3,2.3
	c0,0.9,0.1,1.7,0.3,2.3c0.2,0.6,0.5,1,0.9,1.4c0.4,0.3,0.8,0.4,1.4,0.4c0.4,0,0.8-0.1,1.2-0.3c0.3-0.2,0.6-0.5,0.8-0.9
	c0.2-0.4,0.3-0.9,0.4-1.5h5.5c0,1.5-0.4,2.7-1,3.8c-0.6,1.1-1.6,1.9-2.8,2.5C129.9,23.8,128.5,24.1,126.9,24.1z M142,24.1
	c-1.1,0-2-0.2-2.8-0.5c-0.8-0.4-1.4-0.9-1.9-1.6c-0.5-0.7-0.7-1.6-0.7-2.7c0-0.9,0.2-1.7,0.5-2.3c0.3-0.6,0.7-1.2,1.3-1.6
	c0.6-0.4,1.2-0.7,1.9-0.9c0.7-0.2,1.5-0.4,2.4-0.4c0.9-0.1,1.7-0.2,2.2-0.3c0.6-0.1,1-0.3,1.2-0.4c0.3-0.2,0.4-0.5,0.4-0.8v0
	c0-0.4-0.2-0.8-0.5-1c-0.3-0.2-0.8-0.3-1.3-0.3c-0.6,0-1,0.1-1.4,0.4c-0.4,0.2-0.6,0.6-0.6,1.1h-5.5c0.1-1,0.4-1.9,1-2.8
	c0.6-0.9,1.4-1.5,2.5-2.1c1.1-0.5,2.5-0.8,4.1-0.8c1.2,0,2.3,0.1,3.2,0.4c0.9,0.3,1.7,0.7,2.4,1.2c0.7,0.5,1.2,1.1,1.5,1.7
	c0.4,0.7,0.5,1.4,0.5,2.1v11.4h-5.6v-2.3h-0.1c-0.3,0.6-0.7,1.1-1.2,1.5c-0.5,0.4-1,0.7-1.6,0.8C143.4,24,142.7,24.1,142,24.1z
	 M143.9,20.3c0.5,0,0.9-0.1,1.3-0.3c0.4-0.2,0.7-0.5,1-0.8c0.3-0.4,0.4-0.8,0.4-1.3v-1.4c-0.2,0.1-0.3,0.1-0.5,0.2
	c-0.2,0.1-0.4,0.1-0.6,0.2c-0.2,0.1-0.4,0.1-0.6,0.1c-0.2,0-0.4,0.1-0.7,0.1c-0.5,0.1-0.8,0.2-1.1,0.4c-0.3,0.2-0.5,0.4-0.6,0.6
	c-0.1,0.2-0.2,0.5-0.2,0.8c0,0.5,0.2,0.8,0.5,1.1C143,20.2,143.4,20.3,143.9,20.3z M170.5,12.6H165c0-0.3-0.1-0.6-0.4-0.9
	c-0.2-0.2-0.5-0.4-0.8-0.6c-0.3-0.1-0.7-0.2-1.1-0.2c-0.5,0-1,0.1-1.3,0.3c-0.4,0.2-0.5,0.5-0.5,0.8c0,0.2,0.1,0.5,0.3,0.7
	c0.2,0.2,0.7,0.4,1.3,0.5l3.4,0.6c1.7,0.3,3,0.8,3.8,1.6c0.8,0.7,1.3,1.7,1.3,2.9c0,1.2-0.4,2.2-1.1,3.1c-0.7,0.9-1.6,1.5-2.8,2
	c-1.2,0.5-2.6,0.7-4.1,0.7c-2.5,0-4.5-0.5-6-1.6c-1.4-1-2.2-2.4-2.4-4.1h5.9c0.1,0.5,0.3,0.9,0.8,1.2c0.4,0.3,1,0.4,1.7,0.4
	c0.5,0,1-0.1,1.4-0.3c0.4-0.2,0.5-0.5,0.6-0.8c0-0.3-0.2-0.6-0.5-0.8c-0.3-0.2-0.8-0.3-1.4-0.5l-2.9-0.5c-1.7-0.3-3-0.9-3.8-1.7
	c-0.8-0.8-1.3-1.9-1.3-3.2c0-1.2,0.3-2.1,0.9-2.9c0.6-0.8,1.5-1.4,2.6-1.8c1.2-0.4,2.5-0.6,4.1-0.6c2.4,0,4.3,0.5,5.7,1.5
	C169.7,9.5,170.5,10.8,170.5,12.6z M179.2,14.5v9.3h-6V1.6h5.8v8.7h0.2c0.4-1.1,1-1.9,1.9-2.5c0.9-0.6,1.9-0.9,3.1-0.9
	c1.2,0,2.2,0.3,3.1,0.8c0.9,0.5,1.5,1.3,2,2.2c0.5,0.9,0.7,2,0.7,3.2v10.6h-6v-9.3c0-0.8-0.2-1.5-0.6-1.9c-0.4-0.5-1-0.7-1.8-0.7
	c-0.5,0-0.9,0.1-1.3,0.3c-0.4,0.2-0.6,0.5-0.8,0.9C179.3,13.4,179.2,13.9,179.2,14.5z"/>
<path class="st0" d="M14,6.6c-1.5,0-3.1,0-5.2,0.2C6.7,7,6.4,7.1,6.1,7.2c-0.3,0.1-1,0.5-1.7,1.7c-0.6,1.1-1,2.6-1.3,3.3l-0.5,0
	c0,0,0-1.1-0.2-1.2c-0.1-0.1-0.2-0.1-0.6-0.1c-0.5,0.1-1.3,0.2-1.4,0.4C0.1,11.5,0,11.9,0,12c0,0.2,0.1,0.2,0.3,0.4
	c0.2,0.2,1.1,0.3,1.6,0.3c0.4,0,0.4-0.2,0.6-0.2c0.1,0,0.3,0.1,0.4,0.2c-0.2,0.4-0.2,0.3-1.1,1c-1,0.7-1.4,1-1.4,1.1
	C0.2,15,0,16.7,0,18.4s0.1,3.2,0.1,3.7c0,0.2,0,0.6,0,1c0,0.2,0.1,0.4,0.2,0.6C0.5,24,0.6,24,1.2,24c0.1,0,0.3,0,0.4,0
	c-0.5,0.2-1.1,0.3-1.2,0.1c-0.1-0.2-0.1-0.4-0.2-0.6c0,0.1,0,0.3,0,0.4v0.1c0,0.1,0,0.1,0,0.2v0c0,0.1,0,0.3,0,0.4
	c0.1,0.6,0.1,1,0.3,1.1c0.2,0.1,0.3,0.1,0.5,0.1h2.3c0.1,0,0.5,0,0.6-0.9c0,0,0-0.1,0-0.4c0-0.1,0-0.3,0-0.4c0,0,0,0,0,0
	c0.7,0,1.5,0.1,2.1,0.1c1.6,0,1.2-0.2,1.9-0.2l3.5-0.1H14V12.1V7.4V6.6z M1.5,14.9c0.8,0,1.7,0.1,3.2,0.5c1.7,0.5,2.7,1.4,2.7,1.4
	s-0.2,0-0.6,0.1c-0.4,0.1-0.6,0.3-1.1,0.3c-0.5,0-1.8-0.2-2.1-0.2c-0.3,0-0.5,0.2-0.7,0.2c-0.1,0-0.4-0.1-0.9-0.2
	c-0.4-0.1-0.7-0.1-0.8-0.7c-0.1-0.6,0-1.4,0-1.4C1.2,14.9,1.3,14.9,1.5,14.9z"/>
<path class="st0" d="M13.9,6.6h-1.5c-0.6,0-1,0.5-1,1v15.2c0,0.6,0.5,1,1,1h1.5c0.6,0,1-0.5,1-1V7.6C14.9,7,14.5,6.6,13.9,6.6z"/>
<path class="st0" d="M185,6.6c3.5-0.1,8-0.5,9.6,2.3c0.6,1.1,1,2.6,1.3,3.3l0.5,0c0,0,0-1.1,0.2-1.2c0.1-0.1,0.2-0.1,0.6-0.1
	c0.5,0.1,1.3,0.2,1.4,0.4c0.2,0.2,0.3,0.6,0.3,0.7c0,0.2-0.1,0.2-0.2,0.4c-0.2,0.2-1.1,0.3-1.6,0.3c-0.4,0-0.4-0.2-0.6-0.2
	c-0.1,0-0.3,0.1-0.4,0.2c0.2,0.4,0.2,0.3,1.1,1c1,0.7,1.4,1,1.4,1.1c0.1,0.2,0.3,1.8,0.3,3.5c0,1.7-0.1,3.2-0.1,3.7c0,0.2,0,0.6,0,1
	c0,0.2-0.1,0.4-0.2,0.6c-0.1,0.3-0.3,0.3-0.8,0.3c-0.1,0-0.3,0-0.4,0c0.5,0.2,1.1,0.3,1.2,0.1c0.1-0.2,0.1-0.4,0.2-0.6
	c0,0.1,0,0.3,0,0.4v0.1c0,0.1,0,0.1,0,0.2v0c0,0.1,0,0.3,0,0.4c-0.1,0.6-0.1,1-0.3,1.1c-0.2,0.1-0.3,0.1-0.5,0.1h-2.3
	c-0.1,0-0.5,0-0.6-0.9c0,0,0-0.1,0-0.4c0-0.1,0-0.3,0-0.4c0,0,0,0,0,0c-0.7,0-1.5,0.1-2.1,0.1c-1.6,0-1.2-0.2-1.9-0.2l-3.5-0.1H185
	V12.1V7.5V6.6z M197.5,14.9c-0.8,0-1.7,0.1-3.2,0.5c-1.7,0.5-2.7,1.4-2.7,1.4s0.2,0,0.6,0.1c0.4,0.1,0.6,0.3,1.1,0.3
	c0.5,0,1.8-0.2,2.1-0.2c0.3,0,0.5,0.2,0.7,0.2c0.1,0,0.4-0.1,0.9-0.2c0.4-0.1,0.7-0.1,0.8-0.7c0.1-0.6,0-1.4,0-1.4
	C197.7,14.9,197.6,14.9,197.5,14.9z"/>
<path class="st0" d="M180.9,8c1.6-1.1,2.4-1.4,5.7-1.4c0.6,0,1,0.5,1,1v15.2c0,0.6-0.5,1-1,1H185c-0.2,0-0.6-1-0.6-1l-0.1-9.3
	L180.9,8z"/>
</svg>
