<svg width="57" height="32" viewBox="0 0 57 32" fill="none" xmlns="http://www.w3.org/2000/svg">
<path d="M19.818 21.3371H51.8213C53.0329 21.3338 54.1939 20.8506 55.0508 19.9938C55.9076 19.1371 56.3905 17.9759 56.3938 16.7643V12.1935C56.3938 9.68164 54.3361 7.62395 51.8227 7.62238L19.8227 7.61914L19.8179 21.3371H19.818ZM19.8212 9.90291L51.8215 9.90615C52.1229 9.90183 52.422 9.9582 52.7013 10.0716C52.9807 10.185 53.2347 10.3533 53.448 10.5666C53.6611 10.7798 53.8294 11.0337 53.943 11.313C54.0564 11.5925 54.1126 11.8916 54.1084 12.1931V14.4786H50.6819L50.6787 12.1931H43.8257L43.8224 14.4786L41.5338 14.4754V12.1899H34.6805L34.6772 14.4754H32.392V12.1899H25.5353V14.4754H19.8196L19.8212 9.90291ZM27.8205 14.4757H30.1061V16.761H36.9625V14.4757H39.248V16.761L46.1077 16.7642V14.4789H48.393V16.7642H54.1084C54.1122 17.0655 54.0558 17.3643 53.9424 17.6434C53.829 17.9224 53.661 18.1763 53.448 18.3893C53.2349 18.6023 52.9814 18.7703 52.7024 18.8837C52.4232 18.9972 52.1242 19.0536 51.8229 19.0497H19.8198L19.8182 19.0514L19.8231 16.7608H27.8207L27.8205 14.4757Z" fill="#4F46E5"/>
<path d="M23.3572 0C20.8757 5.3996e-06 18.093 0.0549146 14.5987 0.410738C11.1772 0.766572 10.7208 0.866995 10.219 1.0221C9.71717 1.17721 8.48548 1.84311 7.31762 3.94161C6.25012 5.86676 5.56578 8.31213 5.07309 9.5256L4.31579 9.50719C4.31579 9.50719 4.30689 7.67321 3.97844 7.47249C3.77772 7.34476 3.66799 7.23548 2.89245 7.34497C2.11693 7.45446 0.794056 7.61884 0.483844 7.96554C0.173631 8.31226 0.00948737 8.89593 0.00948737 9.17877C0.00948737 9.46161 0.109535 9.58009 0.428872 9.89031C0.748208 10.2096 2.30867 10.4015 3.02945 10.4015C3.75024 10.4015 3.76846 10.0731 4.11517 10.1096C4.27027 10.1279 4.53469 10.2825 4.79015 10.3647C4.48906 11.0854 4.53472 10.9215 2.91979 12.0255C1.32311 13.1203 0.611272 13.6861 0.510909 13.905C0.364925 14.2061 0 16.9432 0 19.7443C0 22.5453 0.200903 25.0636 0.200903 25.9578C0.200903 26.3318 0.200825 26.9886 0.28294 27.6181C0.337682 27.9922 0.419893 28.3573 0.565877 28.6402C0.812221 29.142 1.04025 29.1876 1.98001 29.1421C2.18085 29.133 2.40135 29.1275 2.62988 29.124C1.85393 29.4117 0.738865 29.6336 0.556949 29.2629C0.420093 28.9801 0.328751 28.6152 0.274009 28.2411C0.274009 28.4601 0.273925 28.734 0.264802 28.9803V29.0807C0.264802 29.181 0.274009 29.2723 0.274009 29.3453V29.3545C0.283129 29.5917 0.292316 29.7924 0.310566 29.9474C0.429178 31.015 0.556909 31.6444 0.88537 31.8359C1.15908 32.0002 1.4511 32 1.79781 32H5.721C5.96735 32 6.58792 31.9544 6.70654 30.5767C6.70654 30.5767 6.72468 30.3395 6.72468 29.8378C6.72468 29.6134 6.7209 29.4072 6.7135 29.2147C6.71728 29.2149 6.72095 29.2148 6.72468 29.215C7.92903 29.2606 9.16068 29.3062 10.2556 29.3336C12.9927 29.3882 12.19 28.9323 13.3578 28.9505L19.2153 28.8586H23.3572V9.29736V1.45097L23.3572 0ZM2.43512 13.9435C3.82323 13.9335 5.30238 14.133 7.80119 14.8356C10.657 15.6385 12.2442 17.1806 12.2442 17.1806C12.2442 17.1806 11.8796 17.1896 11.2227 17.3539C10.5658 17.5181 10.1732 17.874 9.35205 17.865C8.53089 17.865 6.31375 17.4908 5.83931 17.4724C5.36487 17.4542 4.94553 17.7919 4.69918 17.8558C4.45283 17.9196 3.96892 17.746 3.239 17.5179C2.50909 17.2899 2.0805 17.3538 1.84329 16.3594C1.59694 15.374 1.84329 13.96 1.84329 13.96C2.04059 13.9509 2.23681 13.9449 2.43512 13.9435Z" fill="#4F46E5"/>
<path d="M25.5726 25.8585V3.00015C25.5726 1.34321 24.2294 0 22.5724 0C20.9155 0 19.5723 1.34321 19.5723 3.00015V25.8585C19.5723 27.5154 20.9155 28.8586 22.5724 28.8586C24.2294 28.8586 25.5726 27.5154 25.5726 25.8585Z" fill="#4F46E5"/>
</svg>
