<svg width="18" height="20" viewBox="0 0 18 20" fill="none" xmlns="http://www.w3.org/2000/svg">
<path d="M12.6 19.0337H18V16.3337C17.6022 16.3337 17.2206 16.1757 16.9393 15.8944C16.658 15.6131 16.5 15.2316 16.5 14.8337C16.5 14.4359 16.658 14.0544 16.9393 13.7731C17.2206 13.4918 17.6022 13.3337 18 13.3337V10.6337H12.6V19.0337ZM12 10.6337H0V19.0337H12V10.6337ZM10.8 16.9337H1.2C1.12044 16.9337 1.04413 16.9021 0.987868 16.8459C0.931607 16.7896 0.9 16.7133 0.9 16.6337C0.9 16.5542 0.931607 16.4779 0.987868 16.4216C1.04413 16.3654 1.12044 16.3337 1.2 16.3337H10.8C10.8796 16.3337 10.9559 16.3654 11.0121 16.4216C11.0684 16.4779 11.1 16.5542 11.1 16.6337C11.1 16.7133 11.0684 16.7896 11.0121 16.8459C10.9559 16.9021 10.8796 16.9337 10.8 16.9337ZM10.8 15.1337H1.2C1.12044 15.1337 1.04413 15.1021 0.987868 15.0459C0.931607 14.9896 0.9 14.9133 0.9 14.8337C0.9 14.7542 0.931607 14.6779 0.987868 14.6216C1.04413 14.5654 1.12044 14.5337 1.2 14.5337H10.8C10.8796 14.5337 10.9559 14.5654 11.0121 14.6216C11.0684 14.6779 11.1 14.7542 11.1 14.8337C11.1 14.9133 11.0684 14.9896 11.0121 15.0459C10.9559 15.1021 10.8796 15.1337 10.8 15.1337ZM10.8 13.3337H4.2C4.12044 13.3337 4.04413 13.3021 3.98787 13.2459C3.93161 13.1896 3.9 13.1133 3.9 13.0337C3.9 12.9542 3.93161 12.8779 3.98787 12.8216C4.04413 12.7654 4.12044 12.7337 4.2 12.7337H10.8C10.8796 12.7337 10.9559 12.7654 11.0121 12.8216C11.0684 12.8779 11.1 12.9542 11.1 13.0337C11.1 13.1133 11.0684 13.1896 11.0121 13.2459C10.9559 13.3021 10.8796 13.3337 10.8 13.3337ZM5.0625 10.0337L7.554 7.54375C7.61058 7.4891 7.68636 7.45886 7.76502 7.45955C7.84368 7.46023 7.91892 7.49178 7.97455 7.5474C8.03017 7.60302 8.06172 7.67827 8.0624 7.75693C8.06309 7.83559 8.03285 7.91137 7.9782 7.96795L5.91 10.0337H7.608L8.8269 8.81515C8.85457 8.78649 8.88768 8.76364 8.92428 8.74792C8.96088 8.73219 9.00025 8.72392 9.04008 8.72357C9.07991 8.72323 9.11942 8.73082 9.15629 8.7459C9.19316 8.76098 9.22665 8.78326 9.25482 8.81143C9.28299 8.8396 9.30526 8.87309 9.32035 8.90996C9.33543 8.94683 9.34302 8.98633 9.34268 9.02617C9.34233 9.066 9.33405 9.10537 9.31833 9.14197C9.30261 9.17857 9.27975 9.21167 9.2511 9.23935L8.4567 10.0337H10.1811C10.2217 10.0136 10.2664 10.0032 10.3118 10.0032C10.3571 10.0032 10.4018 10.0136 10.4424 10.0337H11.7426L6.9177 5.20885L2.0928 10.0337H5.0625ZM17.1 6.90595L15.1908 4.99675C15.0517 5.13704 14.8863 5.24848 14.7041 5.32467C14.5218 5.40086 14.3263 5.44031 14.1288 5.44074C13.9313 5.44117 13.7356 5.40258 13.553 5.32719C13.3704 5.2518 13.2045 5.14108 13.0648 5.0014C12.9252 4.86172 12.8145 4.69583 12.7391 4.51325C12.6637 4.33067 12.6251 4.13499 12.6255 3.93746C12.6259 3.73992 12.6654 3.54442 12.7416 3.36217C12.8178 3.17992 12.9292 3.01451 13.0695 2.87545L11.16 0.966248L7.3419 4.78375L12.5913 10.0337H13.9713L17.1 6.90595Z" fill="#9CA3AF"/>
</svg>
