<svg width="20" height="21" viewBox="0 0 20 21" fill="none" xmlns="http://www.w3.org/2000/svg">
<path fill-rule="evenodd" clip-rule="evenodd" d="M5.29315 10.2068C5.10545 10.0193 5 9.76495 5 9.49979C5 9.23462 5.10545 8.98031 5.29315 8.79279L9.29816 4.79279C9.48592 4.60532 9.74055 4.5 10.006 4.5C10.2715 4.5 10.5262 4.60532 10.7139 4.79279L14.7189 8.79279C14.9013 8.98139 15.0022 9.23399 15 9.49619C14.9977 9.75838 14.8924 10.0092 14.7067 10.1946C14.5211 10.38 14.27 10.4852 14.0074 10.4875C13.7449 10.4897 13.492 10.3889 13.3032 10.2068L11.0073 7.91379V15.4998C11.0073 15.765 10.9018 16.0194 10.714 16.2069C10.5263 16.3944 10.2716 16.4998 10.006 16.4998C9.7405 16.4998 9.48582 16.3944 9.29805 16.2069C9.11028 16.0194 9.00479 15.765 9.00479 15.4998V7.91379L6.70892 10.2068C6.52116 10.3943 6.26653 10.4996 6.00104 10.4996C5.73554 10.4996 5.48092 10.3943 5.29315 10.2068Z" fill="#10B981"/>
</svg>
